{
.appVersion = "983";
copyright = "Copyright 2016 Google Inc. All Rights Reserved.";
customParameters = (
{
name = description;
value = "Designed by Monotype design team.";
},
{
name = license;
value = "This Font Software is licensed under the SIL Open Font License, Version 1.1. This Font Software is distributed on an \"AS IS\" BASIS, WITHOUT WARRANTIES OR CONDITIONS OF ANY KIND, either express or implied. See the SIL Open Font License for the specific language, permissions and limitations governing your use of this Font Software.";
},
{
name = licenseURL;
value = "http://scripts.sil.org/OFL";
},
{
name = vendorID;
value = GOOG;
},
{
name = trademark;
value = "Noto is a trademark of Google Inc.";
},
{
name = fsType;
value = (
);
},
{
name = panose;
value = (
2,
11,
5,
2,
4,
5,
4,
2,
2,
4
);
},
{
name = codePageRanges;
value = (
1252
);
},
{
name = glyphOrder;
value = (
.notdef,
null,
uni000D,
space,
uni1A20,
uni1A21,
uni1A22,
uni1A23,
uni1A24,
uni1A25,
uni1A26,
uni1A27,
uni1A28,
uni1A29,
uni1A2A,
uni1A2B,
uni1A2C,
uni1A2D,
uni1A2E,
uni1A2F,
uni1A30,
uni1A31,
uni1A32,
uni1A33,
uni1A34,
uni1A35,
uni1A36,
uni1A37,
uni1A38,
uni1A39,
uni1A3A,
uni1A3B,
uni1A3C,
uni1A3D,
uni1A3E,
uni1A3F,
uni1A40,
uni1A41,
uni1A42,
uni1A43,
uni1A44,
uni1A45,
uni1A46,
uni1A47,
uni1A48,
uni1A49,
uni1A4A,
uni1A4B,
uni1A4C,
uni1A4D,
uni1A4E,
uni1A4F,
uni1A50,
uni1A51,
uni1A52,
uni1A53,
uni1A54,
uni1A55,
uni1A56,
uni1A57,
uni1A58,
uni1A59,
uni1A5A,
uni1A5B,
uni1A5C,
uni1A5D,
uni1A5E,
uni1A60,
uni1A61,
uni1A62,
uni1A63,
uni1A64,
uni1A65,
uni1A66,
uni1A67,
uni1A68,
uni1A69,
uni1A6A,
uni1A6B,
uni1A6C,
uni1A6D,
uni1A6E,
uni1A6F,
uni1A70,
uni1A71,
uni1A72,
uni1A73,
uni1A74,
uni1A75,
uni1A76,
uni1A77,
uni1A78,
uni1A79,
uni1A7A,
uni1A7B,
uni1A7C,
uni1A7F,
uni1A80,
uni1A81,
uni1A82,
uni1A83,
uni1A84,
uni1A85,
uni1A86,
uni1A87,
uni1A88,
uni1A89,
uni1A90,
uni1A91,
uni1A92,
uni1A93,
uni1A94,
uni1A95,
uni1A96,
uni1A97,
uni1A98,
uni1A99,
uni1AA0,
uni1AA1,
uni1AA2,
uni1AA3,
uni1AA4,
uni1AA5,
uni1AA6,

glyphs = (
{
glyphname = .notdef;
lastChange = "2016-11-10 14:44:24 +0000";
layers = (
{
layerId = "6FF31E7C-07F6-4791-B014-BC1FF1C32251";
paths = (
{
closed = 1;
nodes = (
"1034 0 LINE",
"1034 1462 LINE",
"193 1462 LINE",
"193 0 LINE"
);
},
{
closed = 1;
nodes = (
"297 1358 LINE",
"930 1358 LINE",
"930 104 LINE",
"297 104 LINE"
);
}
);
width = 1229;
}
);
note = .notdef;
},
{
glyphname = uni1A20;
lastChange = "2016-11-10 14:44:19 +0000";
layers = (
{
layerId = "6FF31E7C-07F6-4791-B014-BC1FF1C32251";
paths = (
{
closed = 1;
nodes = (
"1433 -20 OFFCURVE",
"1515 4 OFFCURVE",
"1585 51 CURVE SMOOTH",
"1725 145 OFFCURVE",
"1806 330 OFFCURVE",
"1806 575 CURVE SMOOTH",
"1806 686 OFFCURVE",
"1787 782 OFFCURVE",
"1748 864 CURVE SMOOTH",
"1671 1028 OFFCURVE",
"1523 1118 OFFCURVE",
"1340 1118 CURVE SMOOTH",
"1293 1118 OFFCURVE",
"1246 1110 OFFCURVE",
"1199 1093 CURVE SMOOTH",
"1104 1059 OFFCURVE",
"1018 987 OFFCURVE",
"979 910 CURVE",
"880 1049 OFFCURVE",
"749 1118 OFFCURVE",
"588 1118 CURVE SMOOTH",
"493 1118 OFFCURVE",
"407 1094 OFFCURVE",
"331 1046 CURVE SMOOTH",
"178 949 OFFCURVE",
"90 762 OFFCURVE",
"90 538 CURVE SMOOTH",
"90 301 OFFCURVE",
"204 102 OFFCURVE",
"413 -10 CURVE",
"471 124 LINE",
"346 177 OFFCURVE",
"268 319 OFFCURVE",
"268 560 CURVE SMOOTH",
"268 840 OFFCURVE",
"375 980 OFFCURVE",
"588 980 CURVE SMOOTH",
"801 980 OFFCURVE",
"908 840 OFFCURVE",
"908 560 CURVE SMOOTH",
"908 319 OFFCURVE",
"830 177 OFFCURVE",
"705 124 CURVE",
"763 -10 LINE",
"971 102 OFFCURVE",
"1086 297 OFFCURVE",
"1086 538 CURVE SMOOTH",
"1086 583 OFFCURVE",
"1082 626 OFFCURVE",
"1075 667 CURVE",
"1088 858 OFFCURVE",
"1185 980 OFFCURVE",
"1333 980 CURVE SMOOTH",
"1520 980 OFFCURVE",
"1628 826 OFFCURVE",
"1628 563 CURVE SMOOTH",
"1628 290 OFFCURVE",
"1513 118 OFFCURVE",
"1332 118 CURVE SMOOTH",
"1280 118 OFFCURVE",
"1230 131 OFFCURVE",
"1182 158 CURVE",
"1101 41 LINE",
"1172 0 OFFCURVE",
"1251 -20 OFFCURVE",
"1340 -20 CURVE SMOOTH"
);
}
);
width = 1896;
}
);
note = uni1A20;
unicode = 1A20;
},
{
glyphname = uni1A21;
lastChange = "2016-11-10 14:44:19 +0000";
layers = (
{
layerId = "6FF31E7C-07F6-4791-B014-BC1FF1C32251";
paths = (
{
closed = 1;
nodes = (
"989 -20 LINE",
"976 87 OFFCURVE",
"950 179 OFFCURVE",
"911 256 CURVE",
"965 360 OFFCURVE",
"992 472 OFFCURVE",
"992 591 CURVE SMOOTH",
"992 910 OFFCURVE",
"798 1118 OFFCURVE",
"493 1118 CURVE SMOOTH",
"324 1118 OFFCURVE",
"170 1038 OFFCURVE",
"90 911 CURVE",
"215 839 LINE",
"270 926 OFFCURVE",
"371 980 OFFCURVE",
"475 980 CURVE SMOOTH",
"700 980 OFFCURVE",
"814 837 OFFCURVE",
"814 581 CURVE SMOOTH",
"814 516 OFFCURVE",
"809 458 OFFCURVE",
"798 407 CURVE",
"790 414 LINE SMOOTH",
"703 489 OFFCURVE",
"593 526 OFFCURVE",
"460 526 CURVE SMOOTH",
"393 526 OFFCURVE",
"333 513 OFFCURVE",
"282 488 CURVE SMOOTH",
"178 437 OFFCURVE",
"119 343 OFFCURVE",
"119 235 CURVE SMOOTH",
"119 188 OFFCURVE",
"134 144 OFFCURVE",
"164 105 CURVE SMOOTH",
"224 25 OFFCURVE",
"335 -20 OFFCURVE",
"486 -20 CURVE SMOOTH",
"608 -20 OFFCURVE",
"715 25 OFFCURVE",
"807 115 CURVE",
"821 68 OFFCURVE",
"830 13 OFFCURVE",
"835 -50 CURVE"
);
},
{
closed = 1;
nodes = (
"352 118 OFFCURVE",
"287 169 OFFCURVE",
"287 249 CURVE SMOOTH",
"287 332 OFFCURVE",
"352 388 OFFCURVE",
"485 388 CURVE SMOOTH",
"590 388 OFFCURVE",
"680 344 OFFCURVE",
"741 255 CURVE",
"692 170 OFFCURVE",
"604 118 OFFCURVE",
"495 118 CURVE SMOOTH"
);
}
);
width = 1082;
}
);
note = uni1A21;
unicode = 1A21;
},
{
glyphname = uni1A22;
lastChange = "2016-11-10 14:44:19 +0000";
layers = (
{
layerId = "6FF31E7C-07F6-4791-B014-BC1FF1C32251";
paths = (
{
closed = 1;
nodes = (
"989 -20 LINE",
"976 87 OFFCURVE",
"950 179 OFFCURVE",
"911 256 CURVE",
"965 360 OFFCURVE",
"992 472 OFFCURVE",
"992 591 CURVE SMOOTH",
"992 694 OFFCURVE",
"972 786 OFFCURVE",
"932 867 CURVE SMOOTH",
"851 1028 OFFCURVE",
"699 1118 OFFCURVE",
"512 1118 CURVE SMOOTH",
"418 1118 OFFCURVE",
"336 1095 OFFCURVE",
"267 1049 CURVE",
"270 1188 OFFCURVE",
"277 1288 OFFCURVE",
"290 1349 CURVE SMOOTH",
"302 1410 OFFCURVE",
"320 1459 OFFCURVE",
"344 1496 CURVE SMOOTH",
"392 1569 OFFCURVE",
"458 1602 OFFCURVE",
"559 1602 CURVE SMOOTH",
"663 1602 OFFCURVE",
"772 1546 OFFCURVE",
"819 1461 CURVE",
"952 1564 LINE",
"859 1681 OFFCURVE",
"737 1740 OFFCURVE",
"585 1740 CURVE SMOOTH",
"255 1740 OFFCURVE",
"90 1446 OFFCURVE",
"90 858 CURVE",
"267 842 LINE",
"290 926 OFFCURVE",
"375 980 OFFCURVE",
"475 980 CURVE SMOOTH",
"700 980 OFFCURVE",
"814 837 OFFCURVE",
"814 581 CURVE SMOOTH",
"814 516 OFFCURVE",
"809 458 OFFCURVE",
"798 407 CURVE",
"790 414 LINE SMOOTH",
"703 489 OFFCURVE",
"593 526 OFFCURVE",
"460 526 CURVE SMOOTH",
"393 526 OFFCURVE",
"333 513 OFFCURVE",
"282 488 CURVE SMOOTH",
"178 437 OFFCURVE",
"119 343 OFFCURVE",
"119 235 CURVE SMOOTH",
"119 188 OFFCURVE",
"134 144 OFFCURVE",
"164 105 CURVE SMOOTH",
"224 25 OFFCURVE",
"335 -20 OFFCURVE",
"486 -20 CURVE SMOOTH",
"608 -20 OFFCURVE",
"715 25 OFFCURVE",
"807 115 CURVE",
"821 68 OFFCURVE",
"830 13 OFFCURVE",
"835 -50 CURVE"
);
},
{
closed = 1;
nodes = (
"352 118 OFFCURVE",
"287 169 OFFCURVE",
"287 249 CURVE SMOOTH",
"287 332 OFFCURVE",
"352 388 OFFCURVE",
"485 388 CURVE SMOOTH",
"590 388 OFFCURVE",
"680 344 OFFCURVE",
"741 255 CURVE",
"692 170 OFFCURVE",
"604 118 OFFCURVE",
"495 118 CURVE SMOOTH"
);
}
);
width = 1072;
}
);
note = uni1A22;
unicode = 1A22;
},
{
glyphname = uni1A23;
lastChange = "2016-11-10 14:44:19 +0000";
layers = (
{
layerId = "6FF31E7C-07F6-4791-B014-BC1FF1C32251";
paths = (
{
closed = 1;
nodes = (
"471 124 LINE",
"346 177 OFFCURVE",
"268 319 OFFCURVE",
"268 560 CURVE SMOOTH",
"268 828 OFFCURVE",
"387 980 OFFCURVE",
"608 980 CURVE SMOOTH",
"828 980 OFFCURVE",
"948 829 OFFCURVE",
"948 560 CURVE SMOOTH",
"948 319 OFFCURVE",
"870 177 OFFCURVE",
"745 124 CURVE",
"803 -10 LINE",
"1011 102 OFFCURVE",
"1126 297 OFFCURVE",
"1126 538 CURVE SMOOTH",
"1126 645 OFFCURVE",
"1104 743 OFFCURVE",
"1059 832 CURVE SMOOTH",
"969 1011 OFFCURVE",
"800 1118 OFFCURVE",
"608 1118 CURVE SMOOTH",
"510 1118 OFFCURVE",
"421 1093 OFFCURVE",
"342 1044 CURVE SMOOTH",
"183 944 OFFCURVE",
"90 757 OFFCURVE",
"90 538 CURVE SMOOTH",
"90 301 OFFCURVE",
"204 102 OFFCURVE",
"413 -10 CURVE"
);
}
);
width = 1216;
}
);
note = uni1A23;
unicode = 1A23;
},
{
glyphname = uni1A24;
lastChange = "2016-11-10 14:44:19 +0000";
layers = (
{
layerId = "6FF31E7C-07F6-4791-B014-BC1FF1C32251";
paths = (
{
closed = 1;
nodes = (
"479 129 LINE",
"428 157 OFFCURVE",
"387 193 OFFCURVE",
"356 236 CURVE SMOOTH",
"295 323 OFFCURVE",
"268 429 OFFCURVE",
"268 640 CURVE SMOOTH",
"268 721 LINE SMOOTH",
"268 767 OFFCURVE",
"282 810 OFFCURVE",
"309 850 CURVE SMOOTH",
"364 930 OFFCURVE",
"471 980 OFFCURVE",
"588 980 CURVE SMOOTH",
"808 980 OFFCURVE",
"928 829 OFFCURVE",
"928 560 CURVE SMOOTH",
"928 320 OFFCURVE",
"850 182 OFFCURVE",
"725 129 CURVE",
"783 -10 LINE",
"986 97 OFFCURVE",
"1106 303 OFFCURVE",
"1106 548 CURVE SMOOTH",
"1106 663 OFFCURVE",
"1085 763 OFFCURVE",
"1042 849 CURVE SMOOTH",
"956 1021 OFFCURVE",
"789 1118 OFFCURVE",
"588 1118 CURVE SMOOTH",
"471 1118 OFFCURVE",
"367 1079 OFFCURVE",
"276 1002 CURVE",
"301 1439 OFFCURVE",
"411 1602 OFFCURVE",
"639 1602 CURVE SMOOTH",
"743 1602 OFFCURVE",
"852 1546 OFFCURVE",
"899 1461 CURVE",
"1032 1564 LINE",
"939 1681 OFFCURVE",
"817 1740 OFFCURVE",
"665 1740 CURVE SMOOTH",
"549 1740 OFFCURVE",
"448 1704 OFFCURVE",
"361 1631 CURVE SMOOTH",
"187 1486 OFFCURVE",
"90 1207 OFFCURVE",
"90 848 CURVE SMOOTH",
"90 672 LINE SMOOTH",
"90 312 OFFCURVE",
"198 98 OFFCURVE",
"423 -10 CURVE"
);
}
);
width = 1196;
}
);
note = uni1A24;
unicode = 1A24;
},
{
glyphname = uni1A25;
lastChange = "2016-11-10 14:44:19 +0000";
layers = (
{
layerId = "6FF31E7C-07F6-4791-B014-BC1FF1C32251";
paths = (
{
closed = 1;
nodes = (
"579 -20 OFFCURVE",
"644 23 OFFCURVE",
"688 116 CURVE",
"727 25 OFFCURVE",
"801 -20 OFFCURVE",
"910 -20 CURVE SMOOTH",
"1006 -20 OFFCURVE",
"1104 46 OFFCURVE",
"1153 135 CURVE",
"1252 32 OFFCURVE",
"1385 -20 OFFCURVE",
"1552 -20 CURVE SMOOTH",
"1648 -20 OFFCURVE",
"1734 3 OFFCURVE",
"1809 50 CURVE SMOOTH",
"1960 143 OFFCURVE",
"2045 326 OFFCURVE",
"2045 563 CURVE SMOOTH",
"2045 678 OFFCURVE",
"2025 777 OFFCURVE",
"1986 860 CURVE SMOOTH",
"1907 1024 OFFCURVE",
"1761 1118 OFFCURVE",
"1593 1118 CURVE SMOOTH",
"1456 1118 OFFCURVE",
"1339 1078 OFFCURVE",
"1259 961 CURVE",
"1389 881 LINE",
"1428 941 OFFCURVE",
"1494 980 OFFCURVE",
"1570 980 CURVE SMOOTH",
"1753 980 OFFCURVE",
"1867 826 OFFCURVE",
"1867 565 CURVE SMOOTH",
"1867 288 OFFCURVE",
"1752 118 OFFCURVE",
"1551 118 CURVE SMOOTH",
"1424 118 OFFCURVE",
"1274 201 OFFCURVE",
"1222 300 CURVE",
"1241 367 OFFCURVE",
"1250 446 OFFCURVE",
"1250 535 CURVE SMOOTH",
"1250 807 OFFCURVE",
"1142 1009 OFFCURVE",
"935 1118 CURVE",
"854 994 LINE",
"1006 894 OFFCURVE",
"1072 750 OFFCURVE",
"1072 535 CURVE SMOOTH",
"1072 404 OFFCURVE",
"1057 302 OFFCURVE",
"1028 229 CURVE SMOOTH",
"998 155 OFFCURVE",
"957 118 OFFCURVE",
"906 118 CURVE SMOOTH",
"818 118 OFFCURVE",
"771 206 OFFCURVE",
"754 390 CURVE",
"623 390 LINE",
"606 209 OFFCURVE",
"555 118 OFFCURVE",
"471 118 CURVE SMOOTH",
"446 118 OFFCURVE",
"422 126 OFFCURVE",
"398 142 CURVE SMOOTH",
"350 173 OFFCURVE",
"317 230 OFFCURVE",
"317 318 CURVE SMOOTH",
"317 393 OFFCURVE",
"358 460 OFFCURVE",
"458 560 CURVE SMOOTH",
"549 652 OFFCURVE",
"598 742 OFFCURVE",
"598 841 CURVE SMOOTH",
"598 892 OFFCURVE",
"586 939 OFFCURVE",
"561 982 CURVE SMOOTH",
"512 1067 OFFCURVE",
"418 1118 OFFCURVE",
"291 1118 CURVE SMOOTH",
"159 1118 OFFCURVE",
"60 1032 OFFCURVE",
"60 916 CURVE SMOOTH",
"60 819 OFFCURVE",
"141 736 OFFCURVE",
"236 736 CURVE SMOOTH",
"250 736 LINE",
"265 738 LINE",
"275 867 LINE",
"268 866 LINE",
"263 866 LINE SMOOTH",
"234 866 OFFCURVE",
"210 899 OFFCURVE",
"210 927 CURVE SMOOTH",
"210 964 OFFCURVE",
"241 988 OFFCURVE",
"290 988 CURVE SMOOTH",
"382 988 OFFCURVE",
"428 934 OFFCURVE",
"428 827 CURVE SMOOTH",
"428 732 OFFCURVE",
"383 652 OFFCURVE",
"284 559 CURVE SMOOTH",
"181 464 OFFCURVE",
"139 393 OFFCURVE",
"139 308 CURVE SMOOTH",
"139 116 OFFCURVE",
"276 -20 OFFCURVE",
"467 -20 CURVE SMOOTH"
);
}
);
width = 2135;
}
);
note = uni1A25;
unicode = 1A25;
},
{
glyphname = uni1A26;
lastChange = "2016-11-10 14:44:19 +0000";
layers = (
{
layerId = "6FF31E7C-07F6-4791-B014-BC1FF1C32251";
paths = (
{
closed = 1;
nodes = (
"559 -20 OFFCURVE",
"708 9 OFFCURVE",
"767 49 CURVE",
"706 172 LINE",
"657 139 OFFCURVE",
"546 118 OFFCURVE",
"474 118 CURVE SMOOTH",
"350 118 OFFCURVE",
"268 185 OFFCURVE",
"268 306 CURVE SMOOTH",
"268 419 OFFCURVE",
"371 493 OFFCURVE",
"550 510 CURVE",
"550 607 LINE",
"373 624 OFFCURVE",
"268 695 OFFCURVE",
"268 796 CURVE SMOOTH",
"268 829 OFFCURVE",
"280 860 OFFCURVE",
"305 889 CURVE SMOOTH",
"354 945 OFFCURVE",
"452 980 OFFCURVE",
"585 980 CURVE SMOOTH",
"862 980 OFFCURVE",
"1024 799 OFFCURVE",
"1024 495 CURVE SMOOTH",
"1024 304 OFFCURVE",
"1010 203 OFFCURVE",
"967 43 CURVE",
"1106 -20 LINE",
"1163 99 OFFCURVE",
"1202 312 OFFCURVE",
"1202 499 CURVE SMOOTH",
"1202 622 OFFCURVE",
"1177 730 OFFCURVE",
"1127 824 CURVE SMOOTH",
"1026 1012 OFFCURVE",
"831 1118 OFFCURVE",
"580 1118 CURVE SMOOTH",
"299 1118 OFFCURVE",
"90 987 OFFCURVE",
"90 799 CURVE SMOOTH",
"90 696 OFFCURVE",
"171 603 OFFCURVE",
"294 559 CURVE",
"163 502 OFFCURVE",
"90 406 OFFCURVE",
"90 307 CURVE SMOOTH",
"90 106 OFFCURVE",
"235 -20 OFFCURVE",
"456 -20 CURVE SMOOTH"
);
}
);
width = 1292;
}
);
note = uni1A26;
unicode = 1A26;
},
{
glyphname = uni1A27;
lastChange = "2016-11-10 14:44:19 +0000";
layers = (
{
layerId = "6FF31E7C-07F6-4791-B014-BC1FF1C32251";
paths = (
{
closed = 1;
nodes = (
"695 -20 OFFCURVE",
"791 5 OFFCURVE",
"874 55 CURVE SMOOTH",
"1038 155 OFFCURVE",
"1130 340 OFFCURVE",
"1130 560 CURVE SMOOTH",
"1130 669 OFFCURVE",
"1108 767 OFFCURVE",
"1063 852 CURVE SMOOTH",
"973 1022 OFFCURVE",
"796 1118 OFFCURVE",
"560 1118 CURVE SMOOTH",
"284 1118 OFFCURVE",
"90 991 OFFCURVE",
"90 799 CURVE SMOOTH",
"90 696 OFFCURVE",
"171 603 OFFCURVE",
"294 559 CURVE",
"163 502 OFFCURVE",
"90 406 OFFCURVE",
"90 307 CURVE SMOOTH",
"90 99 OFFCURVE",
"270 -20 OFFCURVE",
"585 -20 CURVE SMOOTH"
);
},
{
closed = 1;
nodes = (
"372 118 OFFCURVE",
"268 177 OFFCURVE",
"268 306 CURVE SMOOTH",
"268 419 OFFCURVE",
"371 493 OFFCURVE",
"550 510 CURVE",
"550 607 LINE",
"373 624 OFFCURVE",
"268 695 OFFCURVE",
"268 796 CURVE SMOOTH",
"268 913 OFFCURVE",
"382 980 OFFCURVE",
"565 980 CURVE SMOOTH",
"809 980 OFFCURVE",
"952 825 OFFCURVE",
"952 560 CURVE SMOOTH",
"952 473 OFFCURVE",
"937 395 OFFCURVE",
"906 326 CURVE SMOOTH",
"845 189 OFFCURVE",
"730 118 OFFCURVE",
"575 118 CURVE SMOOTH"
);
}
);
width = 1220;
}
);
note = uni1A27;
unicode = 1A27;
},
{
glyphname = uni1A28;
lastChange = "2016-11-10 14:44:19 +0000";
layers = (
{
layerId = "6FF31E7C-07F6-4791-B014-BC1FF1C32251";
paths = (
{
closed = 1;
nodes = (
"628 -20 OFFCURVE",
"747 39 OFFCURVE",
"844 156 CURVE",
"955 39 OFFCURVE",
"1097 -20 OFFCURVE",
"1271 -20 CURVE SMOOTH",
"1368 -20 OFFCURVE",
"1455 4 OFFCURVE",
"1532 51 CURVE SMOOTH",
"1684 146 OFFCURVE",
"1772 328 OFFCURVE",
"1772 563 CURVE SMOOTH",
"1772 677 OFFCURVE",
"1752 775 OFFCURVE",
"1712 858 CURVE SMOOTH",
"1631 1023 OFFCURVE",
"1481 1118 OFFCURVE",
"1312 1118 CURVE SMOOTH",
"1175 1118 OFFCURVE",
"1058 1078 OFFCURVE",
"978 961 CURVE",
"1108 881 LINE",
"1147 941 OFFCURVE",
"1213 980 OFFCURVE",
"1289 980 CURVE SMOOTH",
"1350 980 OFFCURVE",
"1403 964 OFFCURVE",
"1449 931 CURVE SMOOTH",
"1540 866 OFFCURVE",
"1594 738 OFFCURVE",
"1594 565 CURVE SMOOTH",
"1594 289 OFFCURVE",
"1471 118 OFFCURVE",
"1270 118 CURVE SMOOTH",
"1131 118 OFFCURVE",
"995 189 OFFCURVE",
"926 286 CURVE",
"970 379 OFFCURVE",
"992 481 OFFCURVE",
"992 591 CURVE SMOOTH",
"992 910 OFFCURVE",
"798 1118 OFFCURVE",
"493 1118 CURVE SMOOTH",
"324 1118 OFFCURVE",
"170 1038 OFFCURVE",
"90 911 CURVE",
"215 839 LINE",
"270 926 OFFCURVE",
"371 980 OFFCURVE",
"475 980 CURVE SMOOTH",
"700 980 OFFCURVE",
"814 837 OFFCURVE",
"814 581 CURVE SMOOTH",
"814 516 OFFCURVE",
"809 458 OFFCURVE",
"798 407 CURVE",
"708 486 OFFCURVE",
"595 526 OFFCURVE",
"460 526 CURVE SMOOTH",
"393 526 OFFCURVE",
"333 513 OFFCURVE",
"282 488 CURVE SMOOTH",
"178 437 OFFCURVE",
"119 343 OFFCURVE",
"119 235 CURVE SMOOTH",
"119 188 OFFCURVE",
"134 144 OFFCURVE",
"164 105 CURVE SMOOTH",
"224 25 OFFCURVE",
"335 -20 OFFCURVE",
"486 -20 CURVE SMOOTH"
);
},
{
closed = 1;
nodes = (
"352 118 OFFCURVE",
"287 169 OFFCURVE",
"287 249 CURVE SMOOTH",
"287 332 OFFCURVE",
"352 388 OFFCURVE",
"485 388 CURVE SMOOTH",
"589 388 OFFCURVE",
"680 342 OFFCURVE",
"741 255 CURVE",
"692 170 OFFCURVE",
"604 118 OFFCURVE",
"495 118 CURVE SMOOTH"
);
}
);
width = 1862;
}
);
note = uni1A28;
unicode = 1A28;
},
{
glyphname = uni1A29;
lastChange = "2016-11-10 14:44:19 +0000";
layers = (
{
layerId = "6FF31E7C-07F6-4791-B014-BC1FF1C32251";
paths = (
{
closed = 1;
nodes = (
"471 114 LINE",
"346 169 OFFCURVE",
"268 334 OFFCURVE",
"268 533 CURVE SMOOTH",
"268 848 OFFCURVE",
"372 980 OFFCURVE",
"601 980 CURVE SMOOTH",
"655 980 OFFCURVE",
"703 972 OFFCURVE",
"744 955 CURVE SMOOTH",
"826 922 OFFCURVE",
"871 863 OFFCURVE",
"871 796 CURVE SMOOTH",
"871 695 OFFCURVE",
"765 624 OFFCURVE",
"589 607 CURVE",
"589 510 LINE",
"777 492 OFFCURVE",
"871 427 OFFCURVE",
"871 316 CURVE SMOOTH",
"871 205 OFFCURVE",
"790 129 OFFCURVE",
"655 114 CURVE",
"696 -20 LINE",
"891 -9 OFFCURVE",
"1049 137 OFFCURVE",
"1049 317 CURVE SMOOTH",
"1049 405 OFFCURVE",
"986 499 OFFCURVE",
"845 559 CURVE",
"968 603 OFFCURVE",
"1049 696 OFFCURVE",
"1049 799 CURVE SMOOTH",
"1049 860 OFFCURVE",
"1030 914 OFFCURVE",
"991 963 CURVE SMOOTH",
"913 1059 OFFCURVE",
"765 1118 OFFCURVE",
"606 1118 CURVE SMOOTH",
"497 1118 OFFCURVE",
"405 1094 OFFCURVE",
"328 1045 CURVE SMOOTH",
"175 947 OFFCURVE",
"90 763 OFFCURVE",
"90 538 CURVE SMOOTH",
"90 455 OFFCURVE",
"102 378 OFFCURVE",
"127 305 CURVE SMOOTH",
"176 160 OFFCURVE",
"270 44 OFFCURVE",
"413 -20 CURVE"
);
}
);
width = 1139;
}
);
note = uni1A29;
unicode = 1A29;
},
{
glyphname = uni1A2A;
lastChange = "2016-11-10 14:44:19 +0000";
layers = (
{
layerId = "6FF31E7C-07F6-4791-B014-BC1FF1C32251";
paths = (
{
closed = 1;
nodes = (
"471 114 LINE",
"346 169 OFFCURVE",
"268 334 OFFCURVE",
"268 533 CURVE SMOOTH",
"268 848 OFFCURVE",
"372 980 OFFCURVE",
"601 980 CURVE SMOOTH",
"655 980 OFFCURVE",
"703 972 OFFCURVE",
"744 955 CURVE SMOOTH",
"826 922 OFFCURVE",
"871 863 OFFCURVE",
"871 796 CURVE SMOOTH",
"871 695 OFFCURVE",
"765 624 OFFCURVE",
"589 607 CURVE",
"589 510 LINE",
"777 492 OFFCURVE",
"871 427 OFFCURVE",
"871 316 CURVE SMOOTH",
"871 205 OFFCURVE",
"790 129 OFFCURVE",
"655 114 CURVE",
"696 -20 LINE",
"891 -9 OFFCURVE",
"1049 137 OFFCURVE",
"1049 317 CURVE SMOOTH",
"1049 405 OFFCURVE",
"986 499 OFFCURVE",
"845 559 CURVE",
"968 603 OFFCURVE",
"1049 696 OFFCURVE",
"1049 799 CURVE SMOOTH",
"1049 860 OFFCURVE",
"1030 914 OFFCURVE",
"991 963 CURVE SMOOTH",
"913 1059 OFFCURVE",
"765 1118 OFFCURVE",
"606 1118 CURVE SMOOTH",
"471 1118 OFFCURVE",
"361 1081 OFFCURVE",
"276 1006 CURVE",
"303 1434 OFFCURVE",
"410 1602 OFFCURVE",
"639 1602 CURVE SMOOTH",
"743 1602 OFFCURVE",
"852 1546 OFFCURVE",
"899 1461 CURVE",
"1032 1564 LINE",
"939 1681 OFFCURVE",
"817 1740 OFFCURVE",
"665 1740 CURVE SMOOTH",
"549 1740 OFFCURVE",
"448 1704 OFFCURVE",
"361 1631 CURVE SMOOTH",
"187 1486 OFFCURVE",
"90 1207 OFFCURVE",
"90 848 CURVE SMOOTH",
"90 515 LINE",
"99 262 OFFCURVE",
"218 67 OFFCURVE",
"413 -20 CURVE"
);
}
);
width = 1139;
}
);
note = uni1A2A;
unicode = 1A2A;
},
{
glyphname = uni1A2B;
lastChange = "2016-11-10 14:44:19 +0000";
layers = (
{
layerId = "6FF31E7C-07F6-4791-B014-BC1FF1C32251";
paths = (
{
closed = 1;
nodes = (
"755 -20 OFFCURVE",
"890 37 OFFCURVE",
"989 152 CURVE",
"1086 41 OFFCURVE",
"1237 -20 OFFCURVE",
"1422 -20 CURVE SMOOTH",
"1518 -20 OFFCURVE",
"1604 4 OFFCURVE",
"1680 51 CURVE SMOOTH",
"1831 145 OFFCURVE",
"1917 326 OFFCURVE",
"1917 563 CURVE SMOOTH",
"1917 878 OFFCURVE",
"1760 1070 OFFCURVE",
"1463 1118 CURVE SMOOTH",
"1372 1130 LINE SMOOTH",
"1139 1155 OFFCURVE",
"1081 1208 OFFCURVE",
"1081 1324 CURVE SMOOTH",
"1081 1407 OFFCURVE",
"1090 1484 OFFCURVE",
"1108 1556 CURVE",
"957 1617 LINE",
"930 1542 OFFCURVE",
"911 1402 OFFCURVE",
"911 1350 CURVE SMOOTH",
"911 1151 OFFCURVE",
"1018 1048 OFFCURVE",
"1323 1001 CURVE SMOOTH",
"1440 980 LINE SMOOTH",
"1657 940 OFFCURVE",
"1739 812 OFFCURVE",
"1739 565 CURVE SMOOTH",
"1739 289 OFFCURVE",
"1621 118 OFFCURVE",
"1421 118 CURVE SMOOTH",
"1288 118 OFFCURVE",
"1133 209 OFFCURVE",
"1089 308 CURVE",
"1082 303 LINE",
"1114 391 OFFCURVE",
"1130 477 OFFCURVE",
"1130 560 CURVE SMOOTH",
"1130 669 OFFCURVE",
"1108 767 OFFCURVE",
"1063 852 CURVE SMOOTH",
"973 1022 OFFCURVE",
"796 1118 OFFCURVE",
"560 1118 CURVE SMOOTH",
"284 1118 OFFCURVE",
"90 991 OFFCURVE",
"90 799 CURVE SMOOTH",
"90 696 OFFCURVE",
"171 603 OFFCURVE",
"294 559 CURVE",
"163 502 OFFCURVE",
"90 406 OFFCURVE",
"90 307 CURVE SMOOTH",
"90 99 OFFCURVE",
"270 -20 OFFCURVE",
"585 -20 CURVE SMOOTH"
);
},
{
closed = 1;
nodes = (
"372 118 OFFCURVE",
"268 177 OFFCURVE",
"268 306 CURVE SMOOTH",
"268 419 OFFCURVE",
"371 493 OFFCURVE",
"550 510 CURVE",
"550 607 LINE",
"373 624 OFFCURVE",
"268 695 OFFCURVE",
"268 796 CURVE SMOOTH",
"268 913 OFFCURVE",
"382 980 OFFCURVE",
"565 980 CURVE SMOOTH",
"809 980 OFFCURVE",
"952 825 OFFCURVE",
"952 560 CURVE SMOOTH",
"952 473 OFFCURVE",
"937 395 OFFCURVE",
"906 326 CURVE SMOOTH",
"845 189 OFFCURVE",
"730 118 OFFCURVE",
"575 118 CURVE SMOOTH"
);
}
);
width = 2007;
}
);
note = uni1A2B;
unicode = 1A2B;
},
{
glyphname = uni1A2C;
lastChange = "2016-11-10 14:44:19 +0000";
layers = (
{
layerId = "6FF31E7C-07F6-4791-B014-BC1FF1C32251";
paths = (
{
closed = 1;
nodes = (
"567 -590 OFFCURVE",
"671 -568 OFFCURVE",
"735 -539 CURVE",
"615 -417 LINE",
"567 -440 OFFCURVE",
"519 -452 OFFCURVE",
"470 -452 CURVE SMOOTH",
"363 -452 OFFCURVE",
"308 -395 OFFCURVE",
"279 -260 CURVE SMOOTH",
"264 -193 OFFCURVE",
"255 -86 OFFCURVE",
"251 59 CURVE",
"321 6 OFFCURVE",
"398 -20 OFFCURVE",
"483 -20 CURVE SMOOTH",
"628 -20 OFFCURVE",
"749 34 OFFCURVE",
"848 143 CURVE",
"947 36 OFFCURVE",
"1093 -20 OFFCURVE",
"1273 -20 CURVE SMOOTH",
"1370 -20 OFFCURVE",
"1457 4 OFFCURVE",
"1534 51 CURVE SMOOTH",
"1686 146 OFFCURVE",
"1774 328 OFFCURVE",
"1774 563 CURVE SMOOTH",
"1774 677 OFFCURVE",
"1754 775 OFFCURVE",
"1714 858 CURVE SMOOTH",
"1633 1023 OFFCURVE",
"1483 1118 OFFCURVE",
"1314 1118 CURVE SMOOTH",
"1177 1118 OFFCURVE",
"1060 1078 OFFCURVE",
"980 961 CURVE",
"1110 881 LINE",
"1149 941 OFFCURVE",
"1215 980 OFFCURVE",
"1291 980 CURVE SMOOTH",
"1352 980 OFFCURVE",
"1405 964 OFFCURVE",
"1451 931 CURVE SMOOTH",
"1542 866 OFFCURVE",
"1596 738 OFFCURVE",
"1596 565 CURVE SMOOTH",
"1596 289 OFFCURVE",
"1473 118 OFFCURVE",
"1272 118 CURVE SMOOTH",
"1141 118 OFFCURVE",
"987 207 OFFCURVE",
"942 303 CURVE",
"970 374 OFFCURVE",
"984 457 OFFCURVE",
"984 553 CURVE SMOOTH",
"984 674 OFFCURVE",
"964 776 OFFCURVE",
"924 861 CURVE SMOOTH",
"843 1030 OFFCURVE",
"691 1118 OFFCURVE",
"490 1118 CURVE SMOOTH",
"335 1118 OFFCURVE",
"186 1046 OFFCURVE",
"90 915 CURVE",
"221 839 LINE",
"276 926 OFFCURVE",
"377 980 OFFCURVE",
"481 980 CURVE SMOOTH",
"684 980 OFFCURVE",
"806 826 OFFCURVE",
"806 555 CURVE SMOOTH",
"806 295 OFFCURVE",
"680 118 OFFCURVE",
"492 118 CURVE SMOOTH",
"392 118 OFFCURVE",
"283 194 OFFCURVE",
"250 282 CURVE",
"250 290 LINE",
"72 320 LINE",
"72 194 LINE SMOOTH",
"72 -293 OFFCURVE",
"224 -590 OFFCURVE",
"496 -590 CURVE SMOOTH"
);
}
);
width = 1864;
}
);
note = uni1A2C;
unicode = 1A2C;
},
{
glyphname = uni1A2D;
lastChange = "2016-11-10 14:44:19 +0000";
layers = (
{
layerId = "6FF31E7C-07F6-4791-B014-BC1FF1C32251";
paths = (
{
closed = 1;
nodes = (
"583 -20 OFFCURVE",
"668 25 OFFCURVE",
"711 116 CURVE",
"752 21 OFFCURVE",
"842 -20 OFFCURVE",
"943 -20 CURVE SMOOTH",
"1005 -20 OFFCURVE",
"1064 3 OFFCURVE",
"1119 50 CURVE SMOOTH",
"1229 142 OFFCURVE",
"1295 316 OFFCURVE",
"1295 535 CURVE SMOOTH",
"1295 806 OFFCURVE",
"1183 1010 OFFCURVE",
"978 1118 CURVE",
"897 994 LINE",
"1049 894 OFFCURVE",
"1117 750 OFFCURVE",
"1117 535 CURVE SMOOTH",
"1117 446 OFFCURVE",
"1109 371 OFFCURVE",
"1094 309 CURVE SMOOTH",
"1062 184 OFFCURVE",
"1007 118 OFFCURVE",
"939 118 CURVE SMOOTH",
"848 118 OFFCURVE",
"794 209 OFFCURVE",
"777 390 CURVE",
"646 390 LINE",
"629 207 OFFCURVE",
"571 118 OFFCURVE",
"458 118 CURVE SMOOTH",
"331 118 OFFCURVE",
"268 188 OFFCURVE",
"268 328 CURVE SMOOTH",
"268 453 OFFCURVE",
"365 527 OFFCURVE",
"529 527 CURVE SMOOTH",
"545 527 LINE",
"565 526 LINE",
"565 646 LINE",
"354 646 OFFCURVE",
"268 711 OFFCURVE",
"268 835 CURVE SMOOTH",
"268 922 OFFCURVE",
"341 980 OFFCURVE",
"489 980 CURVE SMOOTH",
"534 980 OFFCURVE",
"579 973 OFFCURVE",
"626 958 CURVE",
"678 1082 LINE",
"607 1106 OFFCURVE",
"538 1118 OFFCURVE",
"470 1118 CURVE SMOOTH",
"395 1118 OFFCURVE",
"328 1106 OFFCURVE",
"271 1082 CURVE SMOOTH",
"156 1033 OFFCURVE",
"90 939 OFFCURVE",
"90 835 CURVE SMOOTH",
"90 724 OFFCURVE",
"139 653 OFFCURVE",
"274 598 CURVE",
"157 539 OFFCURVE",
"90 443 OFFCURVE",
"90 327 CURVE SMOOTH",
"90 120 OFFCURVE",
"229 -20 OFFCURVE",
"456 -20 CURVE SMOOTH"
);
}
);
width = 1385;
}
);
note = uni1A2D;
unicode = 1A2D;
},
{
glyphname = uni1A2E;
lastChange = "2016-11-10 14:44:19 +0000";
layers = (
{
layerId = "6FF31E7C-07F6-4791-B014-BC1FF1C32251";
paths = (
{
closed = 1;
nodes = (
"855 -570 LINE SMOOTH",
"1124 -570 OFFCURVE",
"1295 -362 OFFCURVE",
"1295 -29 CURVE SMOOTH",
"1295 535 LINE SMOOTH",
"1295 806 OFFCURVE",
"1183 1010 OFFCURVE",
"978 1118 CURVE",
"897 994 LINE",
"1049 894 OFFCURVE",
"1117 750 OFFCURVE",
"1117 535 CURVE SMOOTH",
"1117 446 OFFCURVE",
"1109 371 OFFCURVE",
"1094 309 CURVE SMOOTH",
"1062 184 OFFCURVE",
"1007 118 OFFCURVE",
"939 118 CURVE SMOOTH",
"848 118 OFFCURVE",
"794 209 OFFCURVE",
"777 390 CURVE",
"646 390 LINE",
"629 207 OFFCURVE",
"571 118 OFFCURVE",
"458 118 CURVE SMOOTH",
"331 118 OFFCURVE",
"268 188 OFFCURVE",
"268 328 CURVE SMOOTH",
"268 453 OFFCURVE",
"365 527 OFFCURVE",
"529 527 CURVE SMOOTH",
"544 527 LINE",
"565 526 LINE",
"565 646 LINE",
"354 646 OFFCURVE",
"268 711 OFFCURVE",
"268 835 CURVE SMOOTH",
"268 922 OFFCURVE",
"341 980 OFFCURVE",
"489 980 CURVE SMOOTH",
"534 980 OFFCURVE",
"579 973 OFFCURVE",
"626 958 CURVE",
"678 1082 LINE",
"607 1106 OFFCURVE",
"538 1118 OFFCURVE",
"470 1118 CURVE SMOOTH",
"395 1118 OFFCURVE",
"328 1106 OFFCURVE",
"271 1082 CURVE SMOOTH",
"156 1033 OFFCURVE",
"90 939 OFFCURVE",
"90 835 CURVE SMOOTH",
"90 724 OFFCURVE",
"139 653 OFFCURVE",
"274 598 CURVE",
"157 539 OFFCURVE",
"90 443 OFFCURVE",
"90 327 CURVE SMOOTH",
"90 120 OFFCURVE",
"229 -20 OFFCURVE",
"456 -20 CURVE SMOOTH",
"583 -20 OFFCURVE",
"668 25 OFFCURVE",
"711 116 CURVE",
"752 21 OFFCURVE",
"842 -20 OFFCURVE",
"943 -20 CURVE SMOOTH",
"1008 -20 OFFCURVE",
"1069 5 OFFCURVE",
"1125 55 CURVE",
"1125 -48 LINE SMOOTH",
"1125 -152 OFFCURVE",
"1115 -229 OFFCURVE",
"1096 -280 CURVE SMOOTH",
"1057 -382 OFFCURVE",
"977 -432 OFFCURVE",
"834 -432 CURVE SMOOTH",
"649 -432 LINE SMOOTH",
"556 -432 OFFCURVE",
"491 -423 OFFCURVE",
"454 -406 CURVE SMOOTH",
"417 -389 OFFCURVE",
"398 -362 OFFCURVE",
"398 -325 CURVE SMOOTH",
"398 -264 OFFCURVE",
"432 -228 OFFCURVE",
"484 -228 CURVE SMOOTH",
"511 -228 OFFCURVE",
"530 -237 OFFCURVE",
"543 -256 CURVE",
"652 -183 LINE",
"616 -132 OFFCURVE",
"552 -100 OFFCURVE",
"484 -100 CURVE SMOOTH",
"345 -100 OFFCURVE",
"254 -193 OFFCURVE",
"254 -325 CURVE SMOOTH",
"254 -474 OFFCURVE",
"384 -570 OFFCURVE",
"583 -570 CURVE SMOOTH"
);
}
);
width = 1385;
}
);
note = uni1A2E;
unicode = 1A2E;
},
{
glyphname = uni1A2F;
lastChange = "2016-11-10 14:44:19 +0000";
layers = (
{
layerId = "6FF31E7C-07F6-4791-B014-BC1FF1C32251";
paths = (
{
closed = 1;
nodes = (
"998 -186 OFFCURVE",
"890 10 OFFCURVE",
"715 103 CURVE",
"888 199 OFFCURVE",
"984 369 OFFCURVE",
"984 573 CURVE SMOOTH",
"984 686 OFFCURVE",
"963 784 OFFCURVE",
"922 866 CURVE SMOOTH",
"839 1030 OFFCURVE",
"685 1118 OFFCURVE",
"490 1118 CURVE SMOOTH",
"335 1118 OFFCURVE",
"186 1046 OFFCURVE",
"90 915 CURVE",
"221 839 LINE",
"276 926 OFFCURVE",
"377 980 OFFCURVE",
"481 980 CURVE SMOOTH",
"682 980 OFFCURVE",
"806 830 OFFCURVE",
"806 575 CURVE SMOOTH",
"806 327 OFFCURVE",
"667 168 OFFCURVE",
"436 168 CURVE SMOOTH",
"290 168 OFFCURVE",
"168 131 OFFCURVE",
"70 56 CURVE",
"154 -43 LINE",
"227 6 OFFCURVE",
"320 30 OFFCURVE",
"433 30 CURVE SMOOTH",
"514 30 OFFCURVE",
"584 12 OFFCURVE",
"644 -25 CURVE SMOOTH",
"764 -98 OFFCURVE",
"837 -235 OFFCURVE",
"849 -406 CURVE",
"1014 -417 LINE"
);
}
);
width = 1074;
}
);
note = uni1A2F;
unicode = 1A2F;
},
{
glyphname = uni1A30;
lastChange = "2016-11-10 14:44:19 +0000";
layers = (
{
layerId = "6FF31E7C-07F6-4791-B014-BC1FF1C32251";
paths = (
{
closed = 1;
nodes = (
"579 -20 OFFCURVE",
"644 23 OFFCURVE",
"688 116 CURVE",
"727 25 OFFCURVE",
"801 -20 OFFCURVE",
"910 -20 CURVE SMOOTH",
"972 -20 OFFCURVE",
"1029 3 OFFCURVE",
"1082 49 CURVE SMOOTH",
"1186 141 OFFCURVE",
"1250 315 OFFCURVE",
"1250 535 CURVE SMOOTH",
"1250 807 OFFCURVE",
"1142 1009 OFFCURVE",
"935 1118 CURVE",
"854 994 LINE",
"1006 894 OFFCURVE",
"1072 750 OFFCURVE",
"1072 535 CURVE SMOOTH",
"1072 404 OFFCURVE",
"1057 302 OFFCURVE",
"1028 229 CURVE SMOOTH",
"998 155 OFFCURVE",
"957 118 OFFCURVE",
"906 118 CURVE SMOOTH",
"818 118 OFFCURVE",
"771 206 OFFCURVE",
"754 390 CURVE",
"623 390 LINE",
"606 209 OFFCURVE",
"555 118 OFFCURVE",
"471 118 CURVE SMOOTH",
"446 118 OFFCURVE",
"422 126 OFFCURVE",
"398 142 CURVE SMOOTH",
"350 173 OFFCURVE",
"317 230 OFFCURVE",
"317 318 CURVE SMOOTH",
"317 393 OFFCURVE",
"358 460 OFFCURVE",
"458 560 CURVE SMOOTH",
"549 652 OFFCURVE",
"598 742 OFFCURVE",
"598 841 CURVE SMOOTH",
"598 892 OFFCURVE",
"586 939 OFFCURVE",
"561 982 CURVE SMOOTH",
"512 1067 OFFCURVE",
"418 1118 OFFCURVE",
"291 1118 CURVE SMOOTH",
"159 1118 OFFCURVE",
"60 1032 OFFCURVE",
"60 916 CURVE SMOOTH",
"60 819 OFFCURVE",
"141 736 OFFCURVE",
"236 736 CURVE SMOOTH",
"251 736 LINE",
"265 738 LINE",
"275 867 LINE",
"269 866 LINE",
"263 866 LINE SMOOTH",
"234 866 OFFCURVE",
"210 899 OFFCURVE",
"210 927 CURVE SMOOTH",
"210 964 OFFCURVE",
"241 988 OFFCURVE",
"290 988 CURVE SMOOTH",
"382 988 OFFCURVE",
"428 934 OFFCURVE",
"428 827 CURVE SMOOTH",
"428 732 OFFCURVE",
"383 652 OFFCURVE",
"284 559 CURVE SMOOTH",
"181 464 OFFCURVE",
"139 393 OFFCURVE",
"139 308 CURVE SMOOTH",
"139 116 OFFCURVE",
"276 -20 OFFCURVE",
"467 -20 CURVE SMOOTH"
);
}
);
width = 1340;
}
);
note = uni1A30;
unicode = 1A30;
},
{
glyphname = uni1A31;
lastChange = "2016-11-10 14:44:19 +0000";
layers = (
{
layerId = "6FF31E7C-07F6-4791-B014-BC1FF1C32251";
paths = (
{
closed = 1;
nodes = (
"622 -16 LINE",
"603 119 LINE",
"587 118 LINE",
"570 118 LINE SMOOTH",
"370 118 OFFCURVE",
"268 269 OFFCURVE",
"268 560 CURVE SMOOTH",
"268 852 OFFCURVE",
"370 980 OFFCURVE",
"578 980 CURVE SMOOTH",
"775 980 OFFCURVE",
"882 842 OFFCURVE",
"882 579 CURVE SMOOTH",
"882 531 OFFCURVE",
"879 489 OFFCURVE",
"873 453 CURVE SMOOTH",
"861 381 OFFCURVE",
"846 326 OFFCURVE",
"835 282 CURVE SMOOTH",
"829 259 OFFCURVE",
"826 238 OFFCURVE",
"826 217 CURVE SMOOTH",
"826 77 OFFCURVE",
"938 -20 OFFCURVE",
"1115 -20 CURVE SMOOTH",
"1177 -20 OFFCURVE",
"1230 -10 OFFCURVE",
"1274 11 CURVE SMOOTH",
"1361 51 OFFCURVE",
"1408 126 OFFCURVE",
"1408 217 CURVE SMOOTH",
"1408 238 OFFCURVE",
"1405 259 OFFCURVE",
"1399 282 CURVE SMOOTH",
"1393 304 OFFCURVE",
"1387 329 OFFCURVE",
"1380 357 CURVE SMOOTH",
"1366 413 OFFCURVE",
"1352 483 OFFCURVE",
"1352 579 CURVE SMOOTH",
"1352 840 OFFCURVE",
"1459 980 OFFCURVE",
"1656 980 CURVE SMOOTH",
"1864 980 OFFCURVE",
"1966 847 OFFCURVE",
"1966 560 CURVE SMOOTH",
"1966 272 OFFCURVE",
"1865 118 OFFCURVE",
"1664 118 CURVE SMOOTH",
"1648 118 LINE",
"1631 119 LINE",
"1612 -16 LINE",
"1684 -20 LINE",
"1774 -20 OFFCURVE",
"1853 3 OFFCURVE",
"1922 49 CURVE SMOOTH",
"2059 140 OFFCURVE",
"2144 333 OFFCURVE",
"2144 548 CURVE SMOOTH",
"2144 889 OFFCURVE",
"1952 1118 OFFCURVE",
"1656 1118 CURVE SMOOTH",
"1567 1118 OFFCURVE",
"1486 1095 OFFCURVE",
"1413 1049 CURVE SMOOTH",
"1268 956 OFFCURVE",
"1184 784 OFFCURVE",
"1184 576 CURVE SMOOTH",
"1184 518 OFFCURVE",
"1194 450 OFFCURVE",
"1214 373 CURVE SMOOTH",
"1233 295 OFFCURVE",
"1243 247 OFFCURVE",
"1243 229 CURVE SMOOTH",
"1243 162 OFFCURVE",
"1196 118 OFFCURVE",
"1117 118 CURVE SMOOTH",
"1033 118 OFFCURVE",
"991 155 OFFCURVE",
"991 229 CURVE SMOOTH",
"991 247 OFFCURVE",
"1001 295 OFFCURVE",
"1021 373 CURVE SMOOTH",
"1040 450 OFFCURVE",
"1050 518 OFFCURVE",
"1050 576 CURVE SMOOTH",
"1050 680 OFFCURVE",
"1030 773 OFFCURVE",
"990 856 CURVE SMOOTH",
"910 1020 OFFCURVE",
"758 1118 OFFCURVE",
"578 1118 CURVE SMOOTH",
"482 1118 OFFCURVE",
"397 1095 OFFCURVE",
"323 1048 CURVE SMOOTH",
"174 954 OFFCURVE",
"90 772 OFFCURVE",
"90 548 CURVE SMOOTH",
"90 441 OFFCURVE",
"110 342 OFFCURVE",
"150 252 CURVE SMOOTH",
"229 72 OFFCURVE",
"370 -20 OFFCURVE",
"550 -20 CURVE"
);
}
);
width = 2236;
}
);
note = uni1A31;
unicode = 1A31;
},
{
glyphname = uni1A32;
lastChange = "2016-11-10 14:44:19 +0000";
layers = (
{
layerId = "6FF31E7C-07F6-4791-B014-BC1FF1C32251";
paths = (
{
closed = 1;
nodes = (
"834 -20 OFFCURVE",
"1013 203 OFFCURVE",
"1013 551 CURVE SMOOTH",
"1013 598 OFFCURVE",
"1009 645 OFFCURVE",
"1001 690 CURVE",
"1024 870 OFFCURVE",
"1122 980 OFFCURVE",
"1265 980 CURVE SMOOTH",
"1452 980 OFFCURVE",
"1560 826 OFFCURVE",
"1560 563 CURVE SMOOTH",
"1560 290 OFFCURVE",
"1443 118 OFFCURVE",
"1262 118 CURVE SMOOTH",
"1210 118 OFFCURVE",
"1160 131 OFFCURVE",
"1112 158 CURVE",
"1031 41 LINE",
"1102 0 OFFCURVE",
"1181 -20 OFFCURVE",
"1270 -20 CURVE SMOOTH",
"1363 -20 OFFCURVE",
"1446 4 OFFCURVE",
"1517 52 CURVE SMOOTH",
"1659 147 OFFCURVE",
"1738 330 OFFCURVE",
"1738 575 CURVE SMOOTH",
"1738 687 OFFCURVE",
"1719 784 OFFCURVE",
"1680 865 CURVE SMOOTH",
"1602 1028 OFFCURVE",
"1453 1118 OFFCURVE",
"1270 1118 CURVE SMOOTH",
"1126 1118 OFFCURVE",
"989 1041 OFFCURVE",
"916 925 CURVE",
"830 1054 OFFCURVE",
"709 1118 OFFCURVE",
"554 1118 CURVE SMOOTH",
"462 1118 OFFCURVE",
"381 1095 OFFCURVE",
"310 1048 CURVE SMOOTH",
"169 954 OFFCURVE",
"90 772 OFFCURVE",
"90 551 CURVE SMOOTH",
"90 444 OFFCURVE",
"110 347 OFFCURVE",
"149 260 CURVE SMOOTH",
"227 84 OFFCURVE",
"374 -20 OFFCURVE",
"547 -20 CURVE SMOOTH"
);
},
{
closed = 1;
nodes = (
"373 118 OFFCURVE",
"268 283 OFFCURVE",
"268 551 CURVE SMOOTH",
"268 822 OFFCURVE",
"372 980 OFFCURVE",
"549 980 CURVE SMOOTH",
"733 980 OFFCURVE",
"835 826 OFFCURVE",
"835 551 CURVE SMOOTH",
"835 279 OFFCURVE",
"735 118 OFFCURVE",
"552 118 CURVE SMOOTH"
);
}
);
width = 1828;
}
);
note = uni1A32;
unicode = 1A32;
},
{
glyphname = uni1A33;
lastChange = "2016-11-10 14:44:19 +0000";
layers = (
{
layerId = "6FF31E7C-07F6-4791-B014-BC1FF1C32251";
paths = (
{
closed = 1;
nodes = (
"507 -20 OFFCURVE",
"582 24 OFFCURVE",
"629 112 CURVE",
"676 24 OFFCURVE",
"747 -20 OFFCURVE",
"842 -20 CURVE SMOOTH",
"990 -20 OFFCURVE",
"1080 71 OFFCURVE",
"1112 252 CURVE",
"970 288 LINE",
"958 169 OFFCURVE",
"905 118 OFFCURVE",
"840 118 CURVE SMOOTH",
"745 118 OFFCURVE",
"709 178 OFFCURVE",
"688 322 CURVE",
"570 322 LINE",
"549 181 OFFCURVE",
"507 118 OFFCURVE",
"408 118 CURVE SMOOTH",
"316 118 OFFCURVE",
"266 185 OFFCURVE",
"266 308 CURVE SMOOTH",
"266 433 OFFCURVE",
"363 507 OFFCURVE",
"527 507 CURVE SMOOTH",
"544 507 LINE",
"565 506 LINE",
"565 626 LINE",
"382 626 OFFCURVE",
"266 693 OFFCURVE",
"266 805 CURVE SMOOTH",
"266 920 OFFCURVE",
"400 980 OFFCURVE",
"639 980 CURVE SMOOTH",
"1011 980 OFFCURVE",
"1207 739 OFFCURVE",
"1207 194 CURVE SMOOTH",
"1207 97 OFFCURVE",
"1200 25 OFFCURVE",
"1187 -20 CURVE",
"1360 4 LINE",
"1371 61 OFFCURVE",
"1377 124 OFFCURVE",
"1377 195 CURVE SMOOTH",
"1377 388 OFFCURVE",
"1349 554 OFFCURVE",
"1293 694 CURVE SMOOTH",
"1180 974 OFFCURVE",
"960 1118 OFFCURVE",
"643 1118 CURVE SMOOTH",
"426 1118 OFFCURVE",
"288 1070 OFFCURVE",
"204 1007 CURVE SMOOTH",
"120 943 OFFCURVE",
"90 865 OFFCURVE",
"90 805 CURVE SMOOTH",
"90 699 OFFCURVE",
"151 623 OFFCURVE",
"274 578 CURVE",
"157 519 OFFCURVE",
"90 423 OFFCURVE",
"90 307 CURVE SMOOTH",
"90 249 OFFCURVE",
"104 195 OFFCURVE",
"131 144 CURVE SMOOTH",
"185 43 OFFCURVE",
"289 -20 OFFCURVE",
"406 -20 CURVE SMOOTH"
);
}
);
width = 1437;
}
);
note = uni1A33;
unicode = 1A33;
},
{
glyphname = uni1A34;
lastChange = "2016-11-10 14:44:19 +0000";
layers = (
{
layerId = "6FF31E7C-07F6-4791-B014-BC1FF1C32251";
paths = (
{
closed = 1;
nodes = (
"802 -20 OFFCURVE",
"898 -4 OFFCURVE",
"981 28 CURVE SMOOTH",
"1145 91 OFFCURVE",
"1235 213 OFFCURVE",
"1235 358 CURVE SMOOTH",
"1235 468 OFFCURVE",
"1174 548 OFFCURVE",
"1051 598 CURVE",
"1184 653 OFFCURVE",
"1235 722 OFFCURVE",
"1235 835 CURVE SMOOTH",
"1235 887 OFFCURVE",
"1219 935 OFFCURVE",
"1188 979 CURVE SMOOTH",
"1125 1066 OFFCURVE",
"1007 1118 OFFCURVE",
"855 1118 CURVE SMOOTH",
"778 1118 OFFCURVE",
"703 1104 OFFCURVE",
"629 1075 CURVE",
"678 951 LINE",
"732 970 OFFCURVE",
"785 980 OFFCURVE",
"836 980 CURVE SMOOTH",
"984 980 OFFCURVE",
"1059 922 OFFCURVE",
"1059 835 CURVE SMOOTH",
"1059 770 OFFCURVE",
"1034 725 OFFCURVE",
"990 695 CURVE SMOOTH",
"946 665 OFFCURVE",
"879 646 OFFCURVE",
"738 646 CURVE",
"738 525 LINE",
"798 527 LINE SMOOTH",
"855 527 OFFCURVE",
"902 519 OFFCURVE",
"941 504 CURVE SMOOTH",
"1017 473 OFFCURVE",
"1059 415 OFFCURVE",
"1059 346 CURVE SMOOTH",
"1059 202 OFFCURVE",
"928 118 OFFCURVE",
"683 118 CURVE SMOOTH",
"605 118 OFFCURVE",
"534 137 OFFCURVE",
"471 176 CURVE SMOOTH",
"343 252 OFFCURVE",
"268 396 OFFCURVE",
"268 575 CURVE SMOOTH",
"268 644 OFFCURVE",
"275 700 OFFCURVE",
"290 745 CURVE SMOOTH",
"318 834 OFFCURVE",
"377 918 OFFCURVE",
"481 999 CURVE",
"410 1108 LINE",
"221 1009 OFFCURVE",
"90 793 OFFCURVE",
"90 577 CURVE SMOOTH",
"90 460 OFFCURVE",
"115 356 OFFCURVE",
"165 265 CURVE SMOOTH",
"265 84 OFFCURVE",
"456 -20 OFFCURVE",
"693 -20 CURVE SMOOTH"
);
}
);
width = 1325;
}
);
note = uni1A34;
unicode = 1A34;
},
{
glyphname = uni1A35;
lastChange = "2016-11-10 14:44:19 +0000";
layers = (
{
layerId = "6FF31E7C-07F6-4791-B014-BC1FF1C32251";
paths = (
{
closed = 1;
nodes = (
"533 -20 OFFCURVE",
"611 32 OFFCURVE",
"655 135 CURVE",
"700 30 OFFCURVE",
"773 -20 OFFCURVE",
"885 -20 CURVE SMOOTH",
"945 -20 OFFCURVE",
"1000 2 OFFCURVE",
"1051 47 CURVE SMOOTH",
"1152 135 OFFCURVE",
"1214 305 OFFCURVE",
"1214 510 CURVE SMOOTH",
"1214 629 OFFCURVE",
"1191 734 OFFCURVE",
"1146 827 CURVE SMOOTH",
"1054 1012 OFFCURVE",
"879 1118 OFFCURVE",
"655 1118 CURVE SMOOTH",
"542 1118 OFFCURVE",
"443 1092 OFFCURVE",
"358 1041 CURVE SMOOTH",
"186 938 OFFCURVE",
"90 746 OFFCURVE",
"90 523 CURVE SMOOTH",
"90 412 OFFCURVE",
"104 315 OFFCURVE",
"133 234 CURVE SMOOTH",
"190 70 OFFCURVE",
"298 -20 OFFCURVE",
"422 -20 CURVE SMOOTH"
);
},
{
closed = 1;
nodes = (
"375 118 OFFCURVE",
"336 153 OFFCURVE",
"309 223 CURVE SMOOTH",
"282 292 OFFCURVE",
"268 391 OFFCURVE",
"268 518 CURVE SMOOTH",
"268 819 OFFCURVE",
"400 980 OFFCURVE",
"655 980 CURVE SMOOTH",
"904 980 OFFCURVE",
"1036 815 OFFCURVE",
"1036 518 CURVE SMOOTH",
"1036 391 OFFCURVE",
"1023 293 OFFCURVE",
"998 223 CURVE SMOOTH",
"972 153 OFFCURVE",
"933 118 OFFCURVE",
"881 118 CURVE SMOOTH",
"793 118 OFFCURVE",
"736 204 OFFCURVE",
"716 348 CURVE",
"595 348 LINE",
"571 195 OFFCURVE",
"515 118 OFFCURVE",
"426 118 CURVE SMOOTH"
);
}
);
width = 1304;
}
);
note = uni1A35;
unicode = 1A35;
},
{
glyphname = uni1A36;
lastChange = "2016-11-10 14:44:19 +0000";
layers = (
{
layerId = "6FF31E7C-07F6-4791-B014-BC1FF1C32251";
paths = (
{
closed = 1;
nodes = (
"1210 -517 LINE",
"1163 -347 OFFCURVE",
"1115 -222 OFFCURVE",
"1068 -142 CURVE SMOOTH",
"972 18 OFFCURVE",
"844 99 OFFCURVE",
"624 136 CURVE SMOOTH",
"550 148 LINE SMOOTH",
"381 177 OFFCURVE",
"268 335 OFFCURVE",
"268 555 CURVE SMOOTH",
"268 807 OFFCURVE",
"400 980 OFFCURVE",
"612 980 CURVE SMOOTH",
"721 980 OFFCURVE",
"820 931 OFFCURVE",
"881 839 CURVE",
"1012 915 LINE",
"916 1046 OFFCURVE",
"767 1118 OFFCURVE",
"610 1118 CURVE SMOOTH",
"510 1118 OFFCURVE",
"420 1094 OFFCURVE",
"341 1045 CURVE SMOOTH",
"181 947 OFFCURVE",
"90 764 OFFCURVE",
"90 553 CURVE SMOOTH",
"90 237 OFFCURVE",
"240 55 OFFCURVE",
"572 0 CURVE SMOOTH",
"629 -9 LINE SMOOTH",
"836 -41 OFFCURVE",
"962 -213 OFFCURVE",
"1045 -565 CURVE"
);
}
);
width = 1130;
}
);
note = uni1A36;
unicode = 1A36;
},
{
glyphname = uni1A37;
lastChange = "2016-11-10 14:44:19 +0000";
layers = (
{
layerId = "6FF31E7C-07F6-4791-B014-BC1FF1C32251";
paths = (
{
closed = 1;
nodes = (
"703 -20 OFFCURVE",
"791 5 OFFCURVE",
"871 56 CURVE SMOOTH",
"1031 157 OFFCURVE",
"1126 347 OFFCURVE",
"1126 560 CURVE SMOOTH",
"1126 803 OFFCURVE",
"1010 997 OFFCURVE",
"803 1108 CURVE",
"745 974 LINE",
"870 921 OFFCURVE",
"948 779 OFFCURVE",
"948 538 CURVE SMOOTH",
"948 270 OFFCURVE",
"828 118 OFFCURVE",
"608 118 CURVE SMOOTH",
"387 118 OFFCURVE",
"268 269 OFFCURVE",
"268 538 CURVE SMOOTH",
"268 779 OFFCURVE",
"346 921 OFFCURVE",
"471 974 CURVE",
"413 1108 LINE",
"202 995 OFFCURVE",
"90 797 OFFCURVE",
"90 560 CURVE SMOOTH",
"90 451 OFFCURVE",
"112 352 OFFCURVE",
"157 263 CURVE SMOOTH",
"245 85 OFFCURVE",
"412 -20 OFFCURVE",
"608 -20 CURVE SMOOTH"
);
}
);
width = 1216;
}
);
note = uni1A37;
unicode = 1A37;
},
{
glyphname = uni1A38;
lastChange = "2016-11-10 14:44:19 +0000";
layers = (
{
layerId = "6FF31E7C-07F6-4791-B014-BC1FF1C32251";
paths = (
{
closed = 1;
nodes = (
"968 -20 OFFCURVE",
"1140 244 OFFCURVE",
"1140 821 CURVE SMOOTH",
"1140 1040 OFFCURVE",
"1146 1202 OFFCURVE",
"1157 1307 CURVE SMOOTH",
"1168 1412 OFFCURVE",
"1186 1487 OFFCURVE",
"1212 1533 CURVE SMOOTH",
"1238 1579 OFFCURVE",
"1276 1602 OFFCURVE",
"1325 1602 CURVE SMOOTH",
"1358 1602 OFFCURVE",
"1388 1597 OFFCURVE",
"1417 1587 CURVE",
"1484 1714 LINE",
"1435 1731 OFFCURVE",
"1393 1740 OFFCURVE",
"1356 1740 CURVE SMOOTH",
"1279 1740 OFFCURVE",
"1211 1707 OFFCURVE",
"1152 1642 CURVE SMOOTH",
"1033 1511 OFFCURVE",
"962 1251 OFFCURVE",
"962 951 CURVE SMOOTH",
"962 745 LINE SMOOTH",
"962 582 OFFCURVE",
"950 457 OFFCURVE",
"927 370 CURVE SMOOTH",
"880 195 OFFCURVE",
"782 118 OFFCURVE",
"602 118 CURVE SMOOTH",
"389 118 OFFCURVE",
"268 271 OFFCURVE",
"268 543 CURVE SMOOTH",
"268 766 OFFCURVE",
"331 907 OFFCURVE",
"471 976 CURVE",
"415 1108 LINE",
"215 1007 OFFCURVE",
"90 788 OFFCURVE",
"90 545 CURVE SMOOTH",
"90 441 OFFCURVE",
"112 346 OFFCURVE",
"156 259 CURVE SMOOTH",
"243 86 OFFCURVE",
"411 -20 OFFCURVE",
"596 -20 CURVE SMOOTH"
);
}
);
width = 1284;
}
);
note = uni1A38;
unicode = 1A38;
},
{
glyphname = uni1A39;
lastChange = "2016-11-10 14:44:19 +0000";
layers = (
{
layerId = "6FF31E7C-07F6-4791-B014-BC1FF1C32251";
paths = (
{
closed = 1;
nodes = (
"583 -20 OFFCURVE",
"668 25 OFFCURVE",
"711 116 CURVE",
"752 21 OFFCURVE",
"842 -20 OFFCURVE",
"943 -20 CURVE SMOOTH",
"1043 -19 OFFCURVE",
"1135 45 OFFCURVE",
"1204 156 CURVE",
"1245 144 OFFCURVE",
"1286 138 OFFCURVE",
"1327 138 CURVE",
"1334 279 LINE",
"1310 280 OFFCURVE",
"1287 282 OFFCURVE",
"1265 286 CURVE",
"1300 389 OFFCURVE",
"1318 499 OFFCURVE",
"1318 615 CURVE SMOOTH",
"1318 700 OFFCURVE",
"1305 784 OFFCURVE",
"1279 866 CURVE SMOOTH",
"1226 1029 OFFCURVE",
"1137 1118 OFFCURVE",
"1034 1118 CURVE SMOOTH",
"995 1118 OFFCURVE",
"959 1099 OFFCURVE",
"925 1060 CURVE SMOOTH",
"856 983 OFFCURVE",
"813 845 OFFCURVE",
"813 718 CURVE SMOOTH",
"813 507 OFFCURVE",
"915 319 OFFCURVE",
"1075 215 CURVE",
"1040 155 OFFCURVE",
"990 118 OFFCURVE",
"939 118 CURVE SMOOTH",
"848 118 OFFCURVE",
"794 209 OFFCURVE",
"777 390 CURVE",
"646 390 LINE",
"629 207 OFFCURVE",
"571 118 OFFCURVE",
"458 118 CURVE SMOOTH",
"331 118 OFFCURVE",
"268 188 OFFCURVE",
"268 328 CURVE SMOOTH",
"268 453 OFFCURVE",
"365 527 OFFCURVE",
"529 527 CURVE SMOOTH",
"544 527 LINE",
"565 526 LINE",
"565 646 LINE",
"354 646 OFFCURVE",
"268 711 OFFCURVE",
"268 835 CURVE SMOOTH",
"268 922 OFFCURVE",
"341 980 OFFCURVE",
"489 980 CURVE SMOOTH",
"534 980 OFFCURVE",
"579 973 OFFCURVE",
"626 958 CURVE",
"678 1082 LINE",
"607 1106 OFFCURVE",
"538 1118 OFFCURVE",
"470 1118 CURVE SMOOTH",
"395 1118 OFFCURVE",
"328 1106 OFFCURVE",
"271 1082 CURVE SMOOTH",
"156 1033 OFFCURVE",
"90 939 OFFCURVE",
"90 835 CURVE SMOOTH",
"90 724 OFFCURVE",
"139 653 OFFCURVE",
"274 598 CURVE",
"157 539 OFFCURVE",
"90 443 OFFCURVE",
"90 327 CURVE SMOOTH",
"90 120 OFFCURVE",
"229 -20 OFFCURVE",
"456 -20 CURVE SMOOTH"
);
},
{
closed = 1;
nodes = (
"1025 429 OFFCURVE",
"969 559 OFFCURVE",
"969 706 CURVE SMOOTH",
"969 829 OFFCURVE",
"986 921 OFFCURVE",
"1021 981 CURVE",
"1101 952 OFFCURVE",
"1158 784 OFFCURVE",
"1158 604 CURVE SMOOTH",
"1158 515 OFFCURVE",
"1148 430 OFFCURVE",
"1129 349 CURVE"
);
}
);
width = 1434;
}
);
note = uni1A39;
unicode = 1A39;
},
{
glyphname = uni1A3A;
lastChange = "2016-11-10 14:44:19 +0000";
layers = (
{
layerId = "6FF31E7C-07F6-4791-B014-BC1FF1C32251";
paths = (
{
closed = 1;
nodes = (
"583 -20 OFFCURVE",
"668 25 OFFCURVE",
"711 116 CURVE",
"752 21 OFFCURVE",
"842 -20 OFFCURVE",
"943 -20 CURVE SMOOTH",
"1010 -20 OFFCURVE",
"1073 8 OFFCURVE",
"1132 65 CURVE SMOOTH",
"1248 178 OFFCURVE",
"1318 382 OFFCURVE",
"1318 615 CURVE SMOOTH",
"1318 946 OFFCURVE",
"1204 1116 OFFCURVE",
"917 1195 CURVE SMOOTH",
"789 1230 LINE SMOOTH",
"637 1271 OFFCURVE",
"571 1329 OFFCURVE",
"571 1425 CURVE SMOOTH",
"571 1532 OFFCURVE",
"664 1602 OFFCURVE",
"809 1602 CURVE SMOOTH",
"958 1602 OFFCURVE",
"1035 1564 OFFCURVE",
"1112 1476 CURVE",
"1232 1569 LINE",
"1141 1674 OFFCURVE",
"993 1740 OFFCURVE",
"821 1740 CURVE SMOOTH",
"742 1740 OFFCURVE",
"670 1726 OFFCURVE",
"605 1698 CURVE SMOOTH",
"475 1642 OFFCURVE",
"394 1537 OFFCURVE",
"394 1432 CURVE SMOOTH",
"394 1271 OFFCURVE",
"481 1180 OFFCURVE",
"750 1111 CURVE SMOOTH",
"860 1080 LINE SMOOTH",
"1069 1017 OFFCURVE",
"1158 887 OFFCURVE",
"1158 604 CURVE SMOOTH",
"1158 511 OFFCURVE",
"1149 427 OFFCURVE",
"1130 352 CURVE SMOOTH",
"1092 203 OFFCURVE",
"1020 118 OFFCURVE",
"939 118 CURVE SMOOTH",
"848 118 OFFCURVE",
"794 209 OFFCURVE",
"777 390 CURVE",
"646 390 LINE",
"629 207 OFFCURVE",
"571 118 OFFCURVE",
"458 118 CURVE SMOOTH",
"325 118 OFFCURVE",
"268 182 OFFCURVE",
"268 318 CURVE SMOOTH",
"268 439 OFFCURVE",
"364 507 OFFCURVE",
"529 507 CURVE SMOOTH",
"545 507 LINE",
"565 506 LINE",
"565 626 LINE",
"386 626 OFFCURVE",
"268 683 OFFCURVE",
"268 774 CURVE SMOOTH",
"268 865 OFFCURVE",
"342 910 OFFCURVE",
"489 910 CURVE SMOOTH",
"528 910 OFFCURVE",
"566 905 OFFCURVE",
"602 895 CURVE",
"647 1022 LINE",
"588 1039 OFFCURVE",
"529 1048 OFFCURVE",
"470 1048 CURVE SMOOTH",
"391 1048 OFFCURVE",
"324 1037 OFFCURVE",
"267 1015 CURVE SMOOTH",
"153 971 OFFCURVE",
"90 888 OFFCURVE",
"90 788 CURVE SMOOTH",
"90 698 OFFCURVE",
"151 628 OFFCURVE",
"274 578 CURVE",
"151 517 OFFCURVE",
"90 430 OFFCURVE",
"90 317 CURVE SMOOTH",
"90 113 OFFCURVE",
"227 -20 OFFCURVE",
"456 -20 CURVE SMOOTH"
);
}
);
width = 1408;
}
);
note = uni1A3A;
unicode = 1A3A;
},
{
glyphname = uni1A3B;
lastChange = "2016-11-10 14:44:19 +0000";
layers = (
{
layerId = "6FF31E7C-07F6-4791-B014-BC1FF1C32251";
paths = (
{
closed = 1;
nodes = (
"454 99 LINE",
"335 199 OFFCURVE",
"268 375 OFFCURVE",
"268 590 CURVE SMOOTH",
"268 714 OFFCURVE",
"282 810 OFFCURVE",
"311 878 CURVE SMOOTH",
"339 946 OFFCURVE",
"381 980 OFFCURVE",
"436 980 CURVE SMOOTH",
"532 980 OFFCURVE",
"592 881 OFFCURVE",
"608 708 CURVE",
"739 708 LINE",
"755 880 OFFCURVE",
"814 980 OFFCURVE",
"911 980 CURVE SMOOTH",
"966 980 OFFCURVE",
"1008 946 OFFCURVE",
"1037 877 CURVE SMOOTH",
"1065 808 OFFCURVE",
"1079 713 OFFCURVE",
"1079 590 CURVE SMOOTH",
"1079 375 OFFCURVE",
"1012 198 OFFCURVE",
"893 99 CURVE",
"962 -20 LINE",
"1149 113 OFFCURVE",
"1257 352 OFFCURVE",
"1257 613 CURVE SMOOTH",
"1257 714 OFFCURVE",
"1242 802 OFFCURVE",
"1212 879 CURVE SMOOTH",
"1152 1031 OFFCURVE",
"1040 1118 OFFCURVE",
"915 1118 CURVE SMOOTH",
"800 1118 OFFCURVE",
"719 1066 OFFCURVE",
"673 963 CURVE",
"627 1066 OFFCURVE",
"547 1118 OFFCURVE",
"432 1118 CURVE SMOOTH",
"370 1118 OFFCURVE",
"313 1097 OFFCURVE",
"260 1056 CURVE SMOOTH",
"154 972 OFFCURVE",
"90 814 OFFCURVE",
"90 613 CURVE SMOOTH",
"90 353 OFFCURVE",
"197 115 OFFCURVE",
"385 -20 CURVE"
);
}
);
width = 1347;
}
);
note = uni1A3B;
unicode = 1A3B;
},
{
glyphname = uni1A3C;
lastChange = "2016-11-10 14:44:19 +0000";
layers = (
{
layerId = "6FF31E7C-07F6-4791-B014-BC1FF1C32251";
paths = (
{
closed = 1;
nodes = (
"454 99 LINE",
"335 199 OFFCURVE",
"268 375 OFFCURVE",
"268 590 CURVE SMOOTH",
"268 714 OFFCURVE",
"282 810 OFFCURVE",
"311 878 CURVE SMOOTH",
"339 946 OFFCURVE",
"381 980 OFFCURVE",
"436 980 CURVE SMOOTH",
"532 980 OFFCURVE",
"592 881 OFFCURVE",
"608 708 CURVE",
"739 708 LINE",
"755 880 OFFCURVE",
"814 980 OFFCURVE",
"911 980 CURVE SMOOTH",
"966 980 OFFCURVE",
"1008 946 OFFCURVE",
"1037 877 CURVE SMOOTH",
"1065 808 OFFCURVE",
"1079 713 OFFCURVE",
"1079 590 CURVE SMOOTH",
"1079 375 OFFCURVE",
"1012 198 OFFCURVE",
"893 99 CURVE",
"962 -20 LINE",
"1149 113 OFFCURVE",
"1257 352 OFFCURVE",
"1257 613 CURVE SMOOTH",
"1257 714 OFFCURVE",
"1242 802 OFFCURVE",
"1212 879 CURVE SMOOTH",
"1152 1031 OFFCURVE",
"1040 1118 OFFCURVE",
"915 1118 CURVE SMOOTH",
"800 1118 OFFCURVE",
"719 1066 OFFCURVE",
"673 963 CURVE",
"627 1066 OFFCURVE",
"547 1118 OFFCURVE",
"432 1118 CURVE SMOOTH",
"377 1118 OFFCURVE",
"326 1102 OFFCURVE",
"281 1071 CURVE",
"314 1450 OFFCURVE",
"420 1602 OFFCURVE",
"639 1602 CURVE SMOOTH",
"743 1602 OFFCURVE",
"852 1546 OFFCURVE",
"899 1461 CURVE",
"1032 1564 LINE",
"939 1681 OFFCURVE",
"817 1740 OFFCURVE",
"665 1740 CURVE SMOOTH",
"549 1740 OFFCURVE",
"448 1704 OFFCURVE",
"361 1631 CURVE SMOOTH",
"187 1486 OFFCURVE",
"90 1207 OFFCURVE",
"90 848 CURVE SMOOTH",
"90 613 LINE SMOOTH",
"90 353 OFFCURVE",
"197 115 OFFCURVE",
"385 -20 CURVE"
);
}
);
width = 1347;
}
);
note = uni1A3C;
unicode = 1A3C;
},
{
glyphname = uni1A3D;
lastChange = "2016-11-10 14:44:19 +0000";
layers = (
{
layerId = "6FF31E7C-07F6-4791-B014-BC1FF1C32251";
paths = (
{
closed = 1;
nodes = (
"576 -20 OFFCURVE",
"662 4 OFFCURVE",
"739 51 CURVE SMOOTH",
"893 145 OFFCURVE",
"984 322 OFFCURVE",
"984 553 CURVE SMOOTH",
"984 596 OFFCURVE",
"982 637 OFFCURVE",
"977 674 CURVE",
"990 861 OFFCURVE",
"1089 980 OFFCURVE",
"1236 980 CURVE SMOOTH",
"1423 980 OFFCURVE",
"1531 826 OFFCURVE",
"1531 563 CURVE SMOOTH",
"1531 290 OFFCURVE",
"1414 118 OFFCURVE",
"1233 118 CURVE SMOOTH",
"1181 118 OFFCURVE",
"1131 131 OFFCURVE",
"1083 158 CURVE",
"1002 41 LINE",
"1073 0 OFFCURVE",
"1152 -20 OFFCURVE",
"1241 -20 CURVE SMOOTH",
"1334 -20 OFFCURVE",
"1417 4 OFFCURVE",
"1488 52 CURVE SMOOTH",
"1630 147 OFFCURVE",
"1709 330 OFFCURVE",
"1709 575 CURVE SMOOTH",
"1709 687 OFFCURVE",
"1690 784 OFFCURVE",
"1651 865 CURVE SMOOTH",
"1573 1028 OFFCURVE",
"1424 1118 OFFCURVE",
"1241 1118 CURVE SMOOTH",
"1105 1118 OFFCURVE",
"967 1046 OFFCURVE",
"892 930 CURVE",
"887 924 LINE",
"804 1051 OFFCURVE",
"662 1118 OFFCURVE",
"490 1118 CURVE SMOOTH",
"335 1118 OFFCURVE",
"186 1046 OFFCURVE",
"90 915 CURVE",
"221 839 LINE",
"276 926 OFFCURVE",
"377 980 OFFCURVE",
"481 980 CURVE SMOOTH",
"684 980 OFFCURVE",
"806 826 OFFCURVE",
"806 555 CURVE SMOOTH",
"806 295 OFFCURVE",
"680 118 OFFCURVE",
"492 118 CURVE SMOOTH",
"355 118 OFFCURVE",
"255 180 OFFCURVE",
"220 300 CURVE",
"60 247 LINE",
"137 80 OFFCURVE",
"283 -20 OFFCURVE",
"483 -20 CURVE SMOOTH"
);
}
);
width = 1799;
}
);
note = uni1A3D;
unicode = 1A3D;
},
{
glyphname = uni1A3E;
lastChange = "2016-11-10 14:44:19 +0000";
layers = (
{
layerId = "6FF31E7C-07F6-4791-B014-BC1FF1C32251";
paths = (
{
closed = 1;
nodes = (
"1119 -45 LINE",
"1108 44 OFFCURVE",
"1078 131 OFFCURVE",
"1029 214 CURVE",
"1094 317 OFFCURVE",
"1126 432 OFFCURVE",
"1126 560 CURVE SMOOTH",
"1126 803 OFFCURVE",
"1010 997 OFFCURVE",
"803 1108 CURVE",
"745 974 LINE",
"870 921 OFFCURVE",
"948 779 OFFCURVE",
"948 538 CURVE SMOOTH",
"948 467 OFFCURVE",
"939 402 OFFCURVE",
"921 343 CURVE",
"844 412 OFFCURVE",
"757 453 OFFCURVE",
"661 464 CURVE",
"642 328 LINE",
"717 315 OFFCURVE",
"784 274 OFFCURVE",
"842 207 CURVE",
"785 148 OFFCURVE",
"707 118 OFFCURVE",
"608 118 CURVE SMOOTH",
"387 118 OFFCURVE",
"268 269 OFFCURVE",
"268 538 CURVE SMOOTH",
"268 779 OFFCURVE",
"346 921 OFFCURVE",
"471 974 CURVE",
"413 1108 LINE",
"202 995 OFFCURVE",
"90 797 OFFCURVE",
"90 560 CURVE SMOOTH",
"90 451 OFFCURVE",
"112 352 OFFCURVE",
"157 263 CURVE SMOOTH",
"245 85 OFFCURVE",
"412 -20 OFFCURVE",
"608 -20 CURVE SMOOTH",
"724 -20 OFFCURVE",
"827 16 OFFCURVE",
"917 89 CURVE",
"943 28 OFFCURVE",
"959 -30 OFFCURVE",
"964 -83 CURVE"
);
}
);
width = 1216;
}
);
note = uni1A3E;
unicode = 1A3E;
},
{
glyphname = uni1A3F;
lastChange = "2016-11-10 14:44:19 +0000";
layers = (
{
layerId = "6FF31E7C-07F6-4791-B014-BC1FF1C32251";
paths = (
{
closed = 1;
nodes = (
"757 -20 OFFCURVE",
"887 44 OFFCURVE",
"979 148 CURVE",
"1072 40 OFFCURVE",
"1223 -20 OFFCURVE",
"1407 -20 CURVE SMOOTH",
"1504 -20 OFFCURVE",
"1591 4 OFFCURVE",
"1668 51 CURVE SMOOTH",
"1820 146 OFFCURVE",
"1908 328 OFFCURVE",
"1908 563 CURVE SMOOTH",
"1908 677 OFFCURVE",
"1888 775 OFFCURVE",
"1848 858 CURVE SMOOTH",
"1767 1023 OFFCURVE",
"1617 1118 OFFCURVE",
"1448 1118 CURVE SMOOTH",
"1311 1118 OFFCURVE",
"1194 1078 OFFCURVE",
"1114 961 CURVE",
"1244 881 LINE",
"1283 941 OFFCURVE",
"1349 980 OFFCURVE",
"1425 980 CURVE SMOOTH",
"1486 980 OFFCURVE",
"1539 964 OFFCURVE",
"1585 931 CURVE SMOOTH",
"1676 866 OFFCURVE",
"1730 738 OFFCURVE",
"1730 565 CURVE SMOOTH",
"1730 289 OFFCURVE",
"1607 118 OFFCURVE",
"1406 118 CURVE SMOOTH",
"1277 118 OFFCURVE",
"1123 206 OFFCURVE",
"1076 303 CURVE",
"1119 422 OFFCURVE",
"1126 483 OFFCURVE",
"1126 560 CURVE SMOOTH",
"1126 803 OFFCURVE",
"1010 997 OFFCURVE",
"803 1108 CURVE",
"745 974 LINE",
"870 921 OFFCURVE",
"948 779 OFFCURVE",
"948 538 CURVE SMOOTH",
"948 270 OFFCURVE",
"828 118 OFFCURVE",
"608 118 CURVE SMOOTH",
"387 118 OFFCURVE",
"268 269 OFFCURVE",
"268 538 CURVE SMOOTH",
"268 779 OFFCURVE",
"346 921 OFFCURVE",
"471 974 CURVE",
"413 1108 LINE",
"202 995 OFFCURVE",
"90 797 OFFCURVE",
"90 560 CURVE SMOOTH",
"90 451 OFFCURVE",
"112 352 OFFCURVE",
"157 263 CURVE SMOOTH",
"245 85 OFFCURVE",
"412 -20 OFFCURVE",
"608 -20 CURVE SMOOTH"
);
}
);
width = 1998;
}
);
note = uni1A3F;
unicode = 1A3F;
},
{
glyphname = uni1A40;
lastChange = "2016-11-10 14:44:19 +0000";
layers = (
{
layerId = "6FF31E7C-07F6-4791-B014-BC1FF1C32251";
paths = (
{
closed = 1;
nodes = (
"914 -20 OFFCURVE",
"1110 260 OFFCURVE",
"1110 821 CURVE SMOOTH",
"1110 1039 OFFCURVE",
"1116 1200 OFFCURVE",
"1127 1305 CURVE SMOOTH",
"1138 1410 OFFCURVE",
"1156 1485 OFFCURVE",
"1182 1532 CURVE SMOOTH",
"1208 1579 OFFCURVE",
"1246 1602 OFFCURVE",
"1295 1602 CURVE SMOOTH",
"1328 1602 OFFCURVE",
"1358 1597 OFFCURVE",
"1387 1587 CURVE",
"1454 1714 LINE",
"1405 1731 OFFCURVE",
"1363 1740 OFFCURVE",
"1326 1740 CURVE SMOOTH",
"1249 1740 OFFCURVE",
"1181 1707 OFFCURVE",
"1122 1642 CURVE SMOOTH",
"1003 1511 OFFCURVE",
"932 1251 OFFCURVE",
"932 951 CURVE SMOOTH",
"932 745 LINE SMOOTH",
"932 326 OFFCURVE",
"805 118 OFFCURVE",
"522 118 CURVE SMOOTH",
"354 118 OFFCURVE",
"266 199 OFFCURVE",
"266 336 CURVE SMOOTH",
"266 457 OFFCURVE",
"363 527 OFFCURVE",
"527 527 CURVE SMOOTH",
"587 525 LINE",
"587 646 LINE",
"506 646 OFFCURVE",
"444 653 OFFCURVE",
"399 666 CURVE SMOOTH",
"309 693 OFFCURVE",
"266 750 OFFCURVE",
"266 835 CURVE SMOOTH",
"266 922 OFFCURVE",
"341 980 OFFCURVE",
"489 980 CURVE SMOOTH",
"561 980 OFFCURVE",
"657 958 OFFCURVE",
"710 919 CURVE",
"778 1033 LINE",
"703 1084 OFFCURVE",
"582 1118 OFFCURVE",
"470 1118 CURVE SMOOTH",
"395 1118 OFFCURVE",
"328 1106 OFFCURVE",
"271 1082 CURVE SMOOTH",
"156 1033 OFFCURVE",
"90 939 OFFCURVE",
"90 835 CURVE SMOOTH",
"90 724 OFFCURVE",
"139 653 OFFCURVE",
"274 598 CURVE",
"158 546 OFFCURVE",
"90 446 OFFCURVE",
"90 327 CURVE SMOOTH",
"90 258 OFFCURVE",
"108 196 OFFCURVE",
"145 141 CURVE SMOOTH",
"218 32 OFFCURVE",
"350 -20 OFFCURVE",
"521 -20 CURVE SMOOTH"
);
}
);
width = 1254;
}
);
note = uni1A40;
unicode = 1A40;
},
{
glyphname = uni1A41;
lastChange = "2016-11-10 14:44:19 +0000";
layers = (
{
layerId = "6FF31E7C-07F6-4791-B014-BC1FF1C32251";
paths = (
{
closed = 1;
nodes = (
"580 -20 OFFCURVE",
"649 -2 OFFCURVE",
"712 33 CURVE SMOOTH",
"836 104 OFFCURVE",
"912 237 OFFCURVE",
"912 377 CURVE SMOOTH",
"912 533 OFFCURVE",
"815 638 OFFCURVE",
"508 749 CURVE SMOOTH",
"437 775 OFFCURVE",
"388 797 OFFCURVE",
"361 814 CURVE SMOOTH",
"334 831 OFFCURVE",
"321 848 OFFCURVE",
"321 867 CURVE SMOOTH",
"321 938 OFFCURVE",
"424 980 OFFCURVE",
"571 980 CURVE SMOOTH",
"886 980 OFFCURVE",
"1054 799 OFFCURVE",
"1054 464 CURVE SMOOTH",
"1054 333 OFFCURVE",
"1041 219 OFFCURVE",
"997 43 CURVE",
"1139 -20 LINE",
"1198 124 OFFCURVE",
"1232 305 OFFCURVE",
"1232 482 CURVE SMOOTH",
"1232 881 OFFCURVE",
"989 1118 OFFCURVE",
"597 1118 CURVE SMOOTH",
"510 1118 OFFCURVE",
"432 1107 OFFCURVE",
"363 1084 CURVE SMOOTH",
"225 1039 OFFCURVE",
"143 952 OFFCURVE",
"143 863 CURVE SMOOTH",
"143 798 OFFCURVE",
"182 752 OFFCURVE",
"244 714 CURVE SMOOTH",
"275 695 OFFCURVE",
"340 666 OFFCURVE",
"439 629 CURVE SMOOTH",
"530 594 OFFCURVE",
"592 566 OFFCURVE",
"626 544 CURVE SMOOTH",
"694 499 OFFCURVE",
"734 442 OFFCURVE",
"734 365 CURVE SMOOTH",
"734 218 OFFCURVE",
"638 118 OFFCURVE",
"502 118 CURVE SMOOTH",
"354 118 OFFCURVE",
"258 215 OFFCURVE",
"258 363 CURVE SMOOTH",
"258 395 OFFCURVE",
"266 426 OFFCURVE",
"282 455 CURVE",
"144 538 LINE",
"108 487 OFFCURVE",
"90 430 OFFCURVE",
"90 367 CURVE SMOOTH",
"90 138 OFFCURVE",
"264 -20 OFFCURVE",
"505 -20 CURVE SMOOTH"
);
}
);
width = 1322;
}
);
note = uni1A41;
unicode = 1A41;
},
{
glyphname = uni1A42;
lastChange = "2016-11-10 14:44:19 +0000";
layers = (
{
layerId = "6FF31E7C-07F6-4791-B014-BC1FF1C32251";
paths = (
{
closed = 1;
nodes = (
"1185 -542 LINE",
"1170 -498 OFFCURVE",
"1151 -456 OFFCURVE",
"1128 -416 CURVE",
"1203 -318 OFFCURVE",
"1240 -189 OFFCURVE",
"1240 -29 CURVE SMOOTH",
"1240 613 LINE SMOOTH",
"1240 714 OFFCURVE",
"1226 803 OFFCURVE",
"1197 879 CURVE SMOOTH",
"1139 1030 OFFCURVE",
"1029 1118 OFFCURVE",
"905 1118 CURVE SMOOTH",
"790 1118 OFFCURVE",
"709 1066 OFFCURVE",
"663 963 CURVE",
"617 1066 OFFCURVE",
"537 1118 OFFCURVE",
"422 1118 CURVE SMOOTH",
"362 1118 OFFCURVE",
"308 1099 OFFCURVE",
"259 1061 CURVE SMOOTH",
"162 985 OFFCURVE",
"98 840 OFFCURVE",
"90 655 CURVE",
"258 630 LINE",
"261 744 OFFCURVE",
"277 831 OFFCURVE",
"306 891 CURVE SMOOTH",
"335 950 OFFCURVE",
"375 980 OFFCURVE",
"426 980 CURVE SMOOTH",
"522 980 OFFCURVE",
"582 881 OFFCURVE",
"598 708 CURVE",
"729 708 LINE",
"745 880 OFFCURVE",
"804 980 OFFCURVE",
"901 980 CURVE SMOOTH",
"956 980 OFFCURVE",
"998 946 OFFCURVE",
"1027 879 CURVE SMOOTH",
"1056 811 OFFCURVE",
"1070 715 OFFCURVE",
"1070 590 CURVE SMOOTH",
"1070 -48 LINE SMOOTH",
"1070 -159 OFFCURVE",
"1058 -242 OFFCURVE",
"1035 -295 CURVE",
"1029 -290 LINE",
"953 -217 OFFCURVE",
"867 -174 OFFCURVE",
"770 -163 CURVE",
"751 -299 LINE",
"814 -311 OFFCURVE",
"875 -346 OFFCURVE",
"932 -403 CURVE",
"929 -405 LINE",
"891 -423 OFFCURVE",
"841 -432 OFFCURVE",
"779 -432 CURVE SMOOTH",
"534 -432 LINE SMOOTH",
"441 -432 OFFCURVE",
"376 -423 OFFCURVE",
"339 -406 CURVE SMOOTH",
"302 -389 OFFCURVE",
"283 -362 OFFCURVE",
"283 -325 CURVE SMOOTH",
"283 -264 OFFCURVE",
"317 -228 OFFCURVE",
"369 -228 CURVE SMOOTH",
"396 -228 OFFCURVE",
"415 -237 OFFCURVE",
"428 -256 CURVE",
"537 -183 LINE",
"501 -132 OFFCURVE",
"437 -100 OFFCURVE",
"369 -100 CURVE SMOOTH",
"230 -100 OFFCURVE",
"139 -193 OFFCURVE",
"139 -325 CURVE SMOOTH",
"139 -474 OFFCURVE",
"269 -570 OFFCURVE",
"468 -570 CURVE SMOOTH",
"800 -570 LINE SMOOTH",
"879 -570 OFFCURVE",
"948 -553 OFFCURVE",
"1009 -518 CURVE",
"1020 -540 OFFCURVE",
"1029 -563 OFFCURVE",
"1037 -586 CURVE"
);
}
);
width = 1350;
}
);
note = uni1A42;
unicode = 1A42;
},
{
glyphname = uni1A43;
lastChange = "2016-11-10 14:44:19 +0000";
layers = (
{
layerId = "6FF31E7C-07F6-4791-B014-BC1FF1C32251";
paths = (
{
closed = 1;
nodes = (
"646 -20 OFFCURVE",
"746 37 OFFCURVE",
"810 124 CURVE",
"708 215 LINE",
"663 150 OFFCURVE",
"599 118 OFFCURVE",
"518 118 CURVE SMOOTH",
"362 118 OFFCURVE",
"268 288 OFFCURVE",
"268 569 CURVE SMOOTH",
"268 822 OFFCURVE",
"353 980 OFFCURVE",
"493 980 CURVE SMOOTH",
"529 980 OFFCURVE",
"564 964 OFFCURVE",
"597 933 CURVE SMOOTH",
"630 901 OFFCURVE",
"672 836 OFFCURVE",
"724 739 CURVE SMOOTH",
"924 368 LINE SMOOTH",
"981 262 OFFCURVE",
"1030 185 OFFCURVE",
"1070 136 CURVE SMOOTH",
"1150 39 OFFCURVE",
"1240 -20 OFFCURVE",
"1347 -20 CURVE SMOOTH",
"1424 -20 OFFCURVE",
"1493 3 OFFCURVE",
"1554 48 CURVE SMOOTH",
"1677 139 OFFCURVE",
"1749 314 OFFCURVE",
"1749 527 CURVE SMOOTH",
"1749 636 OFFCURVE",
"1730 736 OFFCURVE",
"1691 827 CURVE SMOOTH",
"1614 1009 OFFCURVE",
"1473 1118 OFFCURVE",
"1324 1118 CURVE SMOOTH",
"1193 1118 OFFCURVE",
"1093 1061 OFFCURVE",
"1029 974 CURVE",
"1131 883 LINE",
"1176 948 OFFCURVE",
"1240 980 OFFCURVE",
"1321 980 CURVE SMOOTH",
"1477 980 OFFCURVE",
"1571 810 OFFCURVE",
"1571 529 CURVE SMOOTH",
"1571 442 OFFCURVE",
"1562 368 OFFCURVE",
"1543 306 CURVE SMOOTH",
"1505 182 OFFCURVE",
"1434 118 OFFCURVE",
"1346 118 CURVE SMOOTH",
"1310 118 OFFCURVE",
"1276 134 OFFCURVE",
"1243 166 CURVE SMOOTH",
"1210 198 OFFCURVE",
"1167 262 OFFCURVE",
"1115 359 CURVE SMOOTH",
"915 730 LINE SMOOTH",
"858 836 OFFCURVE",
"809 913 OFFCURVE",
"769 962 CURVE SMOOTH",
"689 1059 OFFCURVE",
"599 1118 OFFCURVE",
"492 1118 CURVE SMOOTH",
"415 1118 OFFCURVE",
"346 1095 OFFCURVE",
"285 1050 CURVE SMOOTH",
"161 959 OFFCURVE",
"90 786 OFFCURVE",
"90 571 CURVE SMOOTH",
"90 462 OFFCURVE",
"109 363 OFFCURVE",
"148 272 CURVE SMOOTH",
"225 90 OFFCURVE",
"366 -20 OFFCURVE",
"515 -20 CURVE SMOOTH"
);
}
);
width = 1839;
}
);
note = uni1A43;
unicode = 1A43;
},
{
glyphname = uni1A44;
lastChange = "2016-11-10 14:44:19 +0000";
layers = (
{
layerId = "6FF31E7C-07F6-4791-B014-BC1FF1C32251";
paths = (
{
closed = 1;
nodes = (
"995 -542 LINE",
"979 -494 OFFCURVE",
"958 -448 OFFCURVE",
"931 -405 CURVE",
"968 -352 OFFCURVE",
"987 -288 OFFCURVE",
"987 -215 CURVE SMOOTH",
"987 -71 OFFCURVE",
"898 48 OFFCURVE",
"733 113 CURVE",
"894 212 OFFCURVE",
"984 373 OFFCURVE",
"984 573 CURVE SMOOTH",
"984 686 OFFCURVE",
"963 784 OFFCURVE",
"922 866 CURVE SMOOTH",
"839 1030 OFFCURVE",
"685 1118 OFFCURVE",
"490 1118 CURVE SMOOTH",
"335 1118 OFFCURVE",
"186 1046 OFFCURVE",
"90 915 CURVE",
"221 839 LINE",
"276 926 OFFCURVE",
"377 980 OFFCURVE",
"481 980 CURVE SMOOTH",
"682 980 OFFCURVE",
"806 830 OFFCURVE",
"806 575 CURVE SMOOTH",
"806 327 OFFCURVE",
"667 168 OFFCURVE",
"436 168 CURVE SMOOTH",
"290 168 OFFCURVE",
"168 131 OFFCURVE",
"70 56 CURVE",
"154 -43 LINE",
"221 2 OFFCURVE",
"341 30 OFFCURVE",
"462 30 CURVE SMOOTH",
"687 30 OFFCURVE",
"827 -60 OFFCURVE",
"827 -209 CURVE SMOOTH",
"827 -231 OFFCURVE",
"825 -252 OFFCURVE",
"820 -272 CURVE",
"747 -210 OFFCURVE",
"667 -174 OFFCURVE",
"580 -163 CURVE",
"561 -299 LINE",
"624 -311 OFFCURVE",
"681 -342 OFFCURVE",
"731 -392 CURVE",
"686 -419 OFFCURVE",
"626 -432 OFFCURVE",
"551 -432 CURVE SMOOTH",
"425 -432 LINE SMOOTH",
"332 -432 OFFCURVE",
"267 -423 OFFCURVE",
"230 -406 CURVE SMOOTH",
"193 -389 OFFCURVE",
"174 -362 OFFCURVE",
"174 -325 CURVE SMOOTH",
"174 -264 OFFCURVE",
"208 -228 OFFCURVE",
"260 -228 CURVE SMOOTH",
"287 -228 OFFCURVE",
"306 -237 OFFCURVE",
"319 -256 CURVE",
"428 -183 LINE",
"392 -132 OFFCURVE",
"328 -100 OFFCURVE",
"260 -100 CURVE SMOOTH",
"121 -100 OFFCURVE",
"30 -193 OFFCURVE",
"30 -325 CURVE SMOOTH",
"30 -474 OFFCURVE",
"160 -570 OFFCURVE",
"359 -570 CURVE SMOOTH",
"587 -570 LINE SMOOTH",
"674 -570 OFFCURVE",
"750 -551 OFFCURVE",
"816 -512 CURVE",
"828 -536 OFFCURVE",
"838 -561 OFFCURVE",
"847 -586 CURVE"
);
}
);
width = 1074;
}
);
note = uni1A44;
unicode = 1A44;
},
{
glyphname = uni1A45;
lastChange = "2016-11-10 14:44:19 +0000";
layers = (
{
layerId = "6FF31E7C-07F6-4791-B014-BC1FF1C32251";
paths = (
{
closed = 1;
nodes = (
"834 -20 OFFCURVE",
"1013 203 OFFCURVE",
"1013 551 CURVE SMOOTH",
"1013 663 OFFCURVE",
"994 762 OFFCURVE",
"957 848 CURVE SMOOTH",
"881 1020 OFFCURVE",
"737 1118 OFFCURVE",
"554 1118 CURVE SMOOTH",
"462 1118 OFFCURVE",
"381 1095 OFFCURVE",
"310 1048 CURVE SMOOTH",
"169 954 OFFCURVE",
"90 772 OFFCURVE",
"90 551 CURVE SMOOTH",
"90 444 OFFCURVE",
"110 347 OFFCURVE",
"149 260 CURVE SMOOTH",
"227 84 OFFCURVE",
"374 -20 OFFCURVE",
"547 -20 CURVE SMOOTH"
);
},
{
closed = 1;
nodes = (
"373 118 OFFCURVE",
"268 283 OFFCURVE",
"268 551 CURVE SMOOTH",
"268 822 OFFCURVE",
"372 980 OFFCURVE",
"549 980 CURVE SMOOTH",
"733 980 OFFCURVE",
"835 826 OFFCURVE",
"835 551 CURVE SMOOTH",
"835 279 OFFCURVE",
"735 118 OFFCURVE",
"552 118 CURVE SMOOTH"
);
}
);
width = 1103;
}
);
note = uni1A45;
unicode = 1A45;
},
{
glyphname = uni1A46;
lastChange = "2016-11-10 14:44:19 +0000";
layers = (
{
layerId = "6FF31E7C-07F6-4791-B014-BC1FF1C32251";
paths = (
{
closed = 1;
nodes = (
"471 124 LINE",
"346 177 OFFCURVE",
"268 319 OFFCURVE",
"268 560 CURVE SMOOTH",
"268 828 OFFCURVE",
"387 980 OFFCURVE",
"608 980 CURVE SMOOTH",
"706 980 OFFCURVE",
"784 950 OFFCURVE",
"842 891 CURVE",
"784 824 OFFCURVE",
"717 783 OFFCURVE",
"642 770 CURVE",
"661 634 LINE",
"754 644 OFFCURVE",
"841 684 OFFCURVE",
"921 754 CURVE",
"939 700 OFFCURVE",
"948 635 OFFCURVE",
"948 560 CURVE SMOOTH",
"948 319 OFFCURVE",
"870 177 OFFCURVE",
"745 124 CURVE",
"803 -10 LINE",
"1011 102 OFFCURVE",
"1126 297 OFFCURVE",
"1126 538 CURVE SMOOTH",
"1126 666 OFFCURVE",
"1094 781 OFFCURVE",
"1029 884 CURVE",
"1078 967 OFFCURVE",
"1108 1054 OFFCURVE",
"1119 1143 CURVE",
"964 1181 LINE",
"959 1124 OFFCURVE",
"943 1066 OFFCURVE",
"917 1009 CURVE",
"825 1082 OFFCURVE",
"722 1118 OFFCURVE",
"608 1118 CURVE SMOOTH",
"510 1118 OFFCURVE",
"421 1093 OFFCURVE",
"342 1044 CURVE SMOOTH",
"183 944 OFFCURVE",
"90 757 OFFCURVE",
"90 538 CURVE SMOOTH",
"90 301 OFFCURVE",
"204 102 OFFCURVE",
"413 -10 CURVE"
);
}
);
width = 1216;
}
);
note = uni1A46;
unicode = 1A46;
},
{
glyphname = uni1A47;
lastChange = "2016-11-10 14:44:19 +0000";
layers = (
{
layerId = "6FF31E7C-07F6-4791-B014-BC1FF1C32251";
paths = (
{
closed = 1;
nodes = (
"1767 -45 LINE",
"1756 44 OFFCURVE",
"1728 126 OFFCURVE",
"1683 203 CURVE",
"1744 301 OFFCURVE",
"1774 421 OFFCURVE",
"1774 563 CURVE SMOOTH",
"1774 677 OFFCURVE",
"1754 775 OFFCURVE",
"1714 858 CURVE SMOOTH",
"1633 1023 OFFCURVE",
"1483 1118 OFFCURVE",
"1314 1118 CURVE SMOOTH",
"1177 1118 OFFCURVE",
"1060 1078 OFFCURVE",
"980 961 CURVE",
"1110 881 LINE",
"1149 941 OFFCURVE",
"1215 980 OFFCURVE",
"1291 980 CURVE SMOOTH",
"1352 980 OFFCURVE",
"1405 964 OFFCURVE",
"1451 931 CURVE SMOOTH",
"1542 866 OFFCURVE",
"1596 738 OFFCURVE",
"1596 565 CURVE SMOOTH",
"1596 484 OFFCURVE",
"1585 411 OFFCURVE",
"1564 347 CURVE",
"1489 414 OFFCURVE",
"1404 453 OFFCURVE",
"1309 464 CURVE",
"1290 328 LINE",
"1363 315 OFFCURVE",
"1429 275 OFFCURVE",
"1487 210 CURVE",
"1430 149 OFFCURVE",
"1359 118 OFFCURVE",
"1272 118 CURVE SMOOTH",
"1141 118 OFFCURVE",
"987 207 OFFCURVE",
"942 303 CURVE",
"970 374 OFFCURVE",
"984 457 OFFCURVE",
"984 553 CURVE SMOOTH",
"984 674 OFFCURVE",
"964 776 OFFCURVE",
"924 861 CURVE SMOOTH",
"843 1030 OFFCURVE",
"691 1118 OFFCURVE",
"490 1118 CURVE SMOOTH",
"335 1118 OFFCURVE",
"186 1046 OFFCURVE",
"90 915 CURVE",
"221 839 LINE",
"276 926 OFFCURVE",
"377 980 OFFCURVE",
"481 980 CURVE SMOOTH",
"684 980 OFFCURVE",
"806 826 OFFCURVE",
"806 555 CURVE SMOOTH",
"806 295 OFFCURVE",
"680 118 OFFCURVE",
"492 118 CURVE SMOOTH",
"355 118 OFFCURVE",
"255 180 OFFCURVE",
"220 300 CURVE",
"60 247 LINE",
"137 80 OFFCURVE",
"283 -20 OFFCURVE",
"483 -20 CURVE SMOOTH",
"628 -20 OFFCURVE",
"749 34 OFFCURVE",
"848 143 CURVE",
"947 36 OFFCURVE",
"1093 -20 OFFCURVE",
"1273 -20 CURVE SMOOTH",
"1387 -20 OFFCURVE",
"1486 12 OFFCURVE",
"1571 76 CURVE",
"1593 24 OFFCURVE",
"1607 -29 OFFCURVE",
"1612 -83 CURVE"
);
}
);
width = 1864;
}
);
note = uni1A47;
unicode = 1A47;
},
{
glyphname = uni1A48;
lastChange = "2016-11-10 14:44:19 +0000";
layers = (
{
layerId = "6FF31E7C-07F6-4791-B014-BC1FF1C32251";
paths = (
{
closed = 1;
nodes = (
"628 -20 OFFCURVE",
"749 34 OFFCURVE",
"848 143 CURVE",
"947 36 OFFCURVE",
"1093 -20 OFFCURVE",
"1273 -20 CURVE SMOOTH",
"1370 -20 OFFCURVE",
"1457 4 OFFCURVE",
"1534 51 CURVE SMOOTH",
"1686 146 OFFCURVE",
"1774 328 OFFCURVE",
"1774 563 CURVE SMOOTH",
"1774 677 OFFCURVE",
"1754 775 OFFCURVE",
"1714 858 CURVE SMOOTH",
"1633 1023 OFFCURVE",
"1483 1118 OFFCURVE",
"1314 1118 CURVE SMOOTH",
"1177 1118 OFFCURVE",
"1060 1078 OFFCURVE",
"980 961 CURVE",
"1110 881 LINE",
"1149 941 OFFCURVE",
"1215 980 OFFCURVE",
"1291 980 CURVE SMOOTH",
"1352 980 OFFCURVE",
"1405 964 OFFCURVE",
"1451 931 CURVE SMOOTH",
"1542 866 OFFCURVE",
"1596 738 OFFCURVE",
"1596 565 CURVE SMOOTH",
"1596 289 OFFCURVE",
"1473 118 OFFCURVE",
"1272 118 CURVE SMOOTH",
"1141 118 OFFCURVE",
"987 207 OFFCURVE",
"942 303 CURVE",
"970 374 OFFCURVE",
"984 457 OFFCURVE",
"984 553 CURVE SMOOTH",
"984 674 OFFCURVE",
"964 776 OFFCURVE",
"924 861 CURVE SMOOTH",
"843 1030 OFFCURVE",
"691 1118 OFFCURVE",
"490 1118 CURVE SMOOTH",
"335 1118 OFFCURVE",
"186 1046 OFFCURVE",
"90 915 CURVE",
"221 839 LINE",
"276 926 OFFCURVE",
"377 980 OFFCURVE",
"481 980 CURVE SMOOTH",
"684 980 OFFCURVE",
"806 826 OFFCURVE",
"806 555 CURVE SMOOTH",
"806 295 OFFCURVE",
"680 118 OFFCURVE",
"492 118 CURVE SMOOTH",
"355 118 OFFCURVE",
"255 180 OFFCURVE",
"220 300 CURVE",
"60 247 LINE",
"137 80 OFFCURVE",
"283 -20 OFFCURVE",
"483 -20 CURVE SMOOTH"
);
}
);
width = 1864;
}
);
note = uni1A48;
unicode = 1A48;
},
{
glyphname = uni1A49;
lastChange = "2016-11-10 14:44:19 +0000";
layers = (
{
layerId = "6FF31E7C-07F6-4791-B014-BC1FF1C32251";
paths = (
{
closed = 1;
nodes = (
"546 -20 OFFCURVE",
"596 -6 OFFCURVE",
"642 22 CURVE SMOOTH",
"733 78 OFFCURVE",
"803 160 OFFCURVE",
"915 368 CURVE SMOOTH",
"1115 739 LINE SMOOTH",
"1168 836 OFFCURVE",
"1210 901 OFFCURVE",
"1243 933 CURVE SMOOTH",
"1276 964 OFFCURVE",
"1310 980 OFFCURVE",
"1346 980 CURVE SMOOTH",
"1391 980 OFFCURVE",
"1430 964 OFFCURVE",
"1464 933 CURVE SMOOTH",
"1531 869 OFFCURVE",
"1571 741 OFFCURVE",
"1571 569 CURVE SMOOTH",
"1571 290 OFFCURVE",
"1477 118 OFFCURVE",
"1321 118 CURVE SMOOTH",
"1240 118 OFFCURVE",
"1176 150 OFFCURVE",
"1131 215 CURVE",
"1029 124 LINE",
"1093 37 OFFCURVE",
"1193 -20 OFFCURVE",
"1324 -20 CURVE SMOOTH",
"1399 -20 OFFCURVE",
"1470 6 OFFCURVE",
"1535 58 CURVE SMOOTH",
"1666 161 OFFCURVE",
"1749 355 OFFCURVE",
"1749 571 CURVE SMOOTH",
"1749 678 OFFCURVE",
"1732 774 OFFCURVE",
"1698 857 CURVE SMOOTH",
"1629 1024 OFFCURVE",
"1500 1118 OFFCURVE",
"1347 1118 CURVE SMOOTH",
"1293 1118 OFFCURVE",
"1243 1104 OFFCURVE",
"1198 1076 CURVE SMOOTH",
"1106 1020 OFFCURVE",
"1036 938 OFFCURVE",
"924 730 CURVE SMOOTH",
"724 359 LINE SMOOTH",
"672 262 OFFCURVE",
"630 198 OFFCURVE",
"597 166 CURVE SMOOTH",
"564 134 OFFCURVE",
"529 118 OFFCURVE",
"493 118 CURVE SMOOTH",
"354 118 OFFCURVE",
"268 276 OFFCURVE",
"268 529 CURVE SMOOTH",
"268 808 OFFCURVE",
"362 980 OFFCURVE",
"518 980 CURVE SMOOTH",
"599 980 OFFCURVE",
"663 948 OFFCURVE",
"708 883 CURVE",
"810 974 LINE",
"746 1061 OFFCURVE",
"646 1118 OFFCURVE",
"515 1118 CURVE SMOOTH",
"440 1118 OFFCURVE",
"369 1092 OFFCURVE",
"304 1041 CURVE SMOOTH",
"173 937 OFFCURVE",
"90 743 OFFCURVE",
"90 527 CURVE SMOOTH",
"90 421 OFFCURVE",
"107 326 OFFCURVE",
"141 243 CURVE SMOOTH",
"208 75 OFFCURVE",
"337 -20 OFFCURVE",
"492 -20 CURVE SMOOTH"
);
}
);
width = 1839;
}
);
note = uni1A49;
unicode = 1A49;
},
{
glyphname = uni1A4A;
lastChange = "2016-11-10 14:44:19 +0000";
layers = (
{
layerId = "6FF31E7C-07F6-4791-B014-BC1FF1C32251";
paths = (
{
closed = 1;
nodes = (
"802 -570 LINE SMOOTH",
"999 -570 OFFCURVE",
"1131 -474 OFFCURVE",
"1131 -325 CURVE SMOOTH",
"1131 -192 OFFCURVE",
"1040 -100 OFFCURVE",
"901 -100 CURVE SMOOTH",
"832 -100 OFFCURVE",
"768 -132 OFFCURVE",
"733 -183 CURVE",
"842 -256 LINE",
"855 -237 OFFCURVE",
"874 -228 OFFCURVE",
"901 -228 CURVE SMOOTH",
"953 -228 OFFCURVE",
"987 -265 OFFCURVE",
"987 -325 CURVE SMOOTH",
"987 -362 OFFCURVE",
"968 -389 OFFCURVE",
"931 -406 CURVE SMOOTH",
"894 -423 OFFCURVE",
"829 -432 OFFCURVE",
"736 -432 CURVE SMOOTH",
"551 -432 LINE SMOOTH",
"479 -432 OFFCURVE",
"422 -419 OFFCURVE",
"380 -394 CURVE SMOOTH",
"296 -343 OFFCURVE",
"260 -253 OFFCURVE",
"260 -48 CURVE SMOOTH",
"260 21 LINE",
"319 -6 OFFCURVE",
"385 -20 OFFCURVE",
"456 -20 CURVE SMOOTH",
"559 -20 OFFCURVE",
"708 9 OFFCURVE",
"767 49 CURVE",
"706 172 LINE",
"657 139 OFFCURVE",
"546 118 OFFCURVE",
"474 118 CURVE SMOOTH",
"350 118 OFFCURVE",
"268 185 OFFCURVE",
"268 306 CURVE SMOOTH",
"268 419 OFFCURVE",
"371 493 OFFCURVE",
"550 510 CURVE",
"550 607 LINE",
"373 624 OFFCURVE",
"268 695 OFFCURVE",
"268 796 CURVE SMOOTH",
"268 829 OFFCURVE",
"280 860 OFFCURVE",
"305 889 CURVE SMOOTH",
"354 945 OFFCURVE",
"452 980 OFFCURVE",
"585 980 CURVE SMOOTH",
"862 980 OFFCURVE",
"1024 799 OFFCURVE",
"1024 495 CURVE SMOOTH",
"1024 304 OFFCURVE",
"1010 203 OFFCURVE",
"967 43 CURVE",
"1106 -20 LINE",
"1163 99 OFFCURVE",
"1202 312 OFFCURVE",
"1202 499 CURVE SMOOTH",
"1202 622 OFFCURVE",
"1177 730 OFFCURVE",
"1127 824 CURVE SMOOTH",
"1026 1012 OFFCURVE",
"831 1118 OFFCURVE",
"580 1118 CURVE SMOOTH",
"299 1118 OFFCURVE",
"90 987 OFFCURVE",
"90 799 CURVE SMOOTH",
"90 696 OFFCURVE",
"171 603 OFFCURVE",
"294 559 CURVE",
"163 502 OFFCURVE",
"90 406 OFFCURVE",
"90 307 CURVE SMOOTH",
"90 -29 LINE SMOOTH",
"90 -364 OFFCURVE",
"261 -570 OFFCURVE",
"530 -570 CURVE SMOOTH"
);
}
);
width = 1292;
}
);
note = uni1A4A;
unicode = 1A4A;
},
{
glyphname = uni1A4B;
lastChange = "2016-11-10 14:44:19 +0000";
layers = (
{
layerId = "6FF31E7C-07F6-4791-B014-BC1FF1C32251";
paths = (
{
closed = 1;
nodes = (
"1719 -20 LINE",
"1706 87 OFFCURVE",
"1680 179 OFFCURVE",
"1641 256 CURVE",
"1695 360 OFFCURVE",
"1722 472 OFFCURVE",
"1722 591 CURVE SMOOTH",
"1722 910 OFFCURVE",
"1528 1118 OFFCURVE",
"1223 1118 CURVE SMOOTH",
"1110 1118 OFFCURVE",
"1011 1086 OFFCURVE",
"925 1023 CURVE",
"831 1086 OFFCURVE",
"709 1118 OFFCURVE",
"560 1118 CURVE SMOOTH",
"284 1118 OFFCURVE",
"90 991 OFFCURVE",
"90 799 CURVE SMOOTH",
"90 696 OFFCURVE",
"171 603 OFFCURVE",
"294 559 CURVE",
"163 502 OFFCURVE",
"90 406 OFFCURVE",
"90 307 CURVE SMOOTH",
"90 102 OFFCURVE",
"245 -20 OFFCURVE",
"490 -20 CURVE SMOOTH",
"637 -20 OFFCURVE",
"782 31 OFFCURVE",
"886 114 CURVE",
"946 29 OFFCURVE",
"1061 -20 OFFCURVE",
"1216 -20 CURVE SMOOTH",
"1338 -20 OFFCURVE",
"1445 25 OFFCURVE",
"1537 115 CURVE",
"1551 68 OFFCURVE",
"1560 13 OFFCURVE",
"1565 -50 CURVE"
);
},
{
closed = 1;
nodes = (
"352 118 OFFCURVE",
"268 175 OFFCURVE",
"268 306 CURVE SMOOTH",
"268 419 OFFCURVE",
"371 493 OFFCURVE",
"550 510 CURVE",
"550 607 LINE",
"373 624 OFFCURVE",
"268 695 OFFCURVE",
"268 796 CURVE SMOOTH",
"268 913 OFFCURVE",
"382 980 OFFCURVE",
"565 980 CURVE SMOOTH",
"672 980 OFFCURVE",
"760 958 OFFCURVE",
"828 913 CURVE",
"875 874 OFFCURVE",
"901 852 OFFCURVE",
"907 847 CURVE",
"912 842 OFFCURVE",
"918 836 OFFCURVE",
"924 830 CURVE",
"1003 930 OFFCURVE",
"1096 980 OFFCURVE",
"1205 980 CURVE SMOOTH",
"1430 980 OFFCURVE",
"1544 837 OFFCURVE",
"1544 581 CURVE SMOOTH",
"1544 516 OFFCURVE",
"1539 458 OFFCURVE",
"1528 407 CURVE",
"1520 414 LINE SMOOTH",
"1433 489 OFFCURVE",
"1323 526 OFFCURVE",
"1190 526 CURVE SMOOTH",
"1126 526 OFFCURVE",
"1069 514 OFFCURVE",
"1019 491 CURVE SMOOTH",
"918 444 OFFCURVE",
"858 359 OFFCURVE",
"849 256 CURVE",
"844 252 LINE",
"757 171 OFFCURVE",
"634 118 OFFCURVE",
"523 118 CURVE SMOOTH"
);
},
{
closed = 1;
nodes = (
"1082 118 OFFCURVE",
"1017 169 OFFCURVE",
"1017 249 CURVE SMOOTH",
"1017 332 OFFCURVE",
"1082 388 OFFCURVE",
"1215 388 CURVE SMOOTH",
"1320 388 OFFCURVE",
"1410 344 OFFCURVE",
"1471 255 CURVE",
"1422 170 OFFCURVE",
"1334 118 OFFCURVE",
"1225 118 CURVE SMOOTH"
);
}
);
width = 1812;
}
);
note = uni1A4B;
unicode = 1A4B;
},
{
glyphname = uni1A4C;
lastChange = "2016-11-10 14:44:19 +0000";
layers = (
{
layerId = "6FF31E7C-07F6-4791-B014-BC1FF1C32251";
paths = (
{
closed = 1;
nodes = (
"1308 -570 LINE SMOOTH",
"1577 -570 OFFCURVE",
"1748 -362 OFFCURVE",
"1748 -29 CURVE SMOOTH",
"1748 526 LINE",
"1749 571 LINE SMOOTH",
"1749 678 OFFCURVE",
"1732 774 OFFCURVE",
"1698 857 CURVE SMOOTH",
"1629 1024 OFFCURVE",
"1500 1118 OFFCURVE",
"1347 1118 CURVE SMOOTH",
"1293 1118 OFFCURVE",
"1243 1104 OFFCURVE",
"1198 1076 CURVE SMOOTH",
"1106 1020 OFFCURVE",
"1036 938 OFFCURVE",
"924 730 CURVE SMOOTH",
"724 359 LINE SMOOTH",
"672 262 OFFCURVE",
"630 198 OFFCURVE",
"597 166 CURVE SMOOTH",
"564 134 OFFCURVE",
"529 118 OFFCURVE",
"493 118 CURVE SMOOTH",
"354 118 OFFCURVE",
"268 276 OFFCURVE",
"268 529 CURVE SMOOTH",
"268 808 OFFCURVE",
"362 980 OFFCURVE",
"518 980 CURVE SMOOTH",
"599 980 OFFCURVE",
"663 948 OFFCURVE",
"708 883 CURVE",
"810 974 LINE",
"746 1061 OFFCURVE",
"646 1118 OFFCURVE",
"515 1118 CURVE SMOOTH",
"440 1118 OFFCURVE",
"369 1092 OFFCURVE",
"304 1041 CURVE SMOOTH",
"173 937 OFFCURVE",
"90 743 OFFCURVE",
"90 527 CURVE SMOOTH",
"90 421 OFFCURVE",
"107 326 OFFCURVE",
"141 243 CURVE SMOOTH",
"208 75 OFFCURVE",
"337 -20 OFFCURVE",
"492 -20 CURVE SMOOTH",
"546 -20 OFFCURVE",
"596 -6 OFFCURVE",
"642 22 CURVE SMOOTH",
"733 78 OFFCURVE",
"803 160 OFFCURVE",
"915 368 CURVE SMOOTH",
"1115 739 LINE SMOOTH",
"1168 836 OFFCURVE",
"1210 901 OFFCURVE",
"1243 933 CURVE SMOOTH",
"1276 964 OFFCURVE",
"1310 980 OFFCURVE",
"1346 980 CURVE SMOOTH",
"1391 980 OFFCURVE",
"1430 964 OFFCURVE",
"1464 933 CURVE SMOOTH",
"1531 869 OFFCURVE",
"1571 741 OFFCURVE",
"1571 569 CURVE SMOOTH",
"1571 290 OFFCURVE",
"1477 118 OFFCURVE",
"1321 118 CURVE SMOOTH",
"1240 118 OFFCURVE",
"1176 150 OFFCURVE",
"1131 215 CURVE",
"1029 124 LINE",
"1093 37 OFFCURVE",
"1193 -20 OFFCURVE",
"1324 -20 CURVE SMOOTH",
"1416 -20 OFFCURVE",
"1501 19 OFFCURVE",
"1578 96 CURVE",
"1578 -48 LINE SMOOTH",
"1578 -152 OFFCURVE",
"1568 -229 OFFCURVE",
"1549 -280 CURVE SMOOTH",
"1510 -382 OFFCURVE",
"1430 -432 OFFCURVE",
"1287 -432 CURVE SMOOTH",
"1102 -432 LINE SMOOTH",
"1009 -432 OFFCURVE",
"944 -423 OFFCURVE",
"907 -406 CURVE SMOOTH",
"870 -389 OFFCURVE",
"851 -362 OFFCURVE",
"851 -325 CURVE SMOOTH",
"851 -264 OFFCURVE",
"885 -228 OFFCURVE",
"937 -228 CURVE SMOOTH",
"964 -228 OFFCURVE",
"983 -237 OFFCURVE",
"996 -256 CURVE",
"1105 -183 LINE",
"1069 -132 OFFCURVE",
"1005 -100 OFFCURVE",
"937 -100 CURVE SMOOTH",
"798 -100 OFFCURVE",
"707 -193 OFFCURVE",
"707 -325 CURVE SMOOTH",
"707 -474 OFFCURVE",
"837 -570 OFFCURVE",
"1036 -570 CURVE SMOOTH"
);
}
);
width = 1839;
}
);
note = uni1A4C;
unicode = 1A4C;
},
{
glyphname = uni1A4D;
lastChange = "2016-11-10 14:44:19 +0000";
layers = (
{
layerId = "6FF31E7C-07F6-4791-B014-BC1FF1C32251";
paths = (
{
closed = 1;
nodes = (
"454 99 LINE",
"335 199 OFFCURVE",
"268 375 OFFCURVE",
"268 590 CURVE SMOOTH",
"268 714 OFFCURVE",
"282 810 OFFCURVE",
"311 878 CURVE SMOOTH",
"339 946 OFFCURVE",
"381 980 OFFCURVE",
"436 980 CURVE SMOOTH",
"532 980 OFFCURVE",
"592 881 OFFCURVE",
"608 708 CURVE",
"739 708 LINE",
"755 880 OFFCURVE",
"814 980 OFFCURVE",
"911 980 CURVE SMOOTH",
"966 980 OFFCURVE",
"1008 946 OFFCURVE",
"1037 877 CURVE SMOOTH",
"1065 808 OFFCURVE",
"1079 713 OFFCURVE",
"1079 590 CURVE SMOOTH",
"1079 375 OFFCURVE",
"1012 198 OFFCURVE",
"893 99 CURVE",
"962 -20 LINE",
"1149 113 OFFCURVE",
"1257 352 OFFCURVE",
"1257 613 CURVE SMOOTH",
"1257 714 OFFCURVE",
"1242 802 OFFCURVE",
"1212 879 CURVE SMOOTH",
"1152 1031 OFFCURVE",
"1040 1118 OFFCURVE",
"915 1118 CURVE SMOOTH",
"800 1118 OFFCURVE",
"719 1066 OFFCURVE",
"673 963 CURVE",
"627 1066 OFFCURVE",
"547 1118 OFFCURVE",
"432 1118 CURVE SMOOTH",
"370 1118 OFFCURVE",
"313 1097 OFFCURVE",
"260 1056 CURVE SMOOTH",
"154 972 OFFCURVE",
"90 814 OFFCURVE",
"90 613 CURVE SMOOTH",
"90 353 OFFCURVE",
"197 115 OFFCURVE",
"385 -20 CURVE"
);
},
{
closed = 1;
nodes = (
"644 -600 OFFCURVE",
"742 -533 OFFCURVE",
"742 -440 CURVE SMOOTH",
"742 -353 OFFCURVE",
"655 -292 OFFCURVE",
"528 -292 CURVE SMOOTH",
"512 -292 LINE",
"495 -294 LINE",
"512 -398 LINE",
"525 -397 LINE",
"577 -397 OFFCURVE",
"603 -411 OFFCURVE",
"603 -439 CURVE SMOOTH",
"603 -462 OFFCURVE",
"562 -476 OFFCURVE",
"515 -476 CURVE SMOOTH",
"414 -476 OFFCURVE",
"366 -431 OFFCURVE",
"366 -366 CURVE SMOOTH",
"366 -316 OFFCURVE",
"390 -279 OFFCURVE",
"438 -254 CURVE SMOOTH",
"486 -230 OFFCURVE",
"564 -218 OFFCURVE",
"671 -218 CURVE SMOOTH",
"872 -218 OFFCURVE",
"973 -267 OFFCURVE",
"973 -366 CURVE SMOOTH",
"973 -434 OFFCURVE",
"916 -487 OFFCURVE",
"832 -495 CURVE",
"871 -600 LINE",
"924 -593 OFFCURVE",
"969 -577 OFFCURVE",
"1006 -554 CURVE SMOOTH",
"1081 -507 OFFCURVE",
"1123 -439 OFFCURVE",
"1123 -370 CURVE SMOOTH",
"1123 -312 OFFCURVE",
"1104 -261 OFFCURVE",
"1067 -217 CURVE SMOOTH",
"991 -130 OFFCURVE",
"854 -90 OFFCURVE",
"670 -90 CURVE SMOOTH",
"571 -90 OFFCURVE",
"488 -102 OFFCURVE",
"421 -127 CURVE SMOOTH",
"288 -176 OFFCURVE",
"216 -263 OFFCURVE",
"216 -370 CURVE SMOOTH",
"216 -510 OFFCURVE",
"327 -600 OFFCURVE",
"507 -600 CURVE SMOOTH"
);
}
);
width = 1347;
}
);
note = uni1A4D;
unicode = 1A4D;
},
{
glyphname = uni1A4E;
lastChange = "2016-11-10 14:44:19 +0000";
layers = (
{
layerId = "6FF31E7C-07F6-4791-B014-BC1FF1C32251";
paths = (
{
closed = 1;
nodes = (
"454 99 LINE",
"335 199 OFFCURVE",
"268 375 OFFCURVE",
"268 590 CURVE SMOOTH",
"268 714 OFFCURVE",
"282 810 OFFCURVE",
"311 878 CURVE SMOOTH",
"339 946 OFFCURVE",
"381 980 OFFCURVE",
"436 980 CURVE SMOOTH",
"532 980 OFFCURVE",
"592 881 OFFCURVE",
"608 708 CURVE",
"739 708 LINE",
"755 880 OFFCURVE",
"814 980 OFFCURVE",
"911 980 CURVE SMOOTH",
"966 980 OFFCURVE",
"1008 946 OFFCURVE",
"1037 877 CURVE SMOOTH",
"1065 808 OFFCURVE",
"1079 713 OFFCURVE",
"1079 590 CURVE SMOOTH",
"1079 375 OFFCURVE",
"1012 198 OFFCURVE",
"893 99 CURVE",
"962 -20 LINE",
"1149 113 OFFCURVE",
"1257 352 OFFCURVE",
"1257 613 CURVE SMOOTH",
"1257 714 OFFCURVE",
"1242 802 OFFCURVE",
"1212 879 CURVE SMOOTH",
"1152 1031 OFFCURVE",
"1040 1118 OFFCURVE",
"915 1118 CURVE SMOOTH",
"800 1118 OFFCURVE",
"719 1066 OFFCURVE",
"673 963 CURVE",
"627 1066 OFFCURVE",
"547 1118 OFFCURVE",
"432 1118 CURVE SMOOTH",
"370 1118 OFFCURVE",
"313 1097 OFFCURVE",
"260 1056 CURVE SMOOTH",
"154 972 OFFCURVE",
"90 814 OFFCURVE",
"90 613 CURVE SMOOTH",
"90 353 OFFCURVE",
"197 115 OFFCURVE",
"385 -20 CURVE"
);
},
{
closed = 1;
nodes = (
"644 -600 OFFCURVE",
"742 -533 OFFCURVE",
"742 -440 CURVE SMOOTH",
"742 -353 OFFCURVE",
"655 -292 OFFCURVE",
"528 -292 CURVE SMOOTH",
"512 -292 LINE",
"495 -294 LINE",
"512 -398 LINE",
"525 -397 LINE",
"577 -397 OFFCURVE",
"603 -411 OFFCURVE",
"603 -439 CURVE SMOOTH",
"603 -462 OFFCURVE",
"562 -476 OFFCURVE",
"515 -476 CURVE SMOOTH",
"414 -476 OFFCURVE",
"366 -431 OFFCURVE",
"366 -366 CURVE SMOOTH",
"366 -316 OFFCURVE",
"390 -279 OFFCURVE",
"438 -254 CURVE SMOOTH",
"486 -230 OFFCURVE",
"564 -218 OFFCURVE",
"671 -218 CURVE SMOOTH",
"872 -218 OFFCURVE",
"973 -267 OFFCURVE",
"973 -366 CURVE SMOOTH",
"973 -434 OFFCURVE",
"916 -487 OFFCURVE",
"832 -495 CURVE",
"871 -600 LINE",
"924 -593 OFFCURVE",
"969 -577 OFFCURVE",
"1006 -554 CURVE SMOOTH",
"1081 -507 OFFCURVE",
"1123 -439 OFFCURVE",
"1123 -370 CURVE SMOOTH",
"1123 -312 OFFCURVE",
"1104 -261 OFFCURVE",
"1067 -217 CURVE SMOOTH",
"991 -130 OFFCURVE",
"854 -90 OFFCURVE",
"670 -90 CURVE SMOOTH",
"571 -90 OFFCURVE",
"488 -102 OFFCURVE",
"421 -127 CURVE SMOOTH",
"288 -176 OFFCURVE",
"216 -263 OFFCURVE",
"216 -370 CURVE SMOOTH",
"216 -510 OFFCURVE",
"327 -600 OFFCURVE",
"507 -600 CURVE SMOOTH"
);
},
{
closed = 1;
nodes = (
"1560 20 LINE",
"1560 830 LINE SMOOTH",
"1560 901 OFFCURVE",
"1550 963 OFFCURVE",
"1531 1017 CURVE SMOOTH",
"1491 1124 OFFCURVE",
"1428 1191 OFFCURVE",
"1275 1280 CURVE SMOOTH",
"1182 1332 OFFCURVE",
"1143 1377 OFFCURVE",
"1143 1436 CURVE SMOOTH",
"1143 1547 OFFCURVE",
"1209 1602 OFFCURVE",
"1341 1602 CURVE SMOOTH",
"1449 1602 OFFCURVE",
"1534 1568 OFFCURVE",
"1597 1501 CURVE",
"1720 1592 LINE",
"1621 1691 OFFCURVE",
"1499 1740 OFFCURVE",
"1353 1740 CURVE SMOOTH",
"1288 1740 OFFCURVE",
"1226 1725 OFFCURVE",
"1167 1695 CURVE SMOOTH",
"1047 1634 OFFCURVE",
"965 1525 OFFCURVE",
"965 1436 CURVE SMOOTH",
"965 1336 OFFCURVE",
"1011 1265 OFFCURVE",
"1100 1212 CURVE SMOOTH",
"1178 1166 LINE SMOOTH",
"1237 1131 OFFCURVE",
"1280 1098 OFFCURVE",
"1306 1068 CURVE SMOOTH",
"1358 1007 OFFCURVE",
"1390 925 OFFCURVE",
"1390 812 CURVE SMOOTH",
"1390 0 LINE"
);
}
);
width = 1660;
}
);
note = uni1A4E;
unicode = 1A4E;
},
{
glyphname = uni1A4F;
lastChange = "2016-11-10 14:44:19 +0000";
layers = (
{
layerId = "6FF31E7C-07F6-4791-B014-BC1FF1C32251";
paths = (
{
closed = 1;
nodes = (
"567 -590 OFFCURVE",
"671 -568 OFFCURVE",
"735 -539 CURVE",
"615 -417 LINE",
"567 -440 OFFCURVE",
"519 -452 OFFCURVE",
"470 -452 CURVE SMOOTH",
"363 -452 OFFCURVE",
"308 -395 OFFCURVE",
"279 -260 CURVE SMOOTH",
"264 -193 OFFCURVE",
"255 -86 OFFCURVE",
"251 59 CURVE",
"321 6 OFFCURVE",
"398 -20 OFFCURVE",
"483 -20 CURVE SMOOTH",
"576 -20 OFFCURVE",
"662 4 OFFCURVE",
"739 51 CURVE SMOOTH",
"893 145 OFFCURVE",
"984 322 OFFCURVE",
"984 553 CURVE SMOOTH",
"984 674 OFFCURVE",
"964 776 OFFCURVE",
"924 861 CURVE SMOOTH",
"843 1030 OFFCURVE",
"691 1118 OFFCURVE",
"490 1118 CURVE SMOOTH",
"335 1118 OFFCURVE",
"186 1046 OFFCURVE",
"90 915 CURVE",
"221 839 LINE",
"276 926 OFFCURVE",
"377 980 OFFCURVE",
"481 980 CURVE SMOOTH",
"684 980 OFFCURVE",
"806 826 OFFCURVE",
"806 555 CURVE SMOOTH",
"806 295 OFFCURVE",
"680 118 OFFCURVE",
"492 118 CURVE SMOOTH",
"392 118 OFFCURVE",
"283 194 OFFCURVE",
"250 282 CURVE",
"250 290 LINE",
"72 320 LINE",
"72 194 LINE SMOOTH",
"72 -293 OFFCURVE",
"224 -590 OFFCURVE",
"496 -590 CURVE SMOOTH"
);
}
);
width = 1074;
}
);
note = uni1A4F;
unicode = 1A4F;
},
{
glyphname = uni1A50;
lastChange = "2016-11-10 14:44:19 +0000";
layers = (
{
layerId = "6FF31E7C-07F6-4791-B014-BC1FF1C32251";
paths = (
{
closed = 1;
nodes = (
"567 -590 OFFCURVE",
"671 -568 OFFCURVE",
"735 -539 CURVE",
"615 -417 LINE",
"567 -440 OFFCURVE",
"519 -452 OFFCURVE",
"470 -452 CURVE SMOOTH",
"363 -452 OFFCURVE",
"308 -395 OFFCURVE",
"279 -260 CURVE SMOOTH",
"264 -193 OFFCURVE",
"255 -86 OFFCURVE",
"251 59 CURVE",
"321 6 OFFCURVE",
"398 -20 OFFCURVE",
"483 -20 CURVE SMOOTH",
"576 -20 OFFCURVE",
"662 4 OFFCURVE",
"739 51 CURVE SMOOTH",
"893 145 OFFCURVE",
"984 322 OFFCURVE",
"984 553 CURVE SMOOTH",
"984 674 OFFCURVE",
"964 776 OFFCURVE",
"924 861 CURVE SMOOTH",
"843 1030 OFFCURVE",
"691 1118 OFFCURVE",
"490 1118 CURVE SMOOTH",
"414 1118 OFFCURVE",
"337 1095 OFFCURVE",
"259 1048 CURVE",
"262 1188 OFFCURVE",
"269 1289 OFFCURVE",
"282 1350 CURVE SMOOTH",
"294 1411 OFFCURVE",
"312 1460 OFFCURVE",
"336 1497 CURVE SMOOTH",
"384 1571 OFFCURVE",
"450 1602 OFFCURVE",
"551 1602 CURVE SMOOTH",
"655 1602 OFFCURVE",
"764 1546 OFFCURVE",
"811 1461 CURVE",
"944 1564 LINE",
"851 1681 OFFCURVE",
"729 1740 OFFCURVE",
"577 1740 CURVE SMOOTH",
"247 1740 OFFCURVE",
"82 1446 OFFCURVE",
"82 858 CURVE",
"259 842 LINE",
"287 929 OFFCURVE",
"365 980 OFFCURVE",
"481 980 CURVE SMOOTH",
"684 980 OFFCURVE",
"806 826 OFFCURVE",
"806 555 CURVE SMOOTH",
"806 295 OFFCURVE",
"680 118 OFFCURVE",
"492 118 CURVE SMOOTH",
"392 118 OFFCURVE",
"283 194 OFFCURVE",
"250 282 CURVE",
"250 290 LINE",
"72 320 LINE",
"72 194 LINE SMOOTH",
"72 -293 OFFCURVE",
"224 -590 OFFCURVE",
"496 -590 CURVE SMOOTH"
);
}
);
width = 1074;
}
);
note = uni1A50;
unicode = 1A50;
},
{
glyphname = uni1A51;
lastChange = "2016-11-10 14:44:19 +0000";
layers = (
{
layerId = "6FF31E7C-07F6-4791-B014-BC1FF1C32251";
paths = (
{
closed = 1;
nodes = (
"802 -570 LINE SMOOTH",
"999 -570 OFFCURVE",
"1131 -474 OFFCURVE",
"1131 -325 CURVE SMOOTH",
"1131 -192 OFFCURVE",
"1040 -100 OFFCURVE",
"901 -100 CURVE SMOOTH",
"832 -100 OFFCURVE",
"768 -132 OFFCURVE",
"733 -183 CURVE",
"842 -256 LINE",
"855 -237 OFFCURVE",
"874 -228 OFFCURVE",
"901 -228 CURVE SMOOTH",
"953 -228 OFFCURVE",
"987 -265 OFFCURVE",
"987 -325 CURVE SMOOTH",
"987 -362 OFFCURVE",
"968 -389 OFFCURVE",
"931 -406 CURVE SMOOTH",
"894 -423 OFFCURVE",
"829 -432 OFFCURVE",
"736 -432 CURVE SMOOTH",
"551 -432 LINE SMOOTH",
"479 -432 OFFCURVE",
"422 -419 OFFCURVE",
"380 -394 CURVE SMOOTH",
"296 -343 OFFCURVE",
"260 -253 OFFCURVE",
"260 -48 CURVE SMOOTH",
"260 235 LINE SMOOTH",
"260 454 OFFCURVE",
"271 611 OFFCURVE",
"294 707 CURVE SMOOTH",
"339 899 OFFCURVE",
"438 980 OFFCURVE",
"639 980 CURVE SMOOTH",
"754 980 OFFCURVE",
"863 924 OFFCURVE",
"919 839 CURVE",
"1032 942 LINE",
"944 1054 OFFCURVE",
"798 1118 OFFCURVE",
"634 1118 CURVE SMOOTH",
"299 1118 OFFCURVE",
"90 874 OFFCURVE",
"90 435 CURVE SMOOTH",
"90 -29 LINE SMOOTH",
"90 -364 OFFCURVE",
"261 -570 OFFCURVE",
"530 -570 CURVE SMOOTH"
);
}
);
width = 1221;
}
);
note = uni1A51;
unicode = 1A51;
},
{
glyphname = uni1A52;
lastChange = "2016-11-10 14:44:19 +0000";
layers = (
{
layerId = "6FF31E7C-07F6-4791-B014-BC1FF1C32251";
paths = (
{
closed = 1;
nodes = (
"2119 -20 LINE",
"2106 87 OFFCURVE",
"2080 179 OFFCURVE",
"2041 256 CURVE",
"2095 360 OFFCURVE",
"2122 472 OFFCURVE",
"2122 591 CURVE SMOOTH",
"2122 910 OFFCURVE",
"1928 1118 OFFCURVE",
"1623 1118 CURVE SMOOTH",
"1510 1118 OFFCURVE",
"1411 1086 OFFCURVE",
"1325 1023 CURVE",
"1231 1086 OFFCURVE",
"1109 1118 OFFCURVE",
"960 1118 CURVE SMOOTH",
"684 1118 OFFCURVE",
"490 991 OFFCURVE",
"490 799 CURVE SMOOTH",
"490 696 OFFCURVE",
"571 603 OFFCURVE",
"694 559 CURVE",
"563 502 OFFCURVE",
"490 406 OFFCURVE",
"490 307 CURVE SMOOTH",
"490 102 OFFCURVE",
"645 -20 OFFCURVE",
"890 -20 CURVE SMOOTH",
"1037 -20 OFFCURVE",
"1182 31 OFFCURVE",
"1286 114 CURVE",
"1346 29 OFFCURVE",
"1461 -20 OFFCURVE",
"1616 -20 CURVE SMOOTH",
"1738 -20 OFFCURVE",
"1845 25 OFFCURVE",
"1937 115 CURVE",
"1951 68 OFFCURVE",
"1960 13 OFFCURVE",
"1965 -50 CURVE"
);
},
{
closed = 1;
nodes = (
"650 -570 OFFCURVE",
"708 -561 OFFCURVE",
"764 -544 CURVE",
"719 -404 LINE",
"670 -421 OFFCURVE",
"625 -430 OFFCURVE",
"583 -430 CURVE SMOOTH",
"414 -430 OFFCURVE",
"300 -300 OFFCURVE",
"300 -107 CURVE SMOOTH",
"300 1553 LINE SMOOTH",
"300 1745 OFFCURVE",
"414 1876 OFFCURVE",
"583 1876 CURVE SMOOTH",
"625 1876 OFFCURVE",
"670 1867 OFFCURVE",
"719 1850 CURVE",
"764 1990 LINE",
"708 2007 OFFCURVE",
"650 2016 OFFCURVE",
"591 2016 CURVE SMOOTH",
"502 2016 OFFCURVE",
"423 1995 OFFCURVE",
"352 1954 CURVE SMOOTH",
"211 1870 OFFCURVE",
"130 1709 OFFCURVE",
"130 1520 CURVE SMOOTH",
"130 -74 LINE SMOOTH",
"130 -168 OFFCURVE",
"149 -253 OFFCURVE",
"188 -329 CURVE SMOOTH",
"265 -482 OFFCURVE",
"412 -570 OFFCURVE",
"591 -570 CURVE SMOOTH"
);
},
{
closed = 1;
nodes = (
"752 118 OFFCURVE",
"668 175 OFFCURVE",
"668 306 CURVE SMOOTH",
"668 419 OFFCURVE",
"771 493 OFFCURVE",
"950 510 CURVE",
"950 607 LINE",
"773 624 OFFCURVE",
"668 695 OFFCURVE",
"668 796 CURVE SMOOTH",
"668 913 OFFCURVE",
"782 980 OFFCURVE",
"965 980 CURVE SMOOTH",
"1072 980 OFFCURVE",
"1160 958 OFFCURVE",
"1228 913 CURVE",
"1275 874 OFFCURVE",
"1301 852 OFFCURVE",
"1307 847 CURVE",
"1312 842 OFFCURVE",
"1318 836 OFFCURVE",
"1324 830 CURVE",
"1403 930 OFFCURVE",
"1496 980 OFFCURVE",
"1605 980 CURVE SMOOTH",
"1830 980 OFFCURVE",
"1944 837 OFFCURVE",
"1944 581 CURVE SMOOTH",
"1944 516 OFFCURVE",
"1939 458 OFFCURVE",
"1928 407 CURVE",
"1920 414 LINE SMOOTH",
"1833 489 OFFCURVE",
"1723 526 OFFCURVE",
"1590 526 CURVE SMOOTH",
"1526 526 OFFCURVE",
"1469 514 OFFCURVE",
"1419 491 CURVE SMOOTH",
"1318 444 OFFCURVE",
"1258 359 OFFCURVE",
"1249 256 CURVE",
"1244 252 LINE",
"1157 171 OFFCURVE",
"1034 118 OFFCURVE",
"923 118 CURVE SMOOTH"
);
},
{
closed = 1;
nodes = (
"1482 118 OFFCURVE",
"1417 169 OFFCURVE",
"1417 249 CURVE SMOOTH",
"1417 332 OFFCURVE",
"1482 388 OFFCURVE",
"1615 388 CURVE SMOOTH",
"1720 388 OFFCURVE",
"1810 344 OFFCURVE",
"1871 255 CURVE",
"1822 170 OFFCURVE",
"1734 118 OFFCURVE",
"1625 118 CURVE SMOOTH"
);
}
);
width = 2212;
}
);
note = uni1A52;
unicode = 1A52;
},
{
glyphname = uni1A53;
lastChange = "2016-11-10 14:44:19 +0000";
layers = (
{
layerId = "6FF31E7C-07F6-4791-B014-BC1FF1C32251";
paths = (
{
closed = 1;
nodes = (
"646 -20 OFFCURVE",
"746 37 OFFCURVE",
"810 124 CURVE",
"708 215 LINE",
"663 150 OFFCURVE",
"599 118 OFFCURVE",
"518 118 CURVE SMOOTH",
"362 118 OFFCURVE",
"268 288 OFFCURVE",
"268 569 CURVE SMOOTH",
"268 822 OFFCURVE",
"353 980 OFFCURVE",
"493 980 CURVE SMOOTH",
"529 980 OFFCURVE",
"564 964 OFFCURVE",
"597 933 CURVE SMOOTH",
"630 901 OFFCURVE",
"672 836 OFFCURVE",
"724 739 CURVE SMOOTH",
"924 368 LINE SMOOTH",
"981 262 OFFCURVE",
"1030 185 OFFCURVE",
"1070 136 CURVE SMOOTH",
"1150 39 OFFCURVE",
"1240 -20 OFFCURVE",
"1347 -20 CURVE SMOOTH",
"1423 -20 OFFCURVE",
"1491 2 OFFCURVE",
"1550 47 CURVE SMOOTH",
"1669 136 OFFCURVE",
"1737 311 OFFCURVE",
"1737 527 CURVE SMOOTH",
"1737 821 LINE SMOOTH",
"1737 1040 OFFCURVE",
"1743 1202 OFFCURVE",
"1754 1307 CURVE SMOOTH",
"1765 1412 OFFCURVE",
"1783 1487 OFFCURVE",
"1809 1533 CURVE SMOOTH",
"1835 1579 OFFCURVE",
"1873 1602 OFFCURVE",
"1922 1602 CURVE SMOOTH",
"1955 1602 OFFCURVE",
"1985 1597 OFFCURVE",
"2014 1587 CURVE",
"2081 1714 LINE",
"2032 1731 OFFCURVE",
"1990 1740 OFFCURVE",
"1953 1740 CURVE SMOOTH",
"1876 1740 OFFCURVE",
"1808 1707 OFFCURVE",
"1750 1642 CURVE SMOOTH",
"1634 1511 OFFCURVE",
"1567 1252 OFFCURVE",
"1567 951 CURVE SMOOTH",
"1567 529 LINE SMOOTH",
"1567 268 OFFCURVE",
"1481 118 OFFCURVE",
"1346 118 CURVE SMOOTH",
"1310 118 OFFCURVE",
"1276 134 OFFCURVE",
"1243 166 CURVE SMOOTH",
"1210 198 OFFCURVE",
"1167 262 OFFCURVE",
"1115 359 CURVE SMOOTH",
"915 730 LINE SMOOTH",
"858 836 OFFCURVE",
"809 913 OFFCURVE",
"769 962 CURVE SMOOTH",
"689 1059 OFFCURVE",
"599 1118 OFFCURVE",
"492 1118 CURVE SMOOTH",
"415 1118 OFFCURVE",
"346 1095 OFFCURVE",
"285 1050 CURVE SMOOTH",
"161 959 OFFCURVE",
"90 786 OFFCURVE",
"90 571 CURVE SMOOTH",
"90 462 OFFCURVE",
"109 363 OFFCURVE",
"148 272 CURVE SMOOTH",
"225 90 OFFCURVE",
"366 -20 OFFCURVE",
"515 -20 CURVE SMOOTH"
);
}
);
width = 1881;
}
);
note = uni1A53;
unicode = 1A53;
},
{
glyphname = uni1A54;
lastChange = "2016-11-10 14:44:19 +0000";
layers = (
{
layerId = "6FF31E7C-07F6-4791-B014-BC1FF1C32251";
paths = (
{
closed = 1;
nodes = (
"628 -20 OFFCURVE",
"749 34 OFFCURVE",
"848 143 CURVE",
"947 36 OFFCURVE",
"1093 -20 OFFCURVE",
"1273 -20 CURVE SMOOTH",
"1425 -20 OFFCURVE",
"1564 46 OFFCURVE",
"1639 142 CURVE",
"1736 38 OFFCURVE",
"1883 -20 OFFCURVE",
"2063 -20 CURVE SMOOTH",
"2160 -20 OFFCURVE",
"2247 4 OFFCURVE",
"2324 51 CURVE SMOOTH",
"2476 146 OFFCURVE",
"2564 328 OFFCURVE",
"2564 563 CURVE SMOOTH",
"2564 677 OFFCURVE",
"2544 775 OFFCURVE",
"2504 858 CURVE SMOOTH",
"2423 1023 OFFCURVE",
"2273 1118 OFFCURVE",
"2104 1118 CURVE SMOOTH",
"1967 1118 OFFCURVE",
"1850 1078 OFFCURVE",
"1770 961 CURVE",
"1900 881 LINE",
"1939 941 OFFCURVE",
"2005 980 OFFCURVE",
"2081 980 CURVE SMOOTH",
"2142 980 OFFCURVE",
"2195 964 OFFCURVE",
"2241 931 CURVE SMOOTH",
"2332 866 OFFCURVE",
"2386 738 OFFCURVE",
"2386 565 CURVE SMOOTH",
"2386 289 OFFCURVE",
"2263 118 OFFCURVE",
"2062 118 CURVE SMOOTH",
"1933 118 OFFCURVE",
"1779 206 OFFCURVE",
"1732 303 CURVE",
"1733 307 LINE",
"1760 380 OFFCURVE",
"1774 466 OFFCURVE",
"1774 563 CURVE SMOOTH",
"1774 677 OFFCURVE",
"1754 775 OFFCURVE",
"1714 858 CURVE SMOOTH",
"1633 1023 OFFCURVE",
"1483 1118 OFFCURVE",
"1314 1118 CURVE SMOOTH",
"1177 1118 OFFCURVE",
"1060 1078 OFFCURVE",
"980 961 CURVE",
"1110 881 LINE",
"1149 941 OFFCURVE",
"1215 980 OFFCURVE",
"1291 980 CURVE SMOOTH",
"1352 980 OFFCURVE",
"1405 964 OFFCURVE",
"1451 931 CURVE SMOOTH",
"1542 866 OFFCURVE",
"1596 738 OFFCURVE",
"1596 565 CURVE SMOOTH",
"1596 289 OFFCURVE",
"1473 118 OFFCURVE",
"1272 118 CURVE SMOOTH",
"1141 118 OFFCURVE",
"987 207 OFFCURVE",
"942 303 CURVE",
"970 374 OFFCURVE",
"984 457 OFFCURVE",
"984 553 CURVE SMOOTH",
"984 674 OFFCURVE",
"964 776 OFFCURVE",
"924 861 CURVE SMOOTH",
"843 1030 OFFCURVE",
"691 1118 OFFCURVE",
"490 1118 CURVE SMOOTH",
"335 1118 OFFCURVE",
"186 1046 OFFCURVE",
"90 915 CURVE",
"221 839 LINE",
"276 926 OFFCURVE",
"377 980 OFFCURVE",
"481 980 CURVE SMOOTH",
"684 980 OFFCURVE",
"806 826 OFFCURVE",
"806 555 CURVE SMOOTH",
"806 295 OFFCURVE",
"680 118 OFFCURVE",
"492 118 CURVE SMOOTH",
"355 118 OFFCURVE",
"255 180 OFFCURVE",
"220 300 CURVE",
"60 247 LINE",
"137 80 OFFCURVE",
"283 -20 OFFCURVE",
"483 -20 CURVE SMOOTH"
);
}
);
width = 2654;
}
);
note = uni1A54;
unicode = 1A54;
},
{
glyphname = uni1A55;
lastChange = "2016-11-10 14:44:19 +0000";
layers = (
{
layerId = "6FF31E7C-07F6-4791-B014-BC1FF1C32251";
paths = (
{
closed = 1;
nodes = (
"670 -570 OFFCURVE",
"728 -561 OFFCURVE",
"784 -544 CURVE",
"739 -404 LINE",
"690 -421 OFFCURVE",
"645 -430 OFFCURVE",
"603 -430 CURVE SMOOTH",
"434 -430 OFFCURVE",
"320 -300 OFFCURVE",
"320 -107 CURVE SMOOTH",
"320 1553 LINE SMOOTH",
"320 1745 OFFCURVE",
"434 1876 OFFCURVE",
"603 1876 CURVE SMOOTH",
"645 1876 OFFCURVE",
"690 1867 OFFCURVE",
"739 1850 CURVE",
"784 1990 LINE",
"728 2007 OFFCURVE",
"670 2016 OFFCURVE",
"611 2016 CURVE SMOOTH",
"522 2016 OFFCURVE",
"443 1995 OFFCURVE",
"372 1954 CURVE SMOOTH",
"231 1870 OFFCURVE",
"150 1709 OFFCURVE",
"150 1520 CURVE SMOOTH",
"150 -74 LINE SMOOTH",
"150 -168 OFFCURVE",
"169 -253 OFFCURVE",
"208 -329 CURVE SMOOTH",
"285 -482 OFFCURVE",
"432 -570 OFFCURVE",
"611 -570 CURVE SMOOTH"
);
}
);
width = 0;
}
);
note = uni1A55;
unicode = 1A55;
},
{
glyphname = uni1A56;
lastChange = "2016-11-10 14:44:19 +0000";
layers = (
{
layerId = "6FF31E7C-07F6-4791-B014-BC1FF1C32251";
paths = (
{
closed = 1;
nodes = (
"-884 -485 LINE",
"-948 -469 OFFCURVE",
"-993 -413 OFFCURVE",
"-993 -346 CURVE SMOOTH",
"-993 -267 OFFCURVE",
"-950 -218 OFFCURVE",
"-885 -218 CURVE SMOOTH",
"-817 -218 OFFCURVE",
"-765 -258 OFFCURVE",
"-713 -339 CURVE SMOOTH",
"-656 -430 OFFCURVE",
"-613 -488 OFFCURVE",
"-583 -515 CURVE SMOOTH",
"-523 -569 OFFCURVE",
"-451 -600 OFFCURVE",
"-356 -600 CURVE SMOOTH",
"-306 -600 OFFCURVE",
"-261 -588 OFFCURVE",
"-222 -564 CURVE SMOOTH",
"-144 -517 OFFCURVE",
"-100 -432 OFFCURVE",
"-100 -340 CURVE SMOOTH",
"-100 -303 OFFCURVE",
"-109 -266 OFFCURVE",
"-127 -231 CURVE SMOOTH",
"-163 -161 OFFCURVE",
"-228 -109 OFFCURVE",
"-324 -90 CURVE",
"-361 -205 LINE",
"-292 -218 OFFCURVE",
"-250 -272 OFFCURVE",
"-250 -344 CURVE SMOOTH",
"-250 -435 OFFCURVE",
"-295 -472 OFFCURVE",
"-358 -472 CURVE SMOOTH",
"-438 -472 OFFCURVE",
"-492 -424 OFFCURVE",
"-581 -281 CURVE SMOOTH",
"-662 -154 OFFCURVE",
"-759 -90 OFFCURVE",
"-887 -90 CURVE SMOOTH",
"-936 -90 OFFCURVE",
"-979 -101 OFFCURVE",
"-1018 -124 CURVE SMOOTH",
"-1096 -169 OFFCURVE",
"-1143 -252 OFFCURVE",
"-1143 -337 CURVE SMOOTH",
"-1143 -470 OFFCURVE",
"-1060 -569 OFFCURVE",
"-921 -600 CURVE"
);
}
);
width = 0;
}
);
note = uni1A56;
unicode = 1A56;
},
{
glyphname = uni1A57;
lastChange = "2016-11-10 14:44:19 +0000";
layers = (
{
layerId = "6FF31E7C-07F6-4791-B014-BC1FF1C32251";
paths = (
{
closed = 1;
nodes = (
"-524 -485 LINE",
"-588 -469 OFFCURVE",
"-633 -413 OFFCURVE",
"-633 -346 CURVE SMOOTH",
"-633 -267 OFFCURVE",
"-590 -218 OFFCURVE",
"-525 -218 CURVE SMOOTH",
"-489 -218 OFFCURVE",
"-456 -231 OFFCURVE",
"-426 -257 CURVE SMOOTH",
"-396 -284 OFFCURVE",
"-356 -334 OFFCURVE",
"-307 -409 CURVE SMOOTH",
"-226 -533 OFFCURVE",
"-118 -600 OFFCURVE",
"19 -600 CURVE SMOOTH",
"120 -600 OFFCURVE",
"201 -574 OFFCURVE",
"285 -509 CURVE",
"298 -534 OFFCURVE",
"308 -559 OFFCURVE",
"317 -586 CURVE",
"465 -542 LINE",
"450 -497 OFFCURVE",
"424 -444 OFFCURVE",
"389 -385 CURVE",
"432 -312 OFFCURVE",
"460 -209 OFFCURVE",
"460 -104 CURVE SMOOTH",
"460 744 LINE SMOOTH",
"460 838 OFFCURVE",
"441 923 OFFCURVE",
"402 1000 CURVE SMOOTH",
"325 1152 OFFCURVE",
"178 1240 OFFCURVE",
"-1 1240 CURVE SMOOTH",
"-60 1240 OFFCURVE",
"-118 1231 OFFCURVE",
"-174 1214 CURVE",
"-129 1074 LINE",
"-80 1091 OFFCURVE",
"-35 1100 OFFCURVE",
"7 1100 CURVE SMOOTH",
"176 1100 OFFCURVE",
"290 970 OFFCURVE",
"290 777 CURVE SMOOTH",
"290 -137 LINE SMOOTH",
"290 -188 OFFCURVE",
"286 -230 OFFCURVE",
"279 -263 CURVE",
"208 -206 OFFCURVE",
"132 -173 OFFCURVE",
"50 -163 CURVE",
"31 -299 LINE",
"96 -311 OFFCURVE",
"155 -344 OFFCURVE",
"206 -397 CURVE",
"164 -439 OFFCURVE",
"99 -460 OFFCURVE",
"10 -460 CURVE SMOOTH",
"-78 -460 OFFCURVE",
"-141 -408 OFFCURVE",
"-228 -275 CURVE SMOOTH",
"-311 -151 OFFCURVE",
"-403 -90 OFFCURVE",
"-527 -90 CURVE SMOOTH",
"-576 -90 OFFCURVE",
"-619 -101 OFFCURVE",
"-658 -124 CURVE SMOOTH",
"-736 -169 OFFCURVE",
"-783 -252 OFFCURVE",
"-783 -337 CURVE SMOOTH",
"-783 -470 OFFCURVE",
"-700 -569 OFFCURVE",
"-561 -600 CURVE"
);
}
);
width = 580;
}
);
note = uni1A57;
unicode = 1A57;
},
{
glyphname = uni1A58;
lastChange = "2016-11-10 14:44:19 +0000";
layers = (
{
layerId = "6FF31E7C-07F6-4791-B014-BC1FF1C32251";
paths = (
{
closed = 1;
nodes = (
"-377 1200 OFFCURVE",
"-358 1218 OFFCURVE",
"-338 1242 CURVE SMOOTH",
"-318 1266 OFFCURVE",
"-297 1296 OFFCURVE",
"-249 1320 CURVE",
"-297 1429 LINE",
"-352 1406 OFFCURVE",
"-394 1370 OFFCURVE",
"-422 1319 CURVE",
"-443 1319 OFFCURVE",
"-472 1379 OFFCURVE",
"-472 1442 CURVE SMOOTH",
"-472 1498 OFFCURVE",
"-432 1543 OFFCURVE",
"-372 1543 CURVE SMOOTH",
"-324 1543 OFFCURVE",
"-280 1522 OFFCURVE",
"-188 1454 CURVE SMOOTH",
"-108 1394 OFFCURVE",
"-40 1365 OFFCURVE",
"27 1365 CURVE SMOOTH",
"87 1365 OFFCURVE",
"145 1381 OFFCURVE",
"202 1414 CURVE",
"258 1392 OFFCURVE",
"319 1381 OFFCURVE",
"386 1381 CURVE SMOOTH",
"466 1381 OFFCURVE",
"530 1409 OFFCURVE",
"605 1470 CURVE SMOOTH",
"684 1534 OFFCURVE",
"734 1559 OFFCURVE",
"797 1559 CURVE",
"845 1554 LINE",
"860 1683 LINE",
"837 1686 OFFCURVE",
"812 1687 OFFCURVE",
"783 1687 CURVE SMOOTH",
"712 1687 OFFCURVE",
"655 1661 OFFCURVE",
"584 1598 CURVE SMOOTH",
"516 1537 OFFCURVE",
"457 1509 OFFCURVE",
"386 1509 CURVE",
"315 1513 LINE",
"357 1570 OFFCURVE",
"378 1628 OFFCURVE",
"378 1687 CURVE SMOOTH",
"378 1795 OFFCURVE",
"284 1880 OFFCURVE",
"172 1880 CURVE SMOOTH",
"56 1880 OFFCURVE",
"-26 1799 OFFCURVE",
"-26 1688 CURVE SMOOTH",
"-26 1614 OFFCURVE",
"7 1550 OFFCURVE",
"72 1496 CURVE",
"27 1493 LINE",
"-29 1493 OFFCURVE",
"-75 1517 OFFCURVE",
"-152 1582 CURVE SMOOTH",
"-224 1643 OFFCURVE",
"-290 1671 OFFCURVE",
"-373 1671 CURVE SMOOTH",
"-418 1671 OFFCURVE",
"-458 1661 OFFCURVE",
"-492 1640 CURVE SMOOTH",
"-560 1598 OFFCURVE",
"-600 1518 OFFCURVE",
"-600 1437 CURVE SMOOTH",
"-600 1308 OFFCURVE",
"-520 1200 OFFCURVE",
"-420 1200 CURVE SMOOTH"
);
},
{
closed = 1;
nodes = (
"140 1580 OFFCURVE",
"102 1635 OFFCURVE",
"102 1687 CURVE SMOOTH",
"102 1728 OFFCURVE",
"134 1760 OFFCURVE",
"175 1760 CURVE SMOOTH",
"218 1760 OFFCURVE",
"250 1728 OFFCURVE",
"250 1687 CURVE SMOOTH",
"250 1630 OFFCURVE",
"231 1585 OFFCURVE",
"193 1552 CURVE"
);
}
);
width = 790;
}
);
note = uni1A58;
unicode = 1A58;
},
{
glyphname = uni1A59;
lastChange = "2016-11-10 14:44:19 +0000";
layers = (
{
layerId = "6FF31E7C-07F6-4791-B014-BC1FF1C32251";
paths = (
{
closed = 1;
nodes = (
"-316 1249 OFFCURVE",
"-267 1268 OFFCURVE",
"-226 1297 CURVE SMOOTH",
"-144 1354 OFFCURVE",
"-100 1441 OFFCURVE",
"-100 1528 CURVE SMOOTH",
"-100 1597 OFFCURVE",
"-118 1658 OFFCURVE",
"-155 1711 CURVE SMOOTH",
"-228 1817 OFFCURVE",
"-368 1880 OFFCURVE",
"-579 1880 CURVE SMOOTH",
"-676 1880 OFFCURVE",
"-759 1867 OFFCURVE",
"-829 1840 CURVE SMOOTH",
"-970 1787 OFFCURVE",
"-1053 1673 OFFCURVE",
"-1053 1528 CURVE SMOOTH",
"-1053 1478 OFFCURVE",
"-1040 1431 OFFCURVE",
"-1013 1387 CURVE SMOOTH",
"-961 1298 OFFCURVE",
"-863 1241 OFFCURVE",
"-747 1241 CURVE SMOOTH",
"-608 1241 OFFCURVE",
"-501 1327 OFFCURVE",
"-501 1440 CURVE SMOOTH",
"-501 1549 OFFCURVE",
"-592 1622 OFFCURVE",
"-731 1622 CURVE SMOOTH",
"-754 1622 OFFCURVE",
"-776 1618 OFFCURVE",
"-798 1611 CURVE",
"-758 1490 LINE",
"-750 1493 OFFCURVE",
"-741 1494 OFFCURVE",
"-731 1494 CURVE SMOOTH",
"-674 1494 OFFCURVE",
"-645 1472 OFFCURVE",
"-645 1427 CURVE SMOOTH",
"-645 1394 OFFCURVE",
"-684 1370 OFFCURVE",
"-748 1370 CURVE SMOOTH",
"-845 1370 OFFCURVE",
"-909 1440 OFFCURVE",
"-909 1533 CURVE SMOOTH",
"-909 1673 OFFCURVE",
"-790 1752 OFFCURVE",
"-578 1752 CURVE SMOOTH",
"-373 1752 OFFCURVE",
"-244 1672 OFFCURVE",
"-244 1533 CURVE SMOOTH",
"-244 1441 OFFCURVE",
"-309 1374 OFFCURVE",
"-398 1371 CURVE",
"-372 1240 LINE"
);
}
);
width = 0;
}
);
note = uni1A59;
unicode = 1A59;
},
{
glyphname = uni1A5A;
lastChange = "2016-11-10 14:44:19 +0000";
layers = (
{
layerId = "6FF31E7C-07F6-4791-B014-BC1FF1C32251";
paths = (
{
closed = 1;
nodes = (
"-678 1299 LINE",
"-762 1390 OFFCURVE",
"-792 1470 OFFCURVE",
"-792 1578 CURVE SMOOTH",
"-792 1686 OFFCURVE",
"-752 1752 OFFCURVE",
"-685 1752 CURVE SMOOTH",
"-621 1752 OFFCURVE",
"-591 1710 OFFCURVE",
"-579 1605 CURVE",
"-457 1605 LINE",
"-448 1704 OFFCURVE",
"-418 1752 OFFCURVE",
"-351 1752 CURVE SMOOTH",
"-284 1752 OFFCURVE",
"-244 1687 OFFCURVE",
"-244 1578 CURVE SMOOTH",
"-244 1469 OFFCURVE",
"-275 1388 OFFCURVE",
"-358 1299 CURVE",
"-246 1230 LINE",
"-157 1310 OFFCURVE",
"-100 1445 OFFCURVE",
"-100 1578 CURVE SMOOTH",
"-100 1770 OFFCURVE",
"-190 1880 OFFCURVE",
"-345 1880 CURVE SMOOTH",
"-409 1880 OFFCURVE",
"-478 1850 OFFCURVE",
"-518 1782 CURVE",
"-559 1850 OFFCURVE",
"-627 1880 OFFCURVE",
"-691 1880 CURVE SMOOTH",
"-846 1880 OFFCURVE",
"-936 1770 OFFCURVE",
"-936 1578 CURVE SMOOTH",
"-936 1445 OFFCURVE",
"-879 1311 OFFCURVE",
"-790 1230 CURVE"
);
}
);
width = 0;
}
);
note = uni1A5A;
unicode = 1A5A;
},
{
glyphname = uni1A5B;
lastChange = "2016-11-10 14:44:19 +0000";
layers = (
{
layerId = "6FF31E7C-07F6-4791-B014-BC1FF1C32251";
paths = (
{
closed = 1;
nodes = (
"-540 -570 LINE SMOOTH",
"-271 -570 OFFCURVE",
"-100 -362 OFFCURVE",
"-100 -29 CURVE SMOOTH",
"-100 529 LINE",
"-270 457 LINE",
"-270 -48 LINE SMOOTH",
"-270 -152 OFFCURVE",
"-280 -229 OFFCURVE",
"-299 -280 CURVE SMOOTH",
"-338 -382 OFFCURVE",
"-418 -432 OFFCURVE",
"-561 -432 CURVE SMOOTH",
"-746 -432 LINE SMOOTH",
"-839 -432 OFFCURVE",
"-904 -423 OFFCURVE",
"-941 -406 CURVE SMOOTH",
"-978 -389 OFFCURVE",
"-997 -362 OFFCURVE",
"-997 -325 CURVE SMOOTH",
"-997 -264 OFFCURVE",
"-963 -228 OFFCURVE",
"-911 -228 CURVE SMOOTH",
"-884 -228 OFFCURVE",
"-865 -237 OFFCURVE",
"-852 -256 CURVE",
"-743 -183 LINE",
"-779 -132 OFFCURVE",
"-843 -100 OFFCURVE",
"-911 -100 CURVE SMOOTH",
"-1050 -100 OFFCURVE",
"-1141 -193 OFFCURVE",
"-1141 -325 CURVE SMOOTH",
"-1141 -474 OFFCURVE",
"-1011 -570 OFFCURVE",
"-812 -570 CURVE SMOOTH"
);
}
);
width = 0;
}
);
note = uni1A5B;
unicode = 1A5B;
},
{
glyphname = uni1A5C;
lastChange = "2016-11-10 14:44:19 +0000";
layers = (
{
layerId = "6FF31E7C-07F6-4791-B014-BC1FF1C32251";
paths = (
{
closed = 1;
nodes = (
"-381 -600 OFFCURVE",
"-304 -579 OFFCURVE",
"-239 -538 CURVE",
"-228 -559 OFFCURVE",
"-220 -579 OFFCURVE",
"-213 -600 CURVE",
"-85 -562 LINE",
"-95 -532 OFFCURVE",
"-113 -490 OFFCURVE",
"-140 -437 CURVE",
"-113 -396 OFFCURVE",
"-100 -350 OFFCURVE",
"-100 -301 CURVE SMOOTH",
"-100 -207 OFFCURVE",
"-131 -133 OFFCURVE",
"-192 -80 CURVE",
"-295 -151 LINE",
"-259 -192 OFFCURVE",
"-244 -254 OFFCURVE",
"-244 -297 CURVE SMOOTH",
"-244 -304 LINE",
"-300 -251 OFFCURVE",
"-360 -216 OFFCURVE",
"-425 -197 CURVE",
"-461 -318 LINE",
"-410 -339 OFFCURVE",
"-360 -378 OFFCURVE",
"-311 -433 CURVE",
"-348 -459 OFFCURVE",
"-401 -472 OFFCURVE",
"-468 -472 CURVE SMOOTH",
"-593 -472 OFFCURVE",
"-677 -408 OFFCURVE",
"-677 -289 CURVE SMOOTH",
"-677 -240 OFFCURVE",
"-655 -180 OFFCURVE",
"-626 -151 CURVE",
"-729 -80 LINE",
"-790 -131 OFFCURVE",
"-821 -200 OFFCURVE",
"-821 -287 CURVE SMOOTH",
"-821 -467 OFFCURVE",
"-671 -600 OFFCURVE",
"-468 -600 CURVE SMOOTH"
);
}
);
width = 0;
}
);
note = uni1A5C;
unicode = 1A5C;
},
{
glyphname = uni1A5D;
lastChange = "2016-11-10 14:44:19 +0000";
layers = (
{
layerId = "6FF31E7C-07F6-4791-B014-BC1FF1C32251";
paths = (
{
closed = 1;
nodes = (
"-393 -600 OFFCURVE",
"-328 -586 OFFCURVE",
"-273 -558 CURVE SMOOTH",
"-163 -502 OFFCURVE",
"-100 -402 OFFCURVE",
"-100 -301 CURVE SMOOTH",
"-100 -207 OFFCURVE",
"-131 -133 OFFCURVE",
"-192 -80 CURVE",
"-295 -151 LINE",
"-259 -192 OFFCURVE",
"-244 -254 OFFCURVE",
"-244 -297 CURVE SMOOTH",
"-244 -409 OFFCURVE",
"-323 -472 OFFCURVE",
"-468 -472 CURVE SMOOTH",
"-593 -472 OFFCURVE",
"-677 -408 OFFCURVE",
"-677 -289 CURVE SMOOTH",
"-677 -240 OFFCURVE",
"-655 -180 OFFCURVE",
"-626 -151 CURVE",
"-729 -80 LINE",
"-790 -131 OFFCURVE",
"-821 -200 OFFCURVE",
"-821 -287 CURVE SMOOTH",
"-821 -467 OFFCURVE",
"-671 -600 OFFCURVE",
"-468 -600 CURVE SMOOTH"
);
}
);
width = 0;
}
);
note = uni1A5D;
unicode = 1A5D;
},
{
glyphname = uni1A5E;
lastChange = "2016-11-10 14:44:19 +0000";
layers = (
{
layerId = "6FF31E7C-07F6-4791-B014-BC1FF1C32251";
paths = (
{
closed = 1;
nodes = (
"-699 -600 OFFCURVE",
"-635 -573 OFFCURVE",
"-585 -518 CURVE",
"-571 -501 LINE",
"-525 -567 OFFCURVE",
"-453 -600 OFFCURVE",
"-356 -600 CURVE SMOOTH",
"-306 -600 OFFCURVE",
"-261 -588 OFFCURVE",
"-222 -564 CURVE SMOOTH",
"-144 -517 OFFCURVE",
"-100 -432 OFFCURVE",
"-100 -340 CURVE SMOOTH",
"-100 -303 OFFCURVE",
"-109 -266 OFFCURVE",
"-127 -231 CURVE SMOOTH",
"-163 -161 OFFCURVE",
"-228 -109 OFFCURVE",
"-324 -90 CURVE",
"-361 -205 LINE",
"-292 -218 OFFCURVE",
"-250 -272 OFFCURVE",
"-250 -344 CURVE SMOOTH",
"-250 -435 OFFCURVE",
"-295 -472 OFFCURVE",
"-358 -472 CURVE SMOOTH",
"-432 -472 OFFCURVE",
"-483 -431 OFFCURVE",
"-511 -349 CURVE SMOOTH",
"-523 -315 LINE",
"-542 -186 OFFCURVE",
"-648 -90 OFFCURVE",
"-777 -90 CURVE SMOOTH",
"-901 -90 OFFCURVE",
"-986 -149 OFFCURVE",
"-1025 -264 CURVE",
"-902 -301 LINE",
"-877 -253 OFFCURVE",
"-844 -218 OFFCURVE",
"-779 -218 CURVE SMOOTH",
"-716 -218 OFFCURVE",
"-671 -272 OFFCURVE",
"-671 -344 CURVE SMOOTH",
"-671 -423 OFFCURVE",
"-714 -472 OFFCURVE",
"-779 -472 CURVE SMOOTH",
"-844 -472 OFFCURVE",
"-877 -437 OFFCURVE",
"-902 -389 CURVE",
"-1025 -426 LINE",
"-1005 -472 OFFCURVE",
"-984 -506 OFFCURVE",
"-962 -529 CURVE SMOOTH",
"-919 -574 OFFCURVE",
"-860 -600 OFFCURVE",
"-777 -600 CURVE SMOOTH"
);
}
);
width = 0;
}
);
note = uni1A5E;
unicode = 1A5E;
},
{
glyphname = uni1A60;
lastChange = "2016-11-10 14:44:19 +0000";
layers = (
{
layerId = "6FF31E7C-07F6-4791-B014-BC1FF1C32251";
paths = (
{
closed = 1;
nodes = (
"-253 -560 LINE",
"-253 -387 LINE",
"-90 -387 LINE",
"-90 -248 LINE",
"-253 -248 LINE",
"-253 -90 LINE",
"-397 -90 LINE",
"-397 -248 LINE",
"-560 -248 LINE",
"-560 -387 LINE",
"-397 -387 LINE",
"-397 -560 LINE"
);
}
);
width = 0;
}
);
note = uni1A60;
unicode = 1A60;
},
{
glyphname = uni1A61;
lastChange = "2016-11-10 14:44:19 +0000";
layers = (
{
layerId = "6FF31E7C-07F6-4791-B014-BC1FF1C32251";
paths = (
{
closed = 1;
nodes = (
"805 654 OFFCURVE",
"817 712 OFFCURVE",
"817 777 CURVE SMOOTH",
"817 844 OFFCURVE",
"802 903 OFFCURVE",
"771 955 CURVE SMOOTH",
"709 1059 OFFCURVE",
"589 1118 OFFCURVE",
"452 1118 CURVE SMOOTH",
"381 1118 OFFCURVE",
"320 1104 OFFCURVE",
"268 1076 CURVE SMOOTH",
"163 1020 OFFCURVE",
"100 918 OFFCURVE",
"100 825 CURVE SMOOTH",
"100 694 OFFCURVE",
"181 610 OFFCURVE",
"304 610 CURVE SMOOTH",
"405 610 OFFCURVE",
"488 693 OFFCURVE",
"488 794 CURVE SMOOTH",
"488 879 OFFCURVE",
"430 947 OFFCURVE",
"338 964 CURVE",
"351 972 OFFCURVE",
"400 990 OFFCURVE",
"455 990 CURVE SMOOTH",
"582 990 OFFCURVE",
"673 902 OFFCURVE",
"673 781 CURVE SMOOTH",
"673 732 OFFCURVE",
"665 689 OFFCURVE",
"648 654 CURVE",
"780 605 LINE"
);
},
{
closed = 1;
nodes = (
"262 87 OFFCURVE",
"230 119 OFFCURVE",
"230 160 CURVE SMOOTH",
"230 203 OFFCURVE",
"262 235 OFFCURVE",
"305 235 CURVE SMOOTH",
"346 235 OFFCURVE",
"378 203 OFFCURVE",
"378 160 CURVE SMOOTH",
"378 119 OFFCURVE",
"346 87 OFFCURVE",
"305 87 CURVE SMOOTH"
);
},
{
closed = 1;
nodes = (
"805 24 OFFCURVE",
"817 82 OFFCURVE",
"817 147 CURVE SMOOTH",
"817 214 OFFCURVE",
"802 273 OFFCURVE",
"771 325 CURVE SMOOTH",
"709 429 OFFCURVE",
"589 488 OFFCURVE",
"452 488 CURVE SMOOTH",
"381 488 OFFCURVE",
"320 474 OFFCURVE",
"268 446 CURVE SMOOTH",
"163 390 OFFCURVE",
"100 288 OFFCURVE",
"100 195 CURVE SMOOTH",
"100 64 OFFCURVE",
"181 -20 OFFCURVE",
"304 -20 CURVE SMOOTH",
"405 -20 OFFCURVE",
"488 63 OFFCURVE",
"488 164 CURVE SMOOTH",
"488 249 OFFCURVE",
"430 317 OFFCURVE",
"338 334 CURVE",
"351 342 OFFCURVE",
"400 360 OFFCURVE",
"455 360 CURVE SMOOTH",
"582 360 OFFCURVE",
"673 272 OFFCURVE",
"673 151 CURVE SMOOTH",
"673 102 OFFCURVE",
"665 59 OFFCURVE",
"648 24 CURVE",
"780 -25 LINE"
);
},
{
closed = 1;
nodes = (
"262 717 OFFCURVE",
"230 749 OFFCURVE",
"230 790 CURVE SMOOTH",
"230 833 OFFCURVE",
"262 865 OFFCURVE",
"305 865 CURVE SMOOTH",
"346 865 OFFCURVE",
"378 833 OFFCURVE",
"378 790 CURVE SMOOTH",
"378 749 OFFCURVE",
"346 717 OFFCURVE",
"305 717 CURVE SMOOTH"
);
}
);
width = 917;
}
);
note = uni1A61;
unicode = 1A61;
},
{
glyphname = uni1A62;
lastChange = "2016-11-10 14:40:34 +0000";
layers = (
{
layerId = "6FF31E7C-07F6-4791-B014-BC1FF1C32251";
paths = (
{
closed = 1;
nodes = (
"0 1629 LINE",
"-74 1730 LINE",
"-602 1347 LINE",
"-531 1240 LINE"
);
}
);
width = 0;
}
);
note = uni1A62;
unicode = 1A62;
},
{
glyphname = uni1A63;
lastChange = "2016-11-10 14:44:19 +0000";
layers = (
{
layerId = "6FF31E7C-07F6-4791-B014-BC1FF1C32251";
paths = (
{
closed = 1;
nodes = (
"541 -20 OFFCURVE",
"624 4 OFFCURVE",
"695 52 CURVE SMOOTH",
"837 147 OFFCURVE",
"916 330 OFFCURVE",
"916 575 CURVE SMOOTH",
"916 687 OFFCURVE",
"897 784 OFFCURVE",
"858 865 CURVE SMOOTH",
"780 1028 OFFCURVE",
"631 1118 OFFCURVE",
"448 1118 CURVE SMOOTH",
"259 1118 OFFCURVE",
"127 1032 OFFCURVE",
"30 852 CURVE",
"154 784 LINE",
"199 889 OFFCURVE",
"331 980 OFFCURVE",
"443 980 CURVE SMOOTH",
"630 980 OFFCURVE",
"738 826 OFFCURVE",
"738 563 CURVE SMOOTH",
"738 290 OFFCURVE",
"621 118 OFFCURVE",
"440 118 CURVE SMOOTH",
"415 118 OFFCURVE",
"391 121 OFFCURVE",
"366 128 CURVE",
"323 -5 LINE",
"364 -15 OFFCURVE",
"405 -20 OFFCURVE",
"448 -20 CURVE SMOOTH"
);
}
);
width = 1006;
}
);
note = uni1A63;
unicode = 1A63;
},
{
glyphname = uni1A64;
lastChange = "2016-11-10 14:44:19 +0000";
layers = (
{
layerId = "6FF31E7C-07F6-4791-B014-BC1FF1C32251";
paths = (
{
closed = 1;
nodes = (
"346 0 LINE",
"346 1111 LINE SMOOTH",
"346 1270 OFFCURVE",
"324 1408 OFFCURVE",
"281 1524 CURVE SMOOTH",
"194 1756 OFFCURVE",
"31 1880 OFFCURVE",
"-176 1880 CURVE SMOOTH",
"-365 1880 OFFCURVE",
"-525 1763 OFFCURVE",
"-600 1571 CURVE",
"-463 1526 LINE",
"-407 1662 OFFCURVE",
"-301 1742 OFFCURVE",
"-182 1742 CURVE SMOOTH",
"-95 1742 OFFCURVE",
"-26 1718 OFFCURVE",
"26 1670 CURVE SMOOTH",
"130 1574 OFFCURVE",
"176 1391 OFFCURVE",
"176 1034 CURVE SMOOTH",
"176 0 LINE"
);
}
);
width = 506;
}
);
note = uni1A64;
unicode = 1A64;
},
{
glyphname = uni1A65;
lastChange = "2016-11-10 14:44:19 +0000";
layers = (
{
layerId = "6FF31E7C-07F6-4791-B014-BC1FF1C32251";
paths = (
{
closed = 1;
nodes = (
"-561 1345 LINE",
"-647 1381 OFFCURVE",
"-690 1455 OFFCURVE",
"-690 1566 CURVE SMOOTH",
"-690 1669 OFFCURVE",
"-604 1752 OFFCURVE",
"-476 1752 CURVE SMOOTH",
"-333 1752 OFFCURVE",
"-244 1678 OFFCURVE",
"-244 1566 CURVE SMOOTH",
"-244 1453 OFFCURVE",
"-292 1376 OFFCURVE",
"-373 1345 CURVE",
"-327 1240 LINE",
"-176 1297 OFFCURVE",
"-100 1406 OFFCURVE",
"-100 1567 CURVE SMOOTH",
"-100 1622 OFFCURVE",
"-115 1674 OFFCURVE",
"-146 1723 CURVE SMOOTH",
"-208 1819 OFFCURVE",
"-324 1880 OFFCURVE",
"-476 1880 CURVE SMOOTH",
"-538 1880 OFFCURVE",
"-597 1866 OFFCURVE",
"-653 1838 CURVE SMOOTH",
"-765 1781 OFFCURVE",
"-834 1679 OFFCURVE",
"-834 1567 CURVE SMOOTH",
"-834 1406 OFFCURVE",
"-748 1288 OFFCURVE",
"-607 1240 CURVE"
);
}
);
width = 0;
}
);
note = uni1A65;
unicode = 1A65;
},
{
glyphname = uni1A66;
lastChange = "2016-11-10 14:44:19 +0000";
layers = (
{
layerId = "6FF31E7C-07F6-4791-B014-BC1FF1C32251";
paths = (
{
closed = 1;
nodes = (
"-32 1353 LINE",
"-89 1356 OFFCURVE",
"-130 1363 OFFCURVE",
"-154 1374 CURVE SMOOTH",
"-178 1385 OFFCURVE",
"-190 1403 OFFCURVE",
"-190 1430 CURVE SMOOTH",
"-190 1458 OFFCURVE",
"-168 1482 OFFCURVE",
"-145 1510 CURVE SMOOTH",
"-122 1538 OFFCURVE",
"-100 1572 OFFCURVE",
"-100 1617 CURVE SMOOTH",
"-100 1662 OFFCURVE",
"-116 1706 OFFCURVE",
"-148 1750 CURVE SMOOTH",
"-213 1838 OFFCURVE",
"-322 1880 OFFCURVE",
"-461 1880 CURVE SMOOTH",
"-524 1880 OFFCURVE",
"-583 1866 OFFCURVE",
"-637 1839 CURVE SMOOTH",
"-746 1784 OFFCURVE",
"-814 1683 OFFCURVE",
"-814 1566 CURVE SMOOTH",
"-814 1407 OFFCURVE",
"-746 1307 OFFCURVE",
"-617 1240 CURVE",
"-563 1356 LINE",
"-631 1396 OFFCURVE",
"-670 1465 OFFCURVE",
"-670 1554 CURVE SMOOTH",
"-670 1675 OFFCURVE",
"-584 1752 OFFCURVE",
"-456 1752 CURVE SMOOTH",
"-315 1752 OFFCURVE",
"-244 1703 OFFCURVE",
"-244 1606 CURVE SMOOTH",
"-244 1566 OFFCURVE",
"-266 1539 OFFCURVE",
"-289 1512 CURVE SMOOTH",
"-312 1484 OFFCURVE",
"-334 1455 OFFCURVE",
"-334 1414 CURVE SMOOTH",
"-334 1305 OFFCURVE",
"-232 1247 OFFCURVE",
"-67 1238 CURVE"
);
}
);
width = 0;
}
);
note = uni1A66;
unicode = 1A66;
},
{
glyphname = uni1A67;
lastChange = "2016-11-10 14:44:19 +0000";
layers = (
{
layerId = "6FF31E7C-07F6-4791-B014-BC1FF1C32251";
paths = (
{
closed = 1;
nodes = (
"-630 1355 LINE",
"-683 1402 OFFCURVE",
"-704 1460 OFFCURVE",
"-704 1544 CURVE SMOOTH",
"-704 1664 OFFCURVE",
"-604 1752 OFFCURVE",
"-476 1752 CURVE SMOOTH",
"-348 1752 OFFCURVE",
"-254 1679 OFFCURVE",
"-238 1568 CURVE",
"-278 1595 OFFCURVE",
"-318 1608 OFFCURVE",
"-358 1608 CURVE SMOOTH",
"-459 1608 OFFCURVE",
"-542 1525 OFFCURVE",
"-542 1424 CURVE SMOOTH",
"-542 1323 OFFCURVE",
"-459 1240 OFFCURVE",
"-358 1240 CURVE SMOOTH",
"-309 1240 OFFCURVE",
"-265 1254 OFFCURVE",
"-226 1282 CURVE SMOOTH",
"-147 1337 OFFCURVE",
"-100 1437 OFFCURVE",
"-100 1540 CURVE SMOOTH",
"-100 1605 OFFCURVE",
"-116 1664 OFFCURVE",
"-148 1719 CURVE SMOOTH",
"-212 1827 OFFCURVE",
"-325 1880 OFFCURVE",
"-473 1880 CURVE SMOOTH",
"-544 1880 OFFCURVE",
"-608 1866 OFFCURVE",
"-665 1837 CURVE SMOOTH",
"-780 1780 OFFCURVE",
"-848 1673 OFFCURVE",
"-848 1540 CURVE SMOOTH",
"-848 1392 OFFCURVE",
"-788 1300 OFFCURVE",
"-675 1235 CURVE"
);
},
{
closed = 1;
nodes = (
"-400 1347 OFFCURVE",
"-432 1379 OFFCURVE",
"-432 1420 CURVE SMOOTH",
"-432 1463 OFFCURVE",
"-400 1495 OFFCURVE",
"-359 1495 CURVE SMOOTH",
"-316 1495 OFFCURVE",
"-284 1463 OFFCURVE",
"-284 1420 CURVE SMOOTH",
"-284 1379 OFFCURVE",
"-316 1347 OFFCURVE",
"-359 1347 CURVE SMOOTH"
);
}
);
width = 0;
}
);
note = uni1A67;
unicode = 1A67;
},
{
glyphname = uni1A68;
lastChange = "2016-11-10 14:44:19 +0000";
layers = (
{
layerId = "6FF31E7C-07F6-4791-B014-BC1FF1C32251";
paths = (
{
closed = 1;
nodes = (
"-163 1319 OFFCURVE",
"-100 1415 OFFCURVE",
"-100 1567 CURVE SMOOTH",
"-100 1625 OFFCURVE",
"-113 1678 OFFCURVE",
"-138 1725 CURVE SMOOTH",
"-190 1820 OFFCURVE",
"-288 1880 OFFCURVE",
"-428 1880 CURVE SMOOTH",
"-486 1880 OFFCURVE",
"-538 1867 OFFCURVE",
"-585 1842 CURVE",
"-636 1867 OFFCURVE",
"-699 1880 OFFCURVE",
"-774 1880 CURVE SMOOTH",
"-836 1880 OFFCURVE",
"-895 1866 OFFCURVE",
"-951 1838 CURVE SMOOTH",
"-1063 1781 OFFCURVE",
"-1132 1679 OFFCURVE",
"-1132 1567 CURVE SMOOTH",
"-1132 1406 OFFCURVE",
"-1046 1288 OFFCURVE",
"-905 1240 CURVE",
"-859 1345 LINE",
"-945 1381 OFFCURVE",
"-988 1455 OFFCURVE",
"-988 1566 CURVE SMOOTH",
"-988 1669 OFFCURVE",
"-902 1752 OFFCURVE",
"-774 1752 CURVE SMOOTH",
"-631 1752 OFFCURVE",
"-542 1678 OFFCURVE",
"-542 1566 CURVE SMOOTH",
"-542 1453 OFFCURVE",
"-590 1376 OFFCURVE",
"-671 1345 CURVE",
"-625 1240 LINE",
"-474 1297 OFFCURVE",
"-398 1406 OFFCURVE",
"-398 1567 CURVE SMOOTH",
"-398 1626 OFFCURVE",
"-422 1697 OFFCURVE",
"-462 1748 CURVE",
"-418 1752 LINE",
"-315 1752 OFFCURVE",
"-244 1678 OFFCURVE",
"-244 1567 CURVE SMOOTH",
"-244 1473 OFFCURVE",
"-275 1401 OFFCURVE",
"-336 1351 CURVE",
"-290 1238 LINE"
);
}
);
width = 0;
}
);
note = uni1A68;
unicode = 1A68;
},
{
glyphname = uni1A69;
lastChange = "2016-11-10 14:44:19 +0000";
layers = (
{
layerId = "6FF31E7C-07F6-4791-B014-BC1FF1C32251";
paths = (
{
closed = 1;
nodes = (
"-33 -590 OFFCURVE",
"71 -568 OFFCURVE",
"135 -539 CURVE",
"15 -417 LINE",
"-33 -440 OFFCURVE",
"-81 -452 OFFCURVE",
"-130 -452 CURVE SMOOTH",
"-237 -452 OFFCURVE",
"-299 -390 OFFCURVE",
"-328 -271 CURVE SMOOTH",
"-343 -212 OFFCURVE",
"-350 -122 OFFCURVE",
"-350 -3 CURVE SMOOTH",
"-350 38 LINE",
"-528 68 LINE",
"-528 40 LINE SMOOTH",
"-528 -80 OFFCURVE",
"-510 -188 OFFCURVE",
"-474 -284 CURVE SMOOTH",
"-402 -476 OFFCURVE",
"-265 -590 OFFCURVE",
"-104 -590 CURVE SMOOTH"
);
}
);
width = 0;
}
);
note = uni1A69;
unicode = 1A69;
},
{
glyphname = uni1A6A;
lastChange = "2016-11-10 14:44:19 +0000";
layers = (
{
layerId = "6FF31E7C-07F6-4791-B014-BC1FF1C32251";
paths = (
{
closed = 1;
nodes = (
"-33 -590 OFFCURVE",
"71 -568 OFFCURVE",
"135 -539 CURVE",
"15 -417 LINE",
"-33 -440 OFFCURVE",
"-81 -452 OFFCURVE",
"-130 -452 CURVE SMOOTH",
"-237 -452 OFFCURVE",
"-299 -390 OFFCURVE",
"-328 -271 CURVE SMOOTH",
"-343 -212 OFFCURVE",
"-350 -122 OFFCURVE",
"-350 -3 CURVE SMOOTH",
"-350 38 LINE",
"-520 68 LINE",
"-520 40 LINE SMOOTH",
"-520 -81 OFFCURVE",
"-502 -189 OFFCURVE",
"-467 -286 CURVE SMOOTH",
"-396 -479 OFFCURVE",
"-264 -590 OFFCURVE",
"-104 -590 CURVE SMOOTH"
);
},
{
closed = 1;
nodes = (
"-590 -570 LINE",
"-590 50 LINE",
"-750 70 LINE",
"-750 -570 LINE"
);
}
);
width = 0;
}
);
note = uni1A6A;
unicode = 1A6A;
},
{
glyphname = uni1A6B;
lastChange = "2016-11-10 14:44:19 +0000";
layers = (
{
layerId = "6FF31E7C-07F6-4791-B014-BC1FF1C32251";
paths = (
{
closed = 1;
nodes = (
"-220 1154 LINE",
"-241 1241 OFFCURVE",
"-273 1321 OFFCURVE",
"-318 1392 CURVE SMOOTH",
"-408 1534 OFFCURVE",
"-535 1616 OFFCURVE",
"-664 1616 CURVE SMOOTH",
"-777 1616 OFFCURVE",
"-864 1534 OFFCURVE",
"-864 1425 CURVE SMOOTH",
"-864 1321 OFFCURVE",
"-777 1240 OFFCURVE",
"-664 1240 CURVE SMOOTH",
"-579 1240 OFFCURVE",
"-507 1290 OFFCURVE",
"-482 1373 CURVE",
"-431 1325 OFFCURVE",
"-380 1226 OFFCURVE",
"-360 1098 CURVE"
);
},
{
closed = 1;
nodes = (
"-712 1354 OFFCURVE",
"-744 1386 OFFCURVE",
"-744 1427 CURVE SMOOTH",
"-744 1470 OFFCURVE",
"-712 1502 OFFCURVE",
"-669 1502 CURVE SMOOTH",
"-628 1502 OFFCURVE",
"-596 1470 OFFCURVE",
"-596 1427 CURVE SMOOTH",
"-596 1386 OFFCURVE",
"-628 1354 OFFCURVE",
"-669 1354 CURVE SMOOTH"
);
}
);
width = 2;
}
);
note = uni1A6B;
unicode = 1A6B;
},
{
glyphname = uni1A6C;
lastChange = "2016-11-10 14:44:19 +0000";
layers = (
{
layerId = "6FF31E7C-07F6-4791-B014-BC1FF1C32251";
paths = (
{
closed = 1;
nodes = (
"-460 -600 OFFCURVE",
"-373 -561 OFFCURVE",
"-338 -502 CURVE",
"-306 -559 OFFCURVE",
"-224 -600 OFFCURVE",
"-143 -600 CURVE SMOOTH",
"-88 -600 OFFCURVE",
"-18 -584 OFFCURVE",
"31 -549 CURVE",
"-30 -451 LINE",
"-53 -463 OFFCURVE",
"-111 -472 OFFCURVE",
"-142 -472 CURVE SMOOTH",
"-223 -472 OFFCURVE",
"-268 -423 OFFCURVE",
"-277 -325 CURVE",
"-399 -325 LINE",
"-410 -423 OFFCURVE",
"-459 -472 OFFCURVE",
"-548 -472 CURVE SMOOTH",
"-589 -472 OFFCURVE",
"-631 -467 OFFCURVE",
"-662 -423 CURVE",
"-640 -424 LINE",
"-548 -424 OFFCURVE",
"-475 -350 OFFCURVE",
"-475 -258 CURVE SMOOTH",
"-475 -166 OFFCURVE",
"-549 -91 OFFCURVE",
"-640 -91 CURVE SMOOTH",
"-756 -91 OFFCURVE",
"-827 -179 OFFCURVE",
"-827 -315 CURVE SMOOTH",
"-827 -368 OFFCURVE",
"-814 -417 OFFCURVE",
"-788 -460 CURVE SMOOTH",
"-737 -548 OFFCURVE",
"-643 -600 OFFCURVE",
"-547 -600 CURVE SMOOTH"
);
},
{
closed = 1;
nodes = (
"-679 -321 OFFCURVE",
"-707 -293 OFFCURVE",
"-707 -257 CURVE SMOOTH",
"-707 -222 OFFCURVE",
"-679 -194 OFFCURVE",
"-643 -194 CURVE SMOOTH",
"-608 -194 OFFCURVE",
"-580 -222 OFFCURVE",
"-580 -257 CURVE SMOOTH",
"-580 -293 OFFCURVE",
"-608 -321 OFFCURVE",
"-643 -321 CURVE SMOOTH"
);
}
);
width = 0;
}
);
note = uni1A6C;
unicode = 1A6C;
},
{
glyphname = uni1A6D;
lastChange = "2016-11-10 14:44:19 +0000";
layers = (
{
layerId = "6FF31E7C-07F6-4791-B014-BC1FF1C32251";
paths = (
{
closed = 1;
nodes = (
"-117 -600 OFFCURVE",
"-18 -577 OFFCURVE",
"59 -530 CURVE SMOOTH",
"211 -438 OFFCURVE",
"284 -260 OFFCURVE",
"284 92 CURVE SMOOTH",
"284 777 LINE SMOOTH",
"284 982 OFFCURVE",
"377 1100 OFFCURVE",
"537 1100 CURVE SMOOTH",
"560 1100 OFFCURVE",
"582 1098 OFFCURVE",
"603 1094 CURVE",
"635 1232 LINE",
"607 1237 OFFCURVE",
"577 1240 OFFCURVE",
"545 1240 CURVE SMOOTH",
"280 1240 OFFCURVE",
"114 1045 OFFCURVE",
"114 744 CURVE SMOOTH",
"114 27 LINE SMOOTH",
"114 -106 OFFCURVE",
"109 -201 OFFCURVE",
"98 -256 CURVE SMOOTH",
"87 -312 OFFCURVE",
"70 -355 OFFCURVE",
"45 -385 CURVE SMOOTH",
"-5 -446 OFFCURVE",
"-91 -472 OFFCURVE",
"-242 -472 CURVE SMOOTH",
"-395 -472 OFFCURVE",
"-471 -451 OFFCURVE",
"-471 -410 CURVE SMOOTH",
"-471 -395 OFFCURVE",
"-456 -382 OFFCURVE",
"-426 -373 CURVE SMOOTH",
"-397 -364 OFFCURVE",
"-358 -360 OFFCURVE",
"-309 -360 CURVE",
"-309 -272 LINE",
"-417 -272 OFFCURVE",
"-471 -257 OFFCURVE",
"-471 -227 CURVE SMOOTH",
"-471 -196 OFFCURVE",
"-445 -180 OFFCURVE",
"-394 -180 CURVE SMOOTH",
"-348 -180 OFFCURVE",
"-309 -183 OFFCURVE",
"-276 -189 CURVE",
"-246 -86 LINE",
"-285 -79 OFFCURVE",
"-323 -70 OFFCURVE",
"-391 -70 CURVE SMOOTH",
"-503 -70 OFFCURVE",
"-586 -134 OFFCURVE",
"-586 -217 CURVE SMOOTH",
"-586 -256 OFFCURVE",
"-577 -282 OFFCURVE",
"-521 -314 CURVE",
"-564 -347 OFFCURVE",
"-586 -383 OFFCURVE",
"-586 -424 CURVE SMOOTH",
"-586 -545 OFFCURVE",
"-483 -600 OFFCURVE",
"-238 -600 CURVE SMOOTH"
);
}
);
width = 435;
}
);
note = uni1A6D;
unicode = 1A6D;
},
{
glyphname = uni1A6E;
lastChange = "2016-11-10 14:44:19 +0000";
layers = (
{
layerId = "6FF31E7C-07F6-4791-B014-BC1FF1C32251";
paths = (
{
closed = 1;
nodes = (
"791 -20 OFFCURVE",
"937 80 OFFCURVE",
"1014 247 CURVE",
"854 300 LINE",
"821 181 OFFCURVE",
"721 118 OFFCURVE",
"582 118 CURVE SMOOTH",
"393 118 OFFCURVE",
"268 295 OFFCURVE",
"268 555 CURVE SMOOTH",
"268 826 OFFCURVE",
"390 980 OFFCURVE",
"593 980 CURVE SMOOTH",
"693 980 OFFCURVE",
"792 930 OFFCURVE",
"853 839 CURVE",
"984 915 LINE",
"888 1046 OFFCURVE",
"740 1118 OFFCURVE",
"584 1118 CURVE SMOOTH",
"483 1118 OFFCURVE",
"396 1096 OFFCURVE",
"322 1053 CURVE SMOOTH",
"174 966 OFFCURVE",
"90 793 OFFCURVE",
"90 553 CURVE SMOOTH",
"90 438 OFFCURVE",
"112 337 OFFCURVE",
"155 251 CURVE SMOOTH",
"242 78 OFFCURVE",
"404 -20 OFFCURVE",
"591 -20 CURVE SMOOTH"
);
}
);
width = 1104;
}
);
note = uni1A6E;
unicode = 1A6E;
},
{
glyphname = uni1A6F;
lastChange = "2016-11-10 14:44:19 +0000";
layers = (
{
layerId = "6FF31E7C-07F6-4791-B014-BC1FF1C32251";
paths = (
{
closed = 1;
nodes = (
"1756 -20 OFFCURVE",
"1902 80 OFFCURVE",
"1979 247 CURVE",
"1819 300 LINE",
"1786 181 OFFCURVE",
"1686 118 OFFCURVE",
"1547 118 CURVE SMOOTH",
"1358 118 OFFCURVE",
"1233 295 OFFCURVE",
"1233 555 CURVE SMOOTH",
"1233 826 OFFCURVE",
"1355 980 OFFCURVE",
"1558 980 CURVE SMOOTH",
"1658 980 OFFCURVE",
"1757 930 OFFCURVE",
"1818 839 CURVE",
"1949 915 LINE",
"1853 1046 OFFCURVE",
"1705 1118 OFFCURVE",
"1549 1118 CURVE SMOOTH",
"1448 1118 OFFCURVE",
"1361 1096 OFFCURVE",
"1287 1053 CURVE SMOOTH",
"1139 966 OFFCURVE",
"1055 793 OFFCURVE",
"1055 553 CURVE SMOOTH",
"1055 438 OFFCURVE",
"1077 337 OFFCURVE",
"1120 251 CURVE SMOOTH",
"1207 78 OFFCURVE",
"1369 -20 OFFCURVE",
"1556 -20 CURVE SMOOTH"
);
},
{
closed = 1;
nodes = (
"791 -20 OFFCURVE",
"937 80 OFFCURVE",
"1014 247 CURVE",
"854 300 LINE",
"821 181 OFFCURVE",
"721 118 OFFCURVE",
"582 118 CURVE SMOOTH",
"393 118 OFFCURVE",
"268 295 OFFCURVE",
"268 555 CURVE SMOOTH",
"268 826 OFFCURVE",
"390 980 OFFCURVE",
"593 980 CURVE SMOOTH",
"693 980 OFFCURVE",
"792 930 OFFCURVE",
"853 839 CURVE",
"984 915 LINE",
"888 1046 OFFCURVE",
"740 1118 OFFCURVE",
"584 1118 CURVE SMOOTH",
"483 1118 OFFCURVE",
"396 1096 OFFCURVE",
"322 1053 CURVE SMOOTH",
"174 966 OFFCURVE",
"90 793 OFFCURVE",
"90 553 CURVE SMOOTH",
"90 438 OFFCURVE",
"112 337 OFFCURVE",
"155 251 CURVE SMOOTH",
"242 78 OFFCURVE",
"404 -20 OFFCURVE",
"591 -20 CURVE SMOOTH"
);
}
);
width = 2069;
}
);
note = uni1A6F;
unicode = 1A6F;
},
{
glyphname = uni1A70;
lastChange = "2016-11-10 14:44:19 +0000";
layers = (
{
layerId = "6FF31E7C-07F6-4791-B014-BC1FF1C32251";
paths = (
{
closed = 1;
nodes = (
"791 -20 OFFCURVE",
"937 80 OFFCURVE",
"1014 247 CURVE",
"854 300 LINE",
"821 181 OFFCURVE",
"721 118 OFFCURVE",
"582 118 CURVE SMOOTH",
"393 118 OFFCURVE",
"268 295 OFFCURVE",
"268 555 CURVE SMOOTH",
"268 826 OFFCURVE",
"390 980 OFFCURVE",
"593 980 CURVE SMOOTH",
"693 980 OFFCURVE",
"792 930 OFFCURVE",
"853 839 CURVE",
"984 915 LINE",
"893 1038 OFFCURVE",
"765 1099 OFFCURVE",
"640 1114 CURVE",
"412 1181 OFFCURVE",
"282 1290 OFFCURVE",
"282 1415 CURVE SMOOTH",
"282 1526 OFFCURVE",
"370 1602 OFFCURVE",
"519 1602 CURVE SMOOTH",
"646 1602 OFFCURVE",
"751 1560 OFFCURVE",
"832 1476 CURVE",
"952 1569 LINE",
"857 1677 OFFCURVE",
"708 1740 OFFCURVE",
"531 1740 CURVE SMOOTH",
"448 1740 OFFCURVE",
"374 1726 OFFCURVE",
"310 1697 CURVE SMOOTH",
"181 1639 OFFCURVE",
"105 1533 OFFCURVE",
"105 1422 CURVE SMOOTH",
"105 1274 OFFCURVE",
"190 1153 OFFCURVE",
"359 1072 CURVE",
"183 991 OFFCURVE",
"90 809 OFFCURVE",
"90 553 CURVE SMOOTH",
"90 438 OFFCURVE",
"112 337 OFFCURVE",
"155 251 CURVE SMOOTH",
"242 78 OFFCURVE",
"404 -20 OFFCURVE",
"591 -20 CURVE SMOOTH"
);
}
);
width = 1104;
}
);
note = uni1A70;
unicode = 1A70;
},
{
glyphname = uni1A71;
lastChange = "2016-11-10 14:44:19 +0000";
layers = (
{
layerId = "6FF31E7C-07F6-4791-B014-BC1FF1C32251";
paths = (
{
closed = 1;
nodes = (
"791 -20 OFFCURVE",
"937 80 OFFCURVE",
"1014 247 CURVE",
"854 300 LINE",
"821 181 OFFCURVE",
"721 118 OFFCURVE",
"582 118 CURVE SMOOTH",
"393 118 OFFCURVE",
"268 295 OFFCURVE",
"268 555 CURVE SMOOTH",
"268 826 OFFCURVE",
"390 980 OFFCURVE",
"593 980 CURVE SMOOTH",
"693 980 OFFCURVE",
"792 930 OFFCURVE",
"853 839 CURVE",
"988 917 LINE",
"979 1038 OFFCURVE",
"944 1153 OFFCURVE",
"884 1262 CURVE SMOOTH",
"763 1478 OFFCURVE",
"547 1648 OFFCURVE",
"314 1717 CURVE",
"272 1549 LINE",
"531 1468 OFFCURVE",
"717 1299 OFFCURVE",
"804 1066 CURVE",
"732 1101 OFFCURVE",
"659 1118 OFFCURVE",
"584 1118 CURVE SMOOTH",
"483 1118 OFFCURVE",
"396 1096 OFFCURVE",
"322 1053 CURVE SMOOTH",
"174 966 OFFCURVE",
"90 793 OFFCURVE",
"90 553 CURVE SMOOTH",
"90 438 OFFCURVE",
"112 337 OFFCURVE",
"155 251 CURVE SMOOTH",
"242 78 OFFCURVE",
"404 -20 OFFCURVE",
"591 -20 CURVE SMOOTH"
);
}
);
width = 1104;
}
);
note = uni1A71;
unicode = 1A71;
},
{
glyphname = uni1A72;
lastChange = "2016-11-10 14:44:19 +0000";
layers = (
{
layerId = "6FF31E7C-07F6-4791-B014-BC1FF1C32251";
paths = (
{
closed = 1;
nodes = (
"791 -20 OFFCURVE",
"937 80 OFFCURVE",
"1014 247 CURVE",
"854 300 LINE",
"821 181 OFFCURVE",
"721 118 OFFCURVE",
"582 118 CURVE SMOOTH",
"393 118 OFFCURVE",
"268 295 OFFCURVE",
"268 555 CURVE SMOOTH",
"268 826 OFFCURVE",
"390 980 OFFCURVE",
"593 980 CURVE SMOOTH",
"693 980 OFFCURVE",
"792 930 OFFCURVE",
"853 839 CURVE",
"1031 934 LINE",
"996 1447 OFFCURVE",
"784 1740 OFFCURVE",
"457 1740 CURVE SMOOTH",
"305 1740 OFFCURVE",
"183 1681 OFFCURVE",
"90 1564 CURVE",
"223 1461 LINE",
"270 1546 OFFCURVE",
"379 1602 OFFCURVE",
"483 1602 CURVE SMOOTH",
"700 1602 OFFCURVE",
"812 1437 OFFCURVE",
"843 1045 CURVE",
"760 1094 OFFCURVE",
"674 1118 OFFCURVE",
"584 1118 CURVE SMOOTH",
"483 1118 OFFCURVE",
"396 1096 OFFCURVE",
"322 1053 CURVE SMOOTH",
"174 966 OFFCURVE",
"90 793 OFFCURVE",
"90 553 CURVE SMOOTH",
"90 438 OFFCURVE",
"112 337 OFFCURVE",
"155 251 CURVE SMOOTH",
"242 78 OFFCURVE",
"404 -20 OFFCURVE",
"591 -20 CURVE SMOOTH"
);
}
);
width = 1121;
}
);
note = uni1A72;
unicode = 1A72;
},
{
glyphname = uni1A73;
lastChange = "2016-11-10 14:44:19 +0000";
layers = (
{
layerId = "6FF31E7C-07F6-4791-B014-BC1FF1C32251";
paths = (
{
closed = 1;
nodes = (
"-597 1287 OFFCURVE",
"-496 1373 OFFCURVE",
"-444 1498 CURVE",
"-391 1373 OFFCURVE",
"-291 1287 OFFCURVE",
"-142 1240 CURVE",
"-100 1369 LINE",
"-277 1429 OFFCURVE",
"-374 1550 OFFCURVE",
"-374 1725 CURVE",
"-515 1725 LINE",
"-515 1549 OFFCURVE",
"-612 1429 OFFCURVE",
"-789 1369 CURVE",
"-747 1240 LINE"
);
}
);
width = 0;
}
);
note = uni1A73;
unicode = 1A73;
},
{
glyphname = uni1A74;
lastChange = "2016-11-10 14:44:19 +0000";
layers = (
{
layerId = "6FF31E7C-07F6-4791-B014-BC1FF1C32251";
paths = (
{
closed = 1;
nodes = (
"-193 1243 OFFCURVE",
"-100 1327 OFFCURVE",
"-100 1434 CURVE SMOOTH",
"-100 1542 OFFCURVE",
"-190 1625 OFFCURVE",
"-305 1625 CURVE SMOOTH",
"-413 1625 OFFCURVE",
"-500 1538 OFFCURVE",
"-500 1434 CURVE SMOOTH",
"-500 1330 OFFCURVE",
"-413 1243 OFFCURVE",
"-305 1243 CURVE SMOOTH"
);
},
{
closed = 1;
nodes = (
"-350 1348 OFFCURVE",
"-389 1385 OFFCURVE",
"-389 1433 CURVE SMOOTH",
"-389 1481 OFFCURVE",
"-350 1520 OFFCURVE",
"-302 1520 CURVE SMOOTH",
"-249 1520 OFFCURVE",
"-211 1481 OFFCURVE",
"-211 1433 CURVE SMOOTH",
"-211 1385 OFFCURVE",
"-251 1348 OFFCURVE",
"-302 1348 CURVE SMOOTH"
);
}
);
width = 0;
}
);
note = uni1A74;
unicode = 1A74;
},
{
glyphname = uni1A75;
lastChange = "2016-11-10 14:44:19 +0000";
layers = (
{
layerId = "6FF31E7C-07F6-4791-B014-BC1FF1C32251";
paths = (
{
closed = 1;
nodes = (
"-130 1240 LINE",
"-130 1660 LINE",
"-274 1660 LINE",
"-274 1240 LINE"
);
}
);
width = 0;
}
);
note = uni1A75;
unicode = 1A75;
},
{
glyphname = uni1A76;
lastChange = "2016-11-10 14:40:34 +0000";
layers = (
{
layerId = "6FF31E7C-07F6-4791-B014-BC1FF1C32251";
paths = (
{
closed = 1;
nodes = (
"200 1629 LINE",
"126 1730 LINE",
"-350 1448 LINE",
"-350 1660 LINE",
"-496 1660 LINE",
"-496 1240 LINE",
"-461 1230 LINE"
);
}
);
width = 0;
}
);
note = uni1A76;
unicode = 1A76;
},
{
glyphname = uni1A77;
lastChange = "2016-11-10 14:44:19 +0000";
layers = (
{
layerId = "6FF31E7C-07F6-4791-B014-BC1FF1C32251";
paths = (
{
closed = 1;
nodes = (
"-241 1492 LINE",
"3 1235 LINE",
"100 1335 LINE",
"-241 1695 LINE",
"-581 1334 LINE",
"-484 1235 LINE"
);
}
);
width = 0;
}
);
note = uni1A77;
unicode = 1A77;
},
{
glyphname = uni1A78;
lastChange = "2016-11-10 14:44:19 +0000";
layers = (
{
layerId = "6FF31E7C-07F6-4791-B014-BC1FF1C32251";
paths = (
{
closed = 1;
nodes = (
"-91 1240 OFFCURVE",
"-46 1250 OFFCURVE",
"-10 1270 CURVE SMOOTH",
"62 1310 OFFCURVE",
"100 1385 OFFCURVE",
"100 1474 CURVE SMOOTH",
"100 1740 LINE",
"-44 1740 LINE",
"-44 1462 LINE SMOOTH",
"-44 1399 OFFCURVE",
"-76 1368 OFFCURVE",
"-141 1368 CURVE SMOOTH",
"-202 1368 OFFCURVE",
"-233 1391 OFFCURVE",
"-233 1436 CURVE",
"-383 1436 LINE",
"-383 1315 OFFCURVE",
"-292 1240 OFFCURVE",
"-144 1240 CURVE SMOOTH"
);
}
);
width = 0;
}
);
note = uni1A78;
unicode = 1A78;
},
{
glyphname = uni1A79;
lastChange = "2016-11-10 14:44:19 +0000";
layers = (
{
layerId = "6FF31E7C-07F6-4791-B014-BC1FF1C32251";
paths = (
{
closed = 1;
nodes = (
"-11 1240 OFFCURVE",
"76 1296 OFFCURVE",
"108 1391 CURVE",
"-28 1415 LINE",
"-39 1382 OFFCURVE",
"-68 1366 OFFCURVE",
"-117 1366 CURVE SMOOTH",
"-181 1366 OFFCURVE",
"-212 1400 OFFCURVE",
"-212 1440 CURVE SMOOTH",
"-212 1457 LINE",
"-192 1452 OFFCURVE",
"-171 1450 OFFCURVE",
"-149 1450 CURVE SMOOTH",
"4 1450 OFFCURVE",
"100 1534 OFFCURVE",
"100 1669 CURVE SMOOTH",
"100 1801 OFFCURVE",
"11 1880 OFFCURVE",
"-138 1880 CURVE SMOOTH",
"-206 1880 OFFCURVE",
"-291 1843 OFFCURVE",
"-320 1804 CURVE",
"-242 1715 LINE",
"-227 1730 OFFCURVE",
"-187 1754 OFFCURVE",
"-136 1754 CURVE SMOOTH",
"-68 1754 OFFCURVE",
"-36 1720 OFFCURVE",
"-36 1669 CURVE SMOOTH",
"-36 1609 OFFCURVE",
"-74 1576 OFFCURVE",
"-145 1576 CURVE SMOOTH",
"-171 1576 OFFCURVE",
"-193 1581 OFFCURVE",
"-212 1590 CURVE",
"-212 1628 LINE",
"-348 1628 LINE",
"-348 1450 LINE SMOOTH",
"-348 1414 OFFCURVE",
"-338 1380 OFFCURVE",
"-319 1347 CURVE SMOOTH",
"-281 1281 OFFCURVE",
"-210 1240 OFFCURVE",
"-115 1240 CURVE SMOOTH"
);
}
);
width = 0;
}
);
note = uni1A79;
unicode = 1A79;
},
{
glyphname = uni1A7A;
lastChange = "2016-11-10 14:44:19 +0000";
layers = (
{
layerId = "6FF31E7C-07F6-4791-B014-BC1FF1C32251";
paths = (
{
closed = 1;
nodes = (
"-235 1240 OFFCURVE",
"-120 1334 OFFCURVE",
"-120 1446 CURVE SMOOTH",
"-120 1510 OFFCURVE",
"-159 1556 OFFCURVE",
"-210 1589 CURVE SMOOTH",
"-262 1622 OFFCURVE",
"-327 1644 OFFCURVE",
"-378 1663 CURVE SMOOTH",
"-404 1672 OFFCURVE",
"-426 1681 OFFCURVE",
"-443 1690 CURVE SMOOTH",
"-460 1699 OFFCURVE",
"-469 1708 OFFCURVE",
"-469 1718 CURVE SMOOTH",
"-469 1744 OFFCURVE",
"-438 1757 OFFCURVE",
"-376 1757 CURVE SMOOTH",
"-301 1757 OFFCURVE",
"-252 1746 OFFCURVE",
"-231 1723 CURVE",
"-138 1808 LINE",
"-178 1848 OFFCURVE",
"-261 1880 OFFCURVE",
"-374 1880 CURVE SMOOTH",
"-511 1880 OFFCURVE",
"-607 1815 OFFCURVE",
"-607 1728 CURVE SMOOTH",
"-607 1656 OFFCURVE",
"-549 1600 OFFCURVE",
"-432 1561 CURVE SMOOTH",
"-368 1539 OFFCURVE",
"-323 1520 OFFCURVE",
"-297 1503 CURVE SMOOTH",
"-271 1486 OFFCURVE",
"-258 1466 OFFCURVE",
"-258 1445 CURVE SMOOTH",
"-258 1402 OFFCURVE",
"-293 1368 OFFCURVE",
"-380 1368 CURVE SMOOTH",
"-435 1368 OFFCURVE",
"-485 1390 OFFCURVE",
"-508 1441 CURVE",
"-638 1388 LINE",
"-601 1299 OFFCURVE",
"-494 1240 OFFCURVE",
"-382 1240 CURVE SMOOTH"
);
}
);
width = 0;
}
);
note = uni1A7A;
unicode = 1A7A;
},
{
glyphname = uni1A7B;
lastChange = "2016-11-10 14:44:19 +0000";
layers = (
{
layerId = "6FF31E7C-07F6-4791-B014-BC1FF1C32251";
paths = (
{
closed = 1;
nodes = (
"-48 1240 OFFCURVE",
"38 1322 OFFCURVE",
"38 1427 CURVE SMOOTH",
"38 1534 OFFCURVE",
"-45 1616 OFFCURVE",
"-148 1616 CURVE SMOOTH",
"-174 1616 OFFCURVE",
"-200 1612 OFFCURVE",
"-226 1603 CURVE",
"-226 1658 LINE SMOOTH",
"-226 1721 OFFCURVE",
"-194 1752 OFFCURVE",
"-129 1752 CURVE SMOOTH",
"-68 1752 OFFCURVE",
"-37 1729 OFFCURVE",
"-37 1684 CURVE",
"113 1684 LINE",
"113 1805 OFFCURVE",
"22 1880 OFFCURVE",
"-126 1880 CURVE SMOOTH",
"-179 1880 OFFCURVE",
"-224 1870 OFFCURVE",
"-260 1850 CURVE SMOOTH",
"-332 1810 OFFCURVE",
"-370 1735 OFFCURVE",
"-370 1646 CURVE SMOOTH",
"-370 1455 LINE SMOOTH",
"-370 1328 OFFCURVE",
"-281 1240 OFFCURVE",
"-156 1240 CURVE SMOOTH"
);
},
{
closed = 1;
nodes = (
"-200 1354 OFFCURVE",
"-232 1386 OFFCURVE",
"-232 1427 CURVE SMOOTH",
"-232 1470 OFFCURVE",
"-200 1502 OFFCURVE",
"-157 1502 CURVE SMOOTH",
"-116 1502 OFFCURVE",
"-84 1470 OFFCURVE",
"-84 1427 CURVE SMOOTH",
"-84 1386 OFFCURVE",
"-116 1354 OFFCURVE",
"-157 1354 CURVE SMOOTH"
);
}
);
width = 0;
}
);
note = uni1A7B;
unicode = 1A7B;
},
{
glyphname = uni1A7C;
lastChange = "2016-11-10 14:44:19 +0000";
layers = (
{
layerId = "6FF31E7C-07F6-4791-B014-BC1FF1C32251";
paths = (
{
closed = 1;
nodes = (
"-323 1240 OFFCURVE",
"-274 1251 OFFCURVE",
"-231 1272 CURVE SMOOTH",
"-147 1314 OFFCURVE",
"-97 1392 OFFCURVE",
"-97 1476 CURVE SMOOTH",
"-97 1593 OFFCURVE",
"-160 1662 OFFCURVE",
"-286 1681 CURVE",
"-286 1720 OFFCURVE",
"-231 1752 OFFCURVE",
"-164 1752 CURVE SMOOTH",
"-87 1752 OFFCURVE",
"-33 1701 OFFCURVE",
"-33 1621 CURVE SMOOTH",
"-33 1532 LINE",
"16 1532 LINE SMOOTH",
"70 1532 OFFCURVE",
"118 1543 OFFCURVE",
"159 1564 CURVE SMOOTH",
"242 1607 OFFCURVE",
"290 1686 OFFCURVE",
"290 1766 CURVE SMOOTH",
"290 1880 LINE",
"146 1880 LINE",
"146 1754 LINE SMOOTH",
"146 1728 OFFCURVE",
"134 1706 OFFCURVE",
"111 1688 CURVE SMOOTH",
"102 1681 LINE",
"94 1714 OFFCURVE",
"78 1746 OFFCURVE",
"53 1778 CURVE SMOOTH",
"4 1841 OFFCURVE",
"-71 1880 OFFCURVE",
"-168 1880 CURVE SMOOTH",
"-335 1880 OFFCURVE",
"-443 1767 OFFCURVE",
"-452 1590 CURVE",
"-321 1590 OFFCURVE",
"-241 1546 OFFCURVE",
"-241 1475 CURVE SMOOTH",
"-241 1410 OFFCURVE",
"-293 1368 OFFCURVE",
"-377 1368 CURVE SMOOTH",
"-440 1368 OFFCURVE",
"-497 1397 OFFCURVE",
"-512 1464 CURVE",
"-647 1421 LINE",
"-611 1304 OFFCURVE",
"-518 1240 OFFCURVE",
"-379 1240 CURVE SMOOTH"
);
}
);
width = 0;
}
);
note = uni1A7C;
unicode = 1A7C;
},
{
glyphname = uni1A7F;
lastChange = "2016-11-10 14:44:19 +0000";
layers = (
{
layerId = "6FF31E7C-07F6-4791-B014-BC1FF1C32251";
paths = (
{
closed = 1;
nodes = (
"-193 -472 OFFCURVE",
"-100 -388 OFFCURVE",
"-100 -281 CURVE SMOOTH",
"-100 -173 OFFCURVE",
"-190 -90 OFFCURVE",
"-305 -90 CURVE SMOOTH",
"-413 -90 OFFCURVE",
"-500 -177 OFFCURVE",
"-500 -281 CURVE SMOOTH",
"-500 -385 OFFCURVE",
"-413 -472 OFFCURVE",
"-305 -472 CURVE SMOOTH"
);
},
{
closed = 1;
nodes = (
"-350 -367 OFFCURVE",
"-389 -330 OFFCURVE",
"-389 -282 CURVE SMOOTH",
"-389 -234 OFFCURVE",
"-350 -195 OFFCURVE",
"-302 -195 CURVE SMOOTH",
"-249 -195 OFFCURVE",
"-211 -234 OFFCURVE",
"-211 -282 CURVE SMOOTH",
"-211 -330 OFFCURVE",
"-251 -367 OFFCURVE",
"-302 -367 CURVE SMOOTH"
);
}
);
width = 0;
}
);
note = uni1A7F;
unicode = 1A7F;
},
{
glyphname = uni1A80;
lastChange = "2016-11-10 14:44:19 +0000";
layers = (
{
layerId = "6FF31E7C-07F6-4791-B014-BC1FF1C32251";
paths = (
{
closed = 1;
nodes = (
"834 -20 OFFCURVE",
"1013 203 OFFCURVE",
"1013 551 CURVE SMOOTH",
"1013 663 OFFCURVE",
"994 762 OFFCURVE",
"957 848 CURVE SMOOTH",
"881 1020 OFFCURVE",
"737 1118 OFFCURVE",
"554 1118 CURVE SMOOTH",
"462 1118 OFFCURVE",
"381 1095 OFFCURVE",
"310 1048 CURVE SMOOTH",
"169 954 OFFCURVE",
"90 772 OFFCURVE",
"90 551 CURVE SMOOTH",
"90 444 OFFCURVE",
"110 347 OFFCURVE",
"149 260 CURVE SMOOTH",
"227 84 OFFCURVE",
"374 -20 OFFCURVE",
"547 -20 CURVE SMOOTH"
);
},
{
closed = 1;
nodes = (
"373 118 OFFCURVE",
"268 283 OFFCURVE",
"268 551 CURVE SMOOTH",
"268 822 OFFCURVE",
"372 980 OFFCURVE",
"549 980 CURVE SMOOTH",
"733 980 OFFCURVE",
"835 826 OFFCURVE",
"835 551 CURVE SMOOTH",
"835 279 OFFCURVE",
"735 118 OFFCURVE",
"552 118 CURVE SMOOTH"
);
}
);
width = 1103;
}
);
note = uni1A80;
unicode = 1A80;
},
{
glyphname = uni1A81;
lastChange = "2016-11-10 14:44:19 +0000";
layers = (
{
layerId = "6FF31E7C-07F6-4791-B014-BC1FF1C32251";
paths = (
{
closed = 1;
nodes = (
"604 -20 OFFCURVE",
"688 4 OFFCURVE",
"765 51 CURVE SMOOTH",
"917 145 OFFCURVE",
"1006 322 OFFCURVE",
"1006 553 CURVE SMOOTH",
"1006 674 OFFCURVE",
"986 776 OFFCURVE",
"947 861 CURVE SMOOTH",
"867 1030 OFFCURVE",
"718 1118 OFFCURVE",
"518 1118 CURVE SMOOTH",
"363 1118 OFFCURVE",
"214 1046 OFFCURVE",
"118 915 CURVE",
"249 839 LINE",
"304 926 OFFCURVE",
"405 980 OFFCURVE",
"509 980 CURVE SMOOTH",
"709 980 OFFCURVE",
"828 828 OFFCURVE",
"828 555 CURVE SMOOTH",
"828 292 OFFCURVE",
"707 118 OFFCURVE",
"520 118 CURVE SMOOTH",
"391 118 OFFCURVE",
"257 212 OFFCURVE",
"212 313 CURVE",
"80 238 LINE",
"181 69 OFFCURVE",
"331 -20 OFFCURVE",
"511 -20 CURVE SMOOTH"
);
}
);
width = 1096;
}
);
note = uni1A81;
unicode = 1A81;
},
{
glyphname = uni1A82;
lastChange = "2016-11-10 14:44:19 +0000";
layers = (
{
layerId = "6FF31E7C-07F6-4791-B014-BC1FF1C32251";
paths = (
{
closed = 1;
nodes = (
"376 -570 OFFCURVE",
"534 -318 OFFCURVE",
"534 237 CURVE SMOOTH",
"534 1118 LINE",
"364 1099 LINE",
"364 296 LINE SMOOTH",
"364 85 OFFCURVE",
"354 -67 OFFCURVE",
"334 -159 CURVE SMOOTH",
"293 -344 OFFCURVE",
"204 -432 OFFCURVE",
"43 -432 CURVE SMOOTH",
"-61 -432 OFFCURVE",
"-170 -376 OFFCURVE",
"-217 -291 CURVE",
"-350 -394 LINE",
"-257 -511 OFFCURVE",
"-135 -570 OFFCURVE",
"17 -570 CURVE SMOOTH"
);
}
);
width = 694;
}
);
note = uni1A82;
unicode = 1A82;
},
{
glyphname = uni1A83;
lastChange = "2016-11-10 14:44:19 +0000";
layers = (
{
layerId = "6FF31E7C-07F6-4791-B014-BC1FF1C32251";
paths = (
{
closed = 1;
nodes = (
"895 -570 OFFCURVE",
"935 -564 OFFCURVE",
"970 -552 CURVE",
"945 -417 LINE",
"912 -427 OFFCURVE",
"876 -432 OFFCURVE",
"837 -432 CURVE SMOOTH",
"673 -432 OFFCURVE",
"525 -306 OFFCURVE",
"337 17 CURVE",
"396 -8 OFFCURVE",
"451 -20 OFFCURVE",
"500 -20 CURVE SMOOTH",
"593 -20 OFFCURVE",
"677 4 OFFCURVE",
"754 51 CURVE SMOOTH",
"906 145 OFFCURVE",
"995 322 OFFCURVE",
"995 553 CURVE SMOOTH",
"995 674 OFFCURVE",
"975 776 OFFCURVE",
"936 861 CURVE SMOOTH",
"856 1030 OFFCURVE",
"707 1118 OFFCURVE",
"507 1118 CURVE SMOOTH",
"352 1118 OFFCURVE",
"203 1046 OFFCURVE",
"107 915 CURVE",
"238 839 LINE",
"293 926 OFFCURVE",
"394 980 OFFCURVE",
"498 980 CURVE SMOOTH",
"698 980 OFFCURVE",
"817 828 OFFCURVE",
"817 555 CURVE SMOOTH",
"817 292 OFFCURVE",
"696 118 OFFCURVE",
"509 118 CURVE SMOOTH",
"378 118 OFFCURVE",
"291 163 OFFCURVE",
"212 291 CURVE",
"80 223 LINE",
"265 -278 OFFCURVE",
"548 -570 OFFCURVE",
"848 -570 CURVE SMOOTH"
);
}
);
width = 1085;
}
);
note = uni1A83;
unicode = 1A83;
},
{
glyphname = uni1A84;
lastChange = "2016-11-10 14:44:19 +0000";
layers = (
{
layerId = "6FF31E7C-07F6-4791-B014-BC1FF1C32251";
paths = (
{
closed = 1;
nodes = (
"536 -570 OFFCURVE",
"817 -281 OFFCURVE",
"1005 223 CURVE",
"873 291 LINE",
"793 162 OFFCURVE",
"705 118 OFFCURVE",
"576 118 CURVE SMOOTH",
"389 118 OFFCURVE",
"268 292 OFFCURVE",
"268 555 CURVE SMOOTH",
"268 830 OFFCURVE",
"387 980 OFFCURVE",
"587 980 CURVE SMOOTH",
"687 980 OFFCURVE",
"786 930 OFFCURVE",
"847 839 CURVE",
"978 915 LINE",
"882 1046 OFFCURVE",
"734 1118 OFFCURVE",
"578 1118 CURVE SMOOTH",
"270 1118 OFFCURVE",
"90 910 OFFCURVE",
"90 553 CURVE SMOOTH",
"90 438 OFFCURVE",
"111 338 OFFCURVE",
"154 251 CURVE SMOOTH",
"238 78 OFFCURVE",
"398 -20 OFFCURVE",
"585 -20 CURVE SMOOTH",
"634 -20 OFFCURVE",
"689 -8 OFFCURVE",
"748 17 CURVE",
"560 -306 OFFCURVE",
"413 -432 OFFCURVE",
"248 -432 CURVE SMOOTH",
"209 -432 OFFCURVE",
"173 -427 OFFCURVE",
"140 -417 CURVE",
"115 -552 LINE",
"150 -564 OFFCURVE",
"190 -570 OFFCURVE",
"237 -570 CURVE SMOOTH"
);
}
);
width = 1085;
}
);
note = uni1A84;
unicode = 1A84;
},
{
glyphname = uni1A85;
lastChange = "2016-11-10 14:44:19 +0000";
layers = (
{
layerId = "6FF31E7C-07F6-4791-B014-BC1FF1C32251";
paths = (
{
closed = 1;
nodes = (
"832 -570 OFFCURVE",
"974 -324 OFFCURVE",
"974 225 CURVE SMOOTH",
"974 357 LINE SMOOTH",
"974 884 OFFCURVE",
"832 1118 OFFCURVE",
"511 1118 CURVE SMOOTH",
"433 1118 OFFCURVE",
"361 1096 OFFCURVE",
"295 1052 CURVE SMOOTH",
"162 964 OFFCURVE",
"80 797 OFFCURVE",
"80 600 CURVE SMOOTH",
"80 472 OFFCURVE",
"163 394 OFFCURVE",
"271 394 CURVE SMOOTH",
"374 394 OFFCURVE",
"460 479 OFFCURVE",
"460 583 CURVE SMOOTH",
"460 692 OFFCURVE",
"374 774 OFFCURVE",
"259 774 CURVE",
"292 913 OFFCURVE",
"387 980 OFFCURVE",
"523 980 CURVE SMOOTH",
"667 980 OFFCURVE",
"742 905 OFFCURVE",
"778 734 CURVE SMOOTH",
"795 649 OFFCURVE",
"804 518 OFFCURVE",
"804 343 CURVE SMOOTH",
"804 205 LINE SMOOTH",
"804 28 OFFCURVE",
"795 -103 OFFCURVE",
"778 -188 CURVE SMOOTH",
"742 -357 OFFCURVE",
"667 -432 OFFCURVE",
"523 -432 CURVE SMOOTH",
"394 -432 OFFCURVE",
"281 -324 OFFCURVE",
"241 -171 CURVE",
"103 -213 LINE",
"124 -290 OFFCURVE",
"155 -354 OFFCURVE",
"197 -406 CURVE SMOOTH",
"281 -511 OFFCURVE",
"397 -570 OFFCURVE",
"517 -570 CURVE SMOOTH"
);
},
{
closed = 1;
nodes = (
"228 506 OFFCURVE",
"196 538 OFFCURVE",
"196 581 CURVE SMOOTH",
"196 622 OFFCURVE",
"228 654 OFFCURVE",
"271 654 CURVE SMOOTH",
"312 654 OFFCURVE",
"344 622 OFFCURVE",
"344 581 CURVE SMOOTH",
"344 538 OFFCURVE",
"312 506 OFFCURVE",
"271 506 CURVE SMOOTH"
);
}
);
width = 1084;
}
);
note = uni1A85;
unicode = 1A85;
},
{
glyphname = uni1A86;
lastChange = "2016-11-10 14:44:19 +0000";
layers = (
{
layerId = "6FF31E7C-07F6-4791-B014-BC1FF1C32251";
paths = (
{
closed = 1;
nodes = (
"639 -20 OFFCURVE",
"708 1 OFFCURVE",
"775 43 CURVE SMOOTH",
"907 127 OFFCURVE",
"986 278 OFFCURVE",
"1014 474 CURVE",
"891 495 OFFCURVE",
"812 518 OFFCURVE",
"778 543 CURVE",
"808 579 OFFCURVE",
"823 620 OFFCURVE",
"823 666 CURVE SMOOTH",
"823 767 OFFCURVE",
"741 849 OFFCURVE",
"634 849 CURVE SMOOTH",
"531 849 OFFCURVE",
"443 771 OFFCURVE",
"443 666 CURVE SMOOTH",
"443 543 OFFCURVE",
"535 465 OFFCURVE",
"766 404 CURVE SMOOTH",
"843 381 LINE",
"819 237 OFFCURVE",
"686 118 OFFCURVE",
"561 118 CURVE SMOOTH",
"417 118 OFFCURVE",
"342 193 OFFCURVE",
"307 364 CURVE SMOOTH",
"289 449 OFFCURVE",
"280 580 OFFCURVE",
"280 755 CURVE SMOOTH",
"280 965 LINE SMOOTH",
"280 1142 OFFCURVE",
"289 1273 OFFCURVE",
"307 1358 CURVE SMOOTH",
"342 1527 OFFCURVE",
"417 1602 OFFCURVE",
"561 1602 CURVE SMOOTH",
"690 1602 OFFCURVE",
"803 1494 OFFCURVE",
"843 1341 CURVE",
"981 1383 LINE",
"960 1460 OFFCURVE",
"929 1524 OFFCURVE",
"887 1577 CURVE SMOOTH",
"803 1681 OFFCURVE",
"687 1740 OFFCURVE",
"567 1740 CURVE SMOOTH",
"252 1740 OFFCURVE",
"110 1494 OFFCURVE",
"110 945 CURVE SMOOTH",
"110 775 LINE SMOOTH",
"110 224 OFFCURVE",
"252 -20 OFFCURVE",
"567 -20 CURVE SMOOTH"
);
},
{
closed = 1;
nodes = (
"591 589 OFFCURVE",
"559 621 OFFCURVE",
"559 664 CURVE SMOOTH",
"559 705 OFFCURVE",
"591 737 OFFCURVE",
"634 737 CURVE SMOOTH",
"675 737 OFFCURVE",
"707 705 OFFCURVE",
"707 664 CURVE SMOOTH",
"707 621 OFFCURVE",
"675 589 OFFCURVE",
"634 589 CURVE SMOOTH"
);
}
);
width = 1094;
}
);
note = uni1A86;
unicode = 1A86;
},
{
glyphname = uni1A87;
lastChange = "2016-11-10 14:44:19 +0000";
layers = (
{
layerId = "6FF31E7C-07F6-4791-B014-BC1FF1C32251";
paths = (
{
closed = 1;
nodes = (
"1267 -570 OFFCURVE",
"1344 -537 OFFCURVE",
"1440 -446 CURVE",
"1339 -342 LINE",
"1299 -398 OFFCURVE",
"1232 -432 OFFCURVE",
"1168 -432 CURVE SMOOTH",
"1069 -432 OFFCURVE",
"1020 -351 OFFCURVE",
"994 -168 CURVE SMOOTH",
"981 -77 OFFCURVE",
"974 46 OFFCURVE",
"974 201 CURVE SMOOTH",
"974 357 LINE SMOOTH",
"974 884 OFFCURVE",
"832 1118 OFFCURVE",
"513 1118 CURVE SMOOTH",
"436 1118 OFFCURVE",
"363 1096 OFFCURVE",
"296 1052 CURVE SMOOTH",
"161 964 OFFCURVE",
"80 799 OFFCURVE",
"80 600 CURVE SMOOTH",
"80 472 OFFCURVE",
"163 394 OFFCURVE",
"271 394 CURVE SMOOTH",
"374 394 OFFCURVE",
"460 479 OFFCURVE",
"460 583 CURVE SMOOTH",
"460 692 OFFCURVE",
"374 774 OFFCURVE",
"259 774 CURVE",
"264 813 OFFCURVE",
"278 848 OFFCURVE",
"301 879 CURVE SMOOTH",
"346 941 OFFCURVE",
"420 980 OFFCURVE",
"523 980 CURVE SMOOTH",
"667 980 OFFCURVE",
"742 905 OFFCURVE",
"778 734 CURVE SMOOTH",
"795 649 OFFCURVE",
"804 518 OFFCURVE",
"804 343 CURVE SMOOTH",
"804 144 LINE SMOOTH",
"804 -7 OFFCURVE",
"817 -135 OFFCURVE",
"844 -241 CURVE SMOOTH",
"897 -453 OFFCURVE",
"1011 -570 OFFCURVE",
"1168 -570 CURVE SMOOTH"
);
},
{
closed = 1;
nodes = (
"228 506 OFFCURVE",
"196 538 OFFCURVE",
"196 581 CURVE SMOOTH",
"196 622 OFFCURVE",
"228 654 OFFCURVE",
"271 654 CURVE SMOOTH",
"312 654 OFFCURVE",
"344 622 OFFCURVE",
"344 581 CURVE SMOOTH",
"344 538 OFFCURVE",
"312 506 OFFCURVE",
"271 506 CURVE SMOOTH"
);
}
);
width = 1084;
}
);
note = uni1A87;
unicode = 1A87;
},
{
glyphname = uni1A88;
lastChange = "2016-11-10 14:44:19 +0000";
layers = (
{
layerId = "6FF31E7C-07F6-4791-B014-BC1FF1C32251";
paths = (
{
closed = 1;
nodes = (
"949 39 OFFCURVE",
"1053 264 OFFCURVE",
"1053 525 CURVE SMOOTH",
"1053 648 OFFCURVE",
"1033 755 OFFCURVE",
"994 844 CURVE SMOOTH",
"915 1022 OFFCURVE",
"764 1118 OFFCURVE",
"572 1118 CURVE SMOOTH",
"477 1118 OFFCURVE",
"392 1094 OFFCURVE",
"319 1047 CURVE SMOOTH",
"171 952 OFFCURVE",
"90 770 OFFCURVE",
"90 525 CURVE SMOOTH",
"90 329 OFFCURVE",
"190 192 OFFCURVE",
"327 192 CURVE SMOOTH",
"440 192 OFFCURVE",
"526 276 OFFCURVE",
"526 376 CURVE SMOOTH",
"526 481 OFFCURVE",
"440 560 OFFCURVE",
"327 560 CURVE SMOOTH",
"297 560 OFFCURVE",
"270 555 OFFCURVE",
"246 545 CURVE",
"246 581 LINE SMOOTH",
"246 826 OFFCURVE",
"369 980 OFFCURVE",
"565 980 CURVE SMOOTH",
"772 980 OFFCURVE",
"875 827 OFFCURVE",
"875 521 CURVE SMOOTH",
"875 265 OFFCURVE",
"826 123 OFFCURVE",
"707 64 CURVE",
"776 -44 LINE"
);
},
{
closed = 1;
nodes = (
"283 299 OFFCURVE",
"252 331 OFFCURVE",
"252 372 CURVE SMOOTH",
"252 415 OFFCURVE",
"283 447 OFFCURVE",
"326 447 CURVE SMOOTH",
"369 447 OFFCURVE",
"403 415 OFFCURVE",
"403 372 CURVE SMOOTH",
"403 331 OFFCURVE",
"369 299 OFFCURVE",
"326 299 CURVE SMOOTH"
);
}
);
width = 1143;
}
);
note = uni1A88;
unicode = 1A88;
},
{
glyphname = uni1A89;
lastChange = "2016-11-10 14:44:19 +0000";
layers = (
{
layerId = "6FF31E7C-07F6-4791-B014-BC1FF1C32251";
paths = (
{
closed = 1;
nodes = (
"627 -570 OFFCURVE",
"685 -556 OFFCURVE",
"741 -527 CURVE SMOOTH",
"852 -471 OFFCURVE",
"941 -366 OFFCURVE",
"981 -213 CURVE",
"843 -171 LINE",
"803 -326 OFFCURVE",
"689 -432 OFFCURVE",
"561 -432 CURVE SMOOTH",
"417 -432 OFFCURVE",
"342 -357 OFFCURVE",
"307 -186 CURVE SMOOTH",
"289 -101 OFFCURVE",
"280 30 OFFCURVE",
"280 205 CURVE SMOOTH",
"280 343 LINE SMOOTH",
"280 520 OFFCURVE",
"289 651 OFFCURVE",
"307 736 CURVE SMOOTH",
"342 905 OFFCURVE",
"417 980 OFFCURVE",
"561 980 CURVE SMOOTH",
"685 980 OFFCURVE",
"819 861 OFFCURVE",
"843 717 CURVE",
"766 695 LINE SMOOTH",
"534 632 OFFCURVE",
"443 555 OFFCURVE",
"443 432 CURVE SMOOTH",
"443 328 OFFCURVE",
"530 249 OFFCURVE",
"634 249 CURVE SMOOTH",
"741 249 OFFCURVE",
"823 331 OFFCURVE",
"823 432 CURVE SMOOTH",
"823 478 OFFCURVE",
"808 519 OFFCURVE",
"778 555 CURVE",
"812 580 OFFCURVE",
"891 603 OFFCURVE",
"1014 624 CURVE",
"1000 722 OFFCURVE",
"973 808 OFFCURVE",
"934 882 CURVE SMOOTH",
"854 1029 OFFCURVE",
"711 1118 OFFCURVE",
"567 1118 CURVE SMOOTH",
"252 1118 OFFCURVE",
"110 872 OFFCURVE",
"110 323 CURVE SMOOTH",
"110 225 LINE SMOOTH",
"110 -326 OFFCURVE",
"252 -570 OFFCURVE",
"567 -570 CURVE SMOOTH"
);
},
{
closed = 1;
nodes = (
"591 361 OFFCURVE",
"559 393 OFFCURVE",
"559 434 CURVE SMOOTH",
"559 477 OFFCURVE",
"591 509 OFFCURVE",
"634 509 CURVE SMOOTH",
"675 509 OFFCURVE",
"707 477 OFFCURVE",
"707 434 CURVE SMOOTH",
"707 393 OFFCURVE",
"675 361 OFFCURVE",
"634 361 CURVE SMOOTH"
);
}
);
width = 1094;
}
);
note = uni1A89;
unicode = 1A89;
},
{
glyphname = uni1A90;
lastChange = "2016-11-10 14:44:19 +0000";
layers = (
{
layerId = "6FF31E7C-07F6-4791-B014-BC1FF1C32251";
paths = (
{
closed = 1;
nodes = (
"834 -20 OFFCURVE",
"1013 203 OFFCURVE",
"1013 551 CURVE SMOOTH",
"1013 663 OFFCURVE",
"994 762 OFFCURVE",
"957 848 CURVE SMOOTH",
"881 1020 OFFCURVE",
"737 1118 OFFCURVE",
"554 1118 CURVE SMOOTH",
"462 1118 OFFCURVE",
"381 1095 OFFCURVE",
"310 1048 CURVE SMOOTH",
"169 954 OFFCURVE",
"90 772 OFFCURVE",
"90 551 CURVE SMOOTH",
"90 444 OFFCURVE",
"110 347 OFFCURVE",
"149 260 CURVE SMOOTH",
"227 84 OFFCURVE",
"374 -20 OFFCURVE",
"547 -20 CURVE SMOOTH"
);
},
{
closed = 1;
nodes = (
"373 118 OFFCURVE",
"268 283 OFFCURVE",
"268 551 CURVE SMOOTH",
"268 822 OFFCURVE",
"372 980 OFFCURVE",
"549 980 CURVE SMOOTH",
"733 980 OFFCURVE",
"835 826 OFFCURVE",
"835 551 CURVE SMOOTH",
"835 279 OFFCURVE",
"735 118 OFFCURVE",
"552 118 CURVE SMOOTH"
);
}
);
width = 1103;
}
);
note = uni1A90;
unicode = 1A90;
},
{
glyphname = uni1A91;
lastChange = "2016-11-10 14:44:19 +0000";
layers = (
{
layerId = "6FF31E7C-07F6-4791-B014-BC1FF1C32251";
paths = (
{
closed = 1;
nodes = (
"440 192 OFFCURVE",
"526 276 OFFCURVE",
"526 376 CURVE SMOOTH",
"526 481 OFFCURVE",
"440 560 OFFCURVE",
"327 560 CURVE SMOOTH",
"297 560 OFFCURVE",
"270 555 OFFCURVE",
"246 545 CURVE",
"246 581 LINE SMOOTH",
"246 826 OFFCURVE",
"369 980 OFFCURVE",
"565 980 CURVE SMOOTH",
"772 980 OFFCURVE",
"875 827 OFFCURVE",
"875 521 CURVE SMOOTH",
"873 447 LINE",
"1024 409 LINE",
"1220 541 OFFCURVE",
"1316 730 OFFCURVE",
"1316 947 CURVE SMOOTH",
"1316 1008 OFFCURVE",
"1310 1063 OFFCURVE",
"1297 1110 CURVE",
"1135 1079 LINE",
"1145 1032 OFFCURVE",
"1150 984 OFFCURVE",
"1150 934 CURVE SMOOTH",
"1150 797 OFFCURVE",
"1108 668 OFFCURVE",
"1040 607 CURVE",
"1016 927 OFFCURVE",
"843 1118 OFFCURVE",
"572 1118 CURVE SMOOTH",
"477 1118 OFFCURVE",
"392 1094 OFFCURVE",
"319 1047 CURVE SMOOTH",
"171 952 OFFCURVE",
"90 770 OFFCURVE",
"90 525 CURVE SMOOTH",
"90 329 OFFCURVE",
"190 192 OFFCURVE",
"327 192 CURVE SMOOTH"
);
},
{
closed = 1;
nodes = (
"283 299 OFFCURVE",
"252 331 OFFCURVE",
"252 372 CURVE SMOOTH",
"252 415 OFFCURVE",
"283 447 OFFCURVE",
"326 447 CURVE SMOOTH",
"369 447 OFFCURVE",
"403 415 OFFCURVE",
"403 372 CURVE SMOOTH",
"403 331 OFFCURVE",
"369 299 OFFCURVE",
"326 299 CURVE SMOOTH"
);
}
);
width = 1356;
}
);
note = uni1A91;
unicode = 1A91;
},
{
glyphname = uni1A92;
lastChange = "2016-11-10 14:44:19 +0000";
layers = (
{
layerId = "6FF31E7C-07F6-4791-B014-BC1FF1C32251";
paths = (
{
closed = 1;
nodes = (
"529 -20 OFFCURVE",
"615 64 OFFCURVE",
"615 164 CURVE SMOOTH",
"615 269 OFFCURVE",
"529 348 OFFCURVE",
"416 348 CURVE SMOOTH",
"394 348 OFFCURVE",
"373 344 OFFCURVE",
"352 337 CURVE",
"337 385 OFFCURVE",
"330 464 OFFCURVE",
"330 573 CURVE SMOOTH",
"330 965 LINE SMOOTH",
"330 1142 OFFCURVE",
"339 1273 OFFCURVE",
"357 1358 CURVE SMOOTH",
"392 1527 OFFCURVE",
"467 1602 OFFCURVE",
"611 1602 CURVE SMOOTH",
"740 1602 OFFCURVE",
"853 1494 OFFCURVE",
"893 1341 CURVE",
"1031 1383 LINE",
"1010 1460 OFFCURVE",
"979 1524 OFFCURVE",
"937 1577 CURVE SMOOTH",
"853 1681 OFFCURVE",
"737 1740 OFFCURVE",
"617 1740 CURVE SMOOTH",
"302 1740 OFFCURVE",
"160 1494 OFFCURVE",
"160 945 CURVE SMOOTH",
"160 447 LINE SMOOTH",
"160 147 OFFCURVE",
"248 -20 OFFCURVE",
"416 -20 CURVE SMOOTH"
);
},
{
closed = 1;
nodes = (
"372 87 OFFCURVE",
"341 119 OFFCURVE",
"341 160 CURVE SMOOTH",
"341 203 OFFCURVE",
"372 235 OFFCURVE",
"415 235 CURVE SMOOTH",
"458 235 OFFCURVE",
"492 203 OFFCURVE",
"492 160 CURVE SMOOTH",
"492 119 OFFCURVE",
"458 87 OFFCURVE",
"415 87 CURVE SMOOTH"
);
}
);
width = 831;
}
);
note = uni1A92;
unicode = 1A92;
},
{
glyphname = uni1A93;
lastChange = "2016-11-10 14:44:19 +0000";
layers = (
{
layerId = "6FF31E7C-07F6-4791-B014-BC1FF1C32251";
paths = (
{
closed = 1;
nodes = (
"655 -20 OFFCURVE",
"790 40 OFFCURVE",
"886 159 CURVE",
"979 48 OFFCURVE",
"1122 -20 OFFCURVE",
"1279 -20 CURVE SMOOTH",
"1369 -20 OFFCURVE",
"1450 4 OFFCURVE",
"1523 51 CURVE SMOOTH",
"1668 146 OFFCURVE",
"1754 330 OFFCURVE",
"1754 563 CURVE SMOOTH",
"1754 887 OFFCURVE",
"1608 1082 OFFCURVE",
"1311 1118 CURVE SMOOTH",
"1067 1146 OFFCURVE",
"989 1222 OFFCURVE",
"989 1374 CURVE SMOOTH",
"989 1498 OFFCURVE",
"1014 1603 OFFCURVE",
"1033 1679 CURVE",
"879 1740 LINE",
"848 1659 OFFCURVE",
"819 1497 OFFCURVE",
"819 1400 CURVE SMOOTH",
"819 1281 OFFCURVE",
"852 1196 OFFCURVE",
"915 1132 CURVE SMOOTH",
"978 1068 OFFCURVE",
"1063 1024 OFFCURVE",
"1288 980 CURVE SMOOTH",
"1500 941 OFFCURVE",
"1576 817 OFFCURVE",
"1576 565 CURVE SMOOTH",
"1576 292 OFFCURVE",
"1466 118 OFFCURVE",
"1278 118 CURVE SMOOTH",
"1150 118 OFFCURVE",
"1014 207 OFFCURVE",
"966 304 CURVE",
"993 375 OFFCURVE",
"1006 458 OFFCURVE",
"1006 553 CURVE SMOOTH",
"1006 674 OFFCURVE",
"986 776 OFFCURVE",
"947 861 CURVE SMOOTH",
"867 1030 OFFCURVE",
"718 1118 OFFCURVE",
"518 1118 CURVE SMOOTH",
"363 1118 OFFCURVE",
"214 1046 OFFCURVE",
"118 915 CURVE",
"249 839 LINE",
"304 926 OFFCURVE",
"405 980 OFFCURVE",
"509 980 CURVE SMOOTH",
"709 980 OFFCURVE",
"828 828 OFFCURVE",
"828 555 CURVE SMOOTH",
"828 292 OFFCURVE",
"707 118 OFFCURVE",
"520 118 CURVE SMOOTH",
"391 118 OFFCURVE",
"257 212 OFFCURVE",
"212 313 CURVE",
"80 238 LINE",
"181 69 OFFCURVE",
"331 -20 OFFCURVE",
"511 -20 CURVE SMOOTH"
);
}
);
width = 1844;
}
);
note = uni1A93;
unicode = 1A93;
},
{
glyphname = uni1A94;
lastChange = "2016-11-10 14:44:19 +0000";
layers = (
{
layerId = "6FF31E7C-07F6-4791-B014-BC1FF1C32251";
paths = (
{
closed = 1;
nodes = (
"722 -570 OFFCURVE",
"790 -554 OFFCURVE",
"859 -522 CURVE SMOOTH",
"997 -459 OFFCURVE",
"1084 -353 OFFCURVE",
"1121 -213 CURVE",
"983 -171 LINE",
"947 -314 OFFCURVE",
"791 -432 OFFCURVE",
"651 -432 CURVE SMOOTH",
"396 -432 OFFCURVE",
"279 -250 OFFCURVE",
"270 163 CURVE",
"386 43 OFFCURVE",
"539 -20 OFFCURVE",
"703 -20 CURVE SMOOTH",
"812 -20 OFFCURVE",
"908 -4 OFFCURVE",
"991 28 CURVE SMOOTH",
"1155 91 OFFCURVE",
"1245 213 OFFCURVE",
"1245 358 CURVE SMOOTH",
"1245 468 OFFCURVE",
"1184 548 OFFCURVE",
"1061 598 CURVE",
"1194 653 OFFCURVE",
"1245 722 OFFCURVE",
"1245 835 CURVE SMOOTH",
"1245 887 OFFCURVE",
"1229 935 OFFCURVE",
"1198 979 CURVE SMOOTH",
"1135 1066 OFFCURVE",
"1017 1118 OFFCURVE",
"865 1118 CURVE SMOOTH",
"798 1118 OFFCURVE",
"733 1108 OFFCURVE",
"671 1087 CURVE",
"721 962 LINE",
"764 974 OFFCURVE",
"805 980 OFFCURVE",
"846 980 CURVE SMOOTH",
"994 980 OFFCURVE",
"1069 922 OFFCURVE",
"1069 835 CURVE SMOOTH",
"1069 791 OFFCURVE",
"1058 756 OFFCURVE",
"1037 729 CURVE SMOOTH",
"993 675 OFFCURVE",
"926 649 OFFCURVE",
"783 646 CURVE",
"783 527 LINE",
"808 527 LINE SMOOTH",
"865 527 OFFCURVE",
"912 519 OFFCURVE",
"951 504 CURVE SMOOTH",
"1027 473 OFFCURVE",
"1069 415 OFFCURVE",
"1069 346 CURVE SMOOTH",
"1069 202 OFFCURVE",
"938 118 OFFCURVE",
"693 118 CURVE SMOOTH",
"615 118 OFFCURVE",
"544 137 OFFCURVE",
"481 176 CURVE SMOOTH",
"353 252 OFFCURVE",
"278 396 OFFCURVE",
"278 575 CURVE SMOOTH",
"278 644 OFFCURVE",
"285 700 OFFCURVE",
"300 745 CURVE SMOOTH",
"328 834 OFFCURVE",
"387 918 OFFCURVE",
"491 999 CURVE",
"420 1108 LINE",
"231 1009 OFFCURVE",
"100 793 OFFCURVE",
"100 577 CURVE",
"102 528 LINE",
"100 531 LINE",
"100 225 LINE SMOOTH",
"100 -292 OFFCURVE",
"298 -570 OFFCURVE",
"657 -570 CURVE SMOOTH"
);
}
);
width = 1345;
}
);
note = uni1A94;
unicode = 1A94;
},
{
glyphname = uni1A95;
lastChange = "2016-11-10 14:44:19 +0000";
layers = (
{
layerId = "6FF31E7C-07F6-4791-B014-BC1FF1C32251";
paths = (
{
closed = 1;
nodes = (
"791 -20 OFFCURVE",
"891 -4 OFFCURVE",
"976 28 CURVE SMOOTH",
"1144 91 OFFCURVE",
"1235 210 OFFCURVE",
"1235 358 CURVE SMOOTH",
"1235 468 OFFCURVE",
"1174 548 OFFCURVE",
"1051 598 CURVE",
"1184 653 OFFCURVE",
"1235 722 OFFCURVE",
"1235 835 CURVE SMOOTH",
"1235 887 OFFCURVE",
"1219 935 OFFCURVE",
"1188 979 CURVE SMOOTH",
"1125 1066 OFFCURVE",
"1007 1118 OFFCURVE",
"855 1118 CURVE SMOOTH",
"786 1118 OFFCURVE",
"719 1107 OFFCURVE",
"652 1084 CURVE",
"705 960 LINE",
"750 973 OFFCURVE",
"794 980 OFFCURVE",
"836 980 CURVE SMOOTH",
"984 980 OFFCURVE",
"1059 922 OFFCURVE",
"1059 835 CURVE SMOOTH",
"1059 710 OFFCURVE",
"978 646 OFFCURVE",
"762 646 CURVE",
"762 526 LINE",
"798 527 LINE SMOOTH",
"855 527 OFFCURVE",
"902 519 OFFCURVE",
"941 504 CURVE SMOOTH",
"1017 473 OFFCURVE",
"1059 415 OFFCURVE",
"1059 346 CURVE SMOOTH",
"1059 202 OFFCURVE",
"928 118 OFFCURVE",
"683 118 CURVE SMOOTH",
"604 118 OFFCURVE",
"532 137 OFFCURVE",
"469 174 CURVE SMOOTH",
"341 248 OFFCURVE",
"268 387 OFFCURVE",
"268 575 CURVE SMOOTH",
"268 632 OFFCURVE",
"274 685 OFFCURVE",
"286 732 CURVE SMOOTH",
"310 827 OFFCURVE",
"346 895 OFFCURVE",
"447 1011 CURVE SMOOTH",
"503 1075 OFFCURVE",
"541 1124 OFFCURVE",
"561 1158 CURVE SMOOTH",
"601 1226 OFFCURVE",
"625 1301 OFFCURVE",
"625 1400 CURVE SMOOTH",
"625 1495 OFFCURVE",
"596 1653 OFFCURVE",
"565 1740 CURVE",
"411 1679 LINE",
"430 1603 OFFCURVE",
"455 1498 OFFCURVE",
"455 1374 CURVE SMOOTH",
"455 1258 OFFCURVE",
"405 1163 OFFCURVE",
"273 1010 CURVE SMOOTH",
"149 867 OFFCURVE",
"90 727 OFFCURVE",
"90 563 CURVE SMOOTH",
"90 450 OFFCURVE",
"114 350 OFFCURVE",
"163 261 CURVE SMOOTH",
"259 83 OFFCURVE",
"445 -20 OFFCURVE",
"676 -20 CURVE SMOOTH"
);
}
);
width = 1325;
}
);
note = uni1A95;
unicode = 1A95;
},
{
glyphname = uni1A96;
lastChange = "2016-11-10 14:44:19 +0000";
layers = (
{
layerId = "6FF31E7C-07F6-4791-B014-BC1FF1C32251";
paths = (
{
closed = 1;
nodes = (
"583 -20 OFFCURVE",
"668 25 OFFCURVE",
"711 116 CURVE",
"752 21 OFFCURVE",
"842 -20 OFFCURVE",
"943 -20 CURVE SMOOTH",
"1006 -20 OFFCURVE",
"1064 3 OFFCURVE",
"1117 50 CURVE SMOOTH",
"1223 143 OFFCURVE",
"1287 316 OFFCURVE",
"1287 535 CURVE SMOOTH",
"1287 1277 LINE SMOOTH",
"1287 1478 OFFCURVE",
"1378 1600 OFFCURVE",
"1539 1600 CURVE SMOOTH",
"1562 1600 OFFCURVE",
"1584 1598 OFFCURVE",
"1605 1594 CURVE",
"1637 1732 LINE",
"1609 1737 OFFCURVE",
"1579 1740 OFFCURVE",
"1547 1740 CURVE SMOOTH",
"1282 1740 OFFCURVE",
"1117 1548 OFFCURVE",
"1117 1244 CURVE SMOOTH",
"1117 535 LINE SMOOTH",
"1117 446 OFFCURVE",
"1109 371 OFFCURVE",
"1094 309 CURVE SMOOTH",
"1062 184 OFFCURVE",
"1007 118 OFFCURVE",
"939 118 CURVE SMOOTH",
"848 118 OFFCURVE",
"794 209 OFFCURVE",
"777 390 CURVE",
"646 390 LINE",
"629 207 OFFCURVE",
"571 118 OFFCURVE",
"458 118 CURVE SMOOTH",
"331 118 OFFCURVE",
"268 188 OFFCURVE",
"268 328 CURVE SMOOTH",
"268 453 OFFCURVE",
"365 527 OFFCURVE",
"529 527 CURVE SMOOTH",
"545 527 LINE",
"565 526 LINE",
"565 646 LINE",
"354 646 OFFCURVE",
"268 711 OFFCURVE",
"268 835 CURVE SMOOTH",
"268 922 OFFCURVE",
"341 980 OFFCURVE",
"489 980 CURVE SMOOTH",
"534 980 OFFCURVE",
"579 973 OFFCURVE",
"626 958 CURVE",
"678 1082 LINE",
"607 1106 OFFCURVE",
"538 1118 OFFCURVE",
"470 1118 CURVE SMOOTH",
"395 1118 OFFCURVE",
"328 1106 OFFCURVE",
"271 1082 CURVE SMOOTH",
"156 1033 OFFCURVE",
"90 939 OFFCURVE",
"90 835 CURVE SMOOTH",
"90 724 OFFCURVE",
"139 653 OFFCURVE",
"274 598 CURVE",
"157 539 OFFCURVE",
"90 443 OFFCURVE",
"90 327 CURVE SMOOTH",
"90 120 OFFCURVE",
"229 -20 OFFCURVE",
"456 -20 CURVE SMOOTH"
);
}
);
width = 1387;
}
);
note = uni1A96;
unicode = 1A96;
},
{
glyphname = uni1A97;
lastChange = "2016-11-10 14:44:19 +0000";
layers = (
{
layerId = "6FF31E7C-07F6-4791-B014-BC1FF1C32251";
paths = (
{
closed = 1;
nodes = (
"583 -20 OFFCURVE",
"668 25 OFFCURVE",
"711 116 CURVE",
"752 21 OFFCURVE",
"842 -20 OFFCURVE",
"943 -20 CURVE SMOOTH",
"1005 -20 OFFCURVE",
"1064 3 OFFCURVE",
"1119 50 CURVE SMOOTH",
"1229 142 OFFCURVE",
"1295 316 OFFCURVE",
"1295 535 CURVE SMOOTH",
"1295 806 OFFCURVE",
"1183 1010 OFFCURVE",
"978 1118 CURVE",
"897 994 LINE",
"1049 894 OFFCURVE",
"1117 750 OFFCURVE",
"1117 535 CURVE SMOOTH",
"1117 446 OFFCURVE",
"1109 371 OFFCURVE",
"1094 309 CURVE SMOOTH",
"1062 184 OFFCURVE",
"1007 118 OFFCURVE",
"939 118 CURVE SMOOTH",
"848 118 OFFCURVE",
"794 209 OFFCURVE",
"777 390 CURVE",
"646 390 LINE",
"629 207 OFFCURVE",
"571 118 OFFCURVE",
"458 118 CURVE SMOOTH",
"331 118 OFFCURVE",
"268 188 OFFCURVE",
"268 328 CURVE SMOOTH",
"268 453 OFFCURVE",
"365 527 OFFCURVE",
"529 527 CURVE SMOOTH",
"545 527 LINE",
"565 526 LINE",
"565 646 LINE",
"354 646 OFFCURVE",
"268 711 OFFCURVE",
"268 835 CURVE SMOOTH",
"268 922 OFFCURVE",
"341 980 OFFCURVE",
"489 980 CURVE SMOOTH",
"534 980 OFFCURVE",
"579 973 OFFCURVE",
"626 958 CURVE",
"678 1082 LINE",
"607 1106 OFFCURVE",
"538 1118 OFFCURVE",
"470 1118 CURVE SMOOTH",
"395 1118 OFFCURVE",
"328 1106 OFFCURVE",
"271 1082 CURVE SMOOTH",
"156 1033 OFFCURVE",
"90 939 OFFCURVE",
"90 835 CURVE SMOOTH",
"90 724 OFFCURVE",
"139 653 OFFCURVE",
"274 598 CURVE",
"157 539 OFFCURVE",
"90 443 OFFCURVE",
"90 327 CURVE SMOOTH",
"90 120 OFFCURVE",
"229 -20 OFFCURVE",
"456 -20 CURVE SMOOTH"
);
}
);
width = 1385;
}
);
note = uni1A97;
unicode = 1A97;
},
{
glyphname = uni1A98;
lastChange = "2016-11-10 14:44:19 +0000";
layers = (
{
layerId = "6FF31E7C-07F6-4791-B014-BC1FF1C32251";
paths = (
{
closed = 1;
nodes = (
"1351 -570 OFFCURVE",
"1441 -482 OFFCURVE",
"1441 -341 CURVE SMOOTH",
"1441 -230 OFFCURVE",
"1326 -154 OFFCURVE",
"1150 -154 CURVE",
"1064 -158 LINE",
"1063 -90 LINE",
"1063 69 LINE",
"1186 205 OFFCURVE",
"1257 404 OFFCURVE",
"1257 613 CURVE SMOOTH",
"1257 714 OFFCURVE",
"1242 802 OFFCURVE",
"1212 879 CURVE SMOOTH",
"1152 1031 OFFCURVE",
"1040 1118 OFFCURVE",
"915 1118 CURVE SMOOTH",
"800 1118 OFFCURVE",
"719 1066 OFFCURVE",
"673 963 CURVE",
"627 1066 OFFCURVE",
"547 1118 OFFCURVE",
"432 1118 CURVE SMOOTH",
"370 1118 OFFCURVE",
"313 1097 OFFCURVE",
"260 1056 CURVE SMOOTH",
"154 972 OFFCURVE",
"90 814 OFFCURVE",
"90 613 CURVE SMOOTH",
"90 353 OFFCURVE",
"197 115 OFFCURVE",
"385 -20 CURVE",
"454 99 LINE",
"335 199 OFFCURVE",
"268 375 OFFCURVE",
"268 590 CURVE SMOOTH",
"268 714 OFFCURVE",
"282 810 OFFCURVE",
"311 878 CURVE SMOOTH",
"339 946 OFFCURVE",
"381 980 OFFCURVE",
"436 980 CURVE SMOOTH",
"532 980 OFFCURVE",
"592 881 OFFCURVE",
"608 708 CURVE",
"739 708 LINE",
"755 880 OFFCURVE",
"814 980 OFFCURVE",
"911 980 CURVE SMOOTH",
"966 980 OFFCURVE",
"1008 946 OFFCURVE",
"1037 877 CURVE SMOOTH",
"1065 808 OFFCURVE",
"1079 713 OFFCURVE",
"1079 590 CURVE SMOOTH",
"1079 375 OFFCURVE",
"1012 198 OFFCURVE",
"893 99 CURVE",
"893 -89 LINE SMOOTH",
"893 -124 OFFCURVE",
"894 -156 OFFCURVE",
"897 -187 CURVE",
"680 -243 OFFCURVE",
"481 -332 OFFCURVE",
"413 -395 CURVE",
"461 -515 LINE",
"566 -444 OFFCURVE",
"740 -374 OFFCURVE",
"924 -330 CURVE",
"971 -486 OFFCURVE",
"1072 -570 OFFCURVE",
"1219 -570 CURVE SMOOTH"
);
},
{
closed = 1;
nodes = (
"1133 -432 OFFCURVE",
"1098 -391 OFFCURVE",
"1078 -300 CURVE",
"1117 -295 OFFCURVE",
"1152 -292 OFFCURVE",
"1183 -292 CURVE SMOOTH",
"1258 -292 OFFCURVE",
"1296 -314 OFFCURVE",
"1296 -358 CURVE SMOOTH",
"1296 -402 OFFCURVE",
"1265 -432 OFFCURVE",
"1218 -432 CURVE SMOOTH"
);
}
);
width = 1347;
}
);
note = uni1A98;
unicode = 1A98;
},
{
glyphname = uni1A99;
lastChange = "2016-11-10 14:44:19 +0000";
layers = (
{
layerId = "6FF31E7C-07F6-4791-B014-BC1FF1C32251";
paths = (
{
closed = 1;
nodes = (
"717 -20 OFFCURVE",
"827 66 OFFCURVE",
"827 191 CURVE SMOOTH",
"827 296 OFFCURVE",
"741 375 OFFCURVE",
"628 375 CURVE SMOOTH",
"524 375 OFFCURVE",
"440 294 OFFCURVE",
"440 191 CURVE SMOOTH",
"440 168 OFFCURVE",
"443 147 OFFCURVE",
"450 129 CURVE",
"335 172 OFFCURVE",
"268 333 OFFCURVE",
"268 569 CURVE SMOOTH",
"268 822 OFFCURVE",
"353 980 OFFCURVE",
"493 980 CURVE SMOOTH",
"529 980 OFFCURVE",
"564 964 OFFCURVE",
"597 933 CURVE SMOOTH",
"630 901 OFFCURVE",
"672 836 OFFCURVE",
"724 739 CURVE SMOOTH",
"924 368 LINE SMOOTH",
"981 262 OFFCURVE",
"1030 185 OFFCURVE",
"1070 136 CURVE SMOOTH",
"1150 39 OFFCURVE",
"1240 -20 OFFCURVE",
"1347 -20 CURVE SMOOTH",
"1424 -20 OFFCURVE",
"1493 3 OFFCURVE",
"1554 48 CURVE SMOOTH",
"1677 139 OFFCURVE",
"1749 314 OFFCURVE",
"1749 527 CURVE SMOOTH",
"1749 636 OFFCURVE",
"1730 736 OFFCURVE",
"1691 827 CURVE SMOOTH",
"1614 1009 OFFCURVE",
"1473 1118 OFFCURVE",
"1324 1118 CURVE SMOOTH",
"1193 1118 OFFCURVE",
"1093 1061 OFFCURVE",
"1029 974 CURVE",
"1131 883 LINE",
"1176 948 OFFCURVE",
"1240 980 OFFCURVE",
"1321 980 CURVE SMOOTH",
"1477 980 OFFCURVE",
"1571 810 OFFCURVE",
"1571 529 CURVE SMOOTH",
"1571 442 OFFCURVE",
"1562 368 OFFCURVE",
"1543 306 CURVE SMOOTH",
"1505 182 OFFCURVE",
"1434 118 OFFCURVE",
"1346 118 CURVE SMOOTH",
"1310 118 OFFCURVE",
"1276 134 OFFCURVE",
"1243 166 CURVE SMOOTH",
"1210 198 OFFCURVE",
"1167 262 OFFCURVE",
"1115 359 CURVE SMOOTH",
"915 730 LINE SMOOTH",
"858 836 OFFCURVE",
"809 913 OFFCURVE",
"769 962 CURVE SMOOTH",
"689 1059 OFFCURVE",
"599 1118 OFFCURVE",
"492 1118 CURVE SMOOTH",
"415 1118 OFFCURVE",
"346 1095 OFFCURVE",
"285 1050 CURVE SMOOTH",
"161 959 OFFCURVE",
"90 786 OFFCURVE",
"90 571 CURVE SMOOTH",
"90 460 OFFCURVE",
"110 359 OFFCURVE",
"151 269 CURVE SMOOTH",
"231 88 OFFCURVE",
"380 -20 OFFCURVE",
"548 -20 CURVE SMOOTH"
);
},
{
closed = 1;
nodes = (
"584 114 OFFCURVE",
"553 146 OFFCURVE",
"553 187 CURVE SMOOTH",
"553 230 OFFCURVE",
"584 262 OFFCURVE",
"627 262 CURVE SMOOTH",
"670 262 OFFCURVE",
"704 230 OFFCURVE",
"704 187 CURVE SMOOTH",
"704 146 OFFCURVE",
"670 114 OFFCURVE",
"627 114 CURVE SMOOTH"
);
}
);
width = 1839;
}
);
note = uni1A99;
unicode = 1A99;
},
{
glyphname = uni1AA0;
lastChange = "2016-11-10 14:44:19 +0000";
layers = (
{
layerId = "6FF31E7C-07F6-4791-B014-BC1FF1C32251";
paths = (
{
closed = 1;
nodes = (
"845 -20 OFFCURVE",
"949 7 OFFCURVE",
"1047 62 CURVE SMOOTH",
"1243 171 OFFCURVE",
"1368 379 OFFCURVE",
"1368 610 CURVE SMOOTH",
"1368 726 OFFCURVE",
"1339 833 OFFCURVE",
"1281 930 CURVE SMOOTH",
"1165 1124 OFFCURVE",
"957 1240 OFFCURVE",
"734 1240 CURVE SMOOTH",
"623 1240 OFFCURVE",
"519 1213 OFFCURVE",
"421 1158 CURVE SMOOTH",
"225 1049 OFFCURVE",
"100 841 OFFCURVE",
"100 610 CURVE SMOOTH",
"100 495 OFFCURVE",
"129 388 OFFCURVE",
"187 291 CURVE SMOOTH",
"302 96 OFFCURVE",
"511 -20 OFFCURVE",
"734 -20 CURVE SMOOTH"
);
},
{
closed = 1;
nodes = (
"448 164 OFFCURVE",
"287 325 OFFCURVE",
"252 530 CURVE",
"649 530 LINE",
"649 129 LINE"
);
},
{
closed = 1;
nodes = (
"276 881 OFFCURVE",
"440 1053 OFFCURVE",
"649 1090 CURVE",
"649 670 LINE",
"249 670 LINE"
);
},
{
closed = 1;
nodes = (
"819 530 LINE",
"1215 530 LINE",
"1183 325 OFFCURVE",
"1018 162 OFFCURVE",
"819 129 CURVE"
);
},
{
closed = 1;
nodes = (
"819 1090 LINE",
"1028 1053 OFFCURVE",
"1191 882 OFFCURVE",
"1218 670 CURVE",
"819 670 LINE"
);
}
);
width = 1462;
}
);
note = uni1AA0;
unicode = 1AA0;
},
{
glyphname = uni1AA1;
lastChange = "2016-11-10 14:44:19 +0000";
layers = (
{
layerId = "6FF31E7C-07F6-4791-B014-BC1FF1C32251";
paths = (
{
closed = 1;
nodes = (
"845 -20 OFFCURVE",
"949 7 OFFCURVE",
"1047 62 CURVE SMOOTH",
"1243 171 OFFCURVE",
"1368 379 OFFCURVE",
"1368 610 CURVE",
"1365 670 LINE",
"819 670 LINE",
"819 1234 LINE",
"790 1238 OFFCURVE",
"761 1240 OFFCURVE",
"734 1240 CURVE SMOOTH",
"623 1240 OFFCURVE",
"519 1213 OFFCURVE",
"421 1158 CURVE SMOOTH",
"225 1049 OFFCURVE",
"100 841 OFFCURVE",
"100 610 CURVE SMOOTH",
"100 495 OFFCURVE",
"129 388 OFFCURVE",
"187 291 CURVE SMOOTH",
"302 96 OFFCURVE",
"511 -20 OFFCURVE",
"734 -20 CURVE SMOOTH"
);
},
{
closed = 1;
nodes = (
"448 164 OFFCURVE",
"287 325 OFFCURVE",
"252 530 CURVE",
"649 530 LINE",
"649 129 LINE"
);
},
{
closed = 1;
nodes = (
"276 881 OFFCURVE",
"440 1053 OFFCURVE",
"649 1090 CURVE",
"649 670 LINE",
"249 670 LINE"
);
},
{
closed = 1;
nodes = (
"819 530 LINE",
"1215 530 LINE",
"1183 325 OFFCURVE",
"1018 162 OFFCURVE",
"819 129 CURVE"
);
}
);
width = 1468;
}
);
note = uni1AA1;
unicode = 1AA1;
},
{
glyphname = uni1AA2;
lastChange = "2016-11-10 14:44:19 +0000";
layers = (
{
layerId = "6FF31E7C-07F6-4791-B014-BC1FF1C32251";
paths = (
{
closed = 1;
nodes = (
"618 -20 OFFCURVE",
"753 33 OFFCURVE",
"849 144 CURVE",
"948 35 OFFCURVE",
"1089 -20 OFFCURVE",
"1273 -20 CURVE SMOOTH",
"1370 -20 OFFCURVE",
"1457 4 OFFCURVE",
"1534 51 CURVE SMOOTH",
"1686 146 OFFCURVE",
"1774 328 OFFCURVE",
"1774 563 CURVE SMOOTH",
"1774 677 OFFCURVE",
"1754 775 OFFCURVE",
"1714 858 CURVE SMOOTH",
"1633 1023 OFFCURVE",
"1483 1118 OFFCURVE",
"1314 1118 CURVE",
"1270 1116 LINE",
"1270 1206 LINE",
"1397 1229 OFFCURVE",
"1482 1325 OFFCURVE",
"1482 1436 CURVE",
"1477 1491 LINE",
"1561 1527 OFFCURVE",
"1621 1612 OFFCURVE",
"1621 1700 CURVE SMOOTH",
"1621 1817 OFFCURVE",
"1558 1886 OFFCURVE",
"1432 1905 CURVE",
"1432 1944 OFFCURVE",
"1487 1976 OFFCURVE",
"1554 1976 CURVE SMOOTH",
"1631 1976 OFFCURVE",
"1685 1925 OFFCURVE",
"1685 1845 CURVE SMOOTH",
"1685 1756 LINE",
"1734 1756 LINE SMOOTH",
"1788 1756 OFFCURVE",
"1836 1767 OFFCURVE",
"1877 1788 CURVE SMOOTH",
"1960 1831 OFFCURVE",
"2008 1910 OFFCURVE",
"2008 1990 CURVE SMOOTH",
"2008 2104 LINE",
"1864 2104 LINE",
"1864 1978 LINE SMOOTH",
"1864 1948 OFFCURVE",
"1849 1924 OFFCURVE",
"1820 1906 CURVE",
"1780 2031 OFFCURVE",
"1679 2104 OFFCURVE",
"1550 2104 CURVE SMOOTH",
"1383 2104 OFFCURVE",
"1275 1991 OFFCURVE",
"1266 1814 CURVE",
"1397 1814 OFFCURVE",
"1477 1770 OFFCURVE",
"1477 1699 CURVE SMOOTH",
"1477 1634 OFFCURVE",
"1425 1592 OFFCURVE",
"1341 1592 CURVE SMOOTH",
"1278 1592 OFFCURVE",
"1221 1621 OFFCURVE",
"1206 1688 CURVE",
"1071 1645 LINE",
"1102 1541 OFFCURVE",
"1184 1467 OFFCURVE",
"1333 1464 CURVE",
"1338 1435 LINE",
"1338 1370 OFFCURVE",
"1286 1328 OFFCURVE",
"1202 1328 CURVE SMOOTH",
"1139 1328 OFFCURVE",
"1082 1357 OFFCURVE",
"1067 1424 CURVE",
"932 1381 LINE",
"960 1285 OFFCURVE",
"1025 1227 OFFCURVE",
"1126 1207 CURVE",
"1126 1083 LINE",
"1065 1058 OFFCURVE",
"1017 1017 OFFCURVE",
"980 961 CURVE",
"1110 881 LINE",
"1149 941 OFFCURVE",
"1215 980 OFFCURVE",
"1291 980 CURVE SMOOTH",
"1352 980 OFFCURVE",
"1405 964 OFFCURVE",
"1451 931 CURVE SMOOTH",
"1542 866 OFFCURVE",
"1596 738 OFFCURVE",
"1596 565 CURVE SMOOTH",
"1596 289 OFFCURVE",
"1473 118 OFFCURVE",
"1272 118 CURVE SMOOTH",
"1143 118 OFFCURVE",
"993 204 OFFCURVE",
"942 303 CURVE",
"970 378 OFFCURVE",
"984 462 OFFCURVE",
"984 553 CURVE SMOOTH",
"984 674 OFFCURVE",
"964 776 OFFCURVE",
"924 861 CURVE SMOOTH",
"843 1030 OFFCURVE",
"691 1118 OFFCURVE",
"490 1118 CURVE SMOOTH",
"335 1118 OFFCURVE",
"186 1046 OFFCURVE",
"90 915 CURVE",
"221 839 LINE",
"276 926 OFFCURVE",
"377 980 OFFCURVE",
"481 980 CURVE SMOOTH",
"684 980 OFFCURVE",
"806 826 OFFCURVE",
"806 555 CURVE SMOOTH",
"806 295 OFFCURVE",
"680 118 OFFCURVE",
"492 118 CURVE SMOOTH",
"355 118 OFFCURVE",
"255 180 OFFCURVE",
"220 300 CURVE",
"60 247 LINE",
"137 80 OFFCURVE",
"283 -20 OFFCURVE",
"483 -20 CURVE SMOOTH"
);
}
);
width = 2008;
}
);
note = uni1AA2;
unicode = 1AA2;
},
{
glyphname = uni1AA3;
lastChange = "2016-11-10 14:44:19 +0000";
layers = (
{
layerId = "6FF31E7C-07F6-4791-B014-BC1FF1C32251";
paths = (
{
closed = 1;
nodes = (
"951 1046 OFFCURVE",
"1037 1130 OFFCURVE",
"1037 1230 CURVE SMOOTH",
"1037 1335 OFFCURVE",
"951 1414 OFFCURVE",
"838 1414 CURVE SMOOTH",
"734 1414 OFFCURVE",
"650 1333 OFFCURVE",
"650 1230 CURVE SMOOTH",
"650 1127 OFFCURVE",
"734 1046 OFFCURVE",
"838 1046 CURVE SMOOTH"
);
},
{
closed = 1;
nodes = (
"194 553 OFFCURVE",
"163 585 OFFCURVE",
"163 626 CURVE SMOOTH",
"163 669 OFFCURVE",
"194 701 OFFCURVE",
"237 701 CURVE SMOOTH",
"280 701 OFFCURVE",
"314 669 OFFCURVE",
"314 626 CURVE SMOOTH",
"314 585 OFFCURVE",
"280 553 OFFCURVE",
"237 553 CURVE SMOOTH"
);
},
{
closed = 1;
nodes = (
"794 -47 OFFCURVE",
"763 -15 OFFCURVE",
"763 26 CURVE SMOOTH",
"763 69 OFFCURVE",
"794 101 OFFCURVE",
"837 101 CURVE SMOOTH",
"880 101 OFFCURVE",
"914 69 OFFCURVE",
"914 26 CURVE SMOOTH",
"914 -15 OFFCURVE",
"880 -47 OFFCURVE",
"837 -47 CURVE SMOOTH"
);
},
{
closed = 1;
nodes = (
"351 446 OFFCURVE",
"437 530 OFFCURVE",
"437 630 CURVE SMOOTH",
"437 735 OFFCURVE",
"351 814 OFFCURVE",
"238 814 CURVE SMOOTH",
"134 814 OFFCURVE",
"50 733 OFFCURVE",
"50 630 CURVE SMOOTH",
"50 527 OFFCURVE",
"134 446 OFFCURVE",
"238 446 CURVE SMOOTH"
);
},
{
closed = 1;
nodes = (
"951 -154 OFFCURVE",
"1037 -70 OFFCURVE",
"1037 30 CURVE SMOOTH",
"1037 135 OFFCURVE",
"951 214 OFFCURVE",
"838 214 CURVE SMOOTH",
"734 214 OFFCURVE",
"650 133 OFFCURVE",
"650 30 CURVE SMOOTH",
"650 -73 OFFCURVE",
"734 -154 OFFCURVE",
"838 -154 CURVE SMOOTH"
);
},
{
closed = 1;
nodes = (
"764 279 LINE",
"702 344 LINE",
"530 177 LINE",
"592 112 LINE"
);
},
{
closed = 1;
nodes = (
"661 385 LINE",
"599 450 LINE",
"427 283 LINE",
"489 218 LINE"
);
},
{
closed = 1;
nodes = (
"555 491 LINE",
"493 556 LINE",
"321 389 LINE",
"383 324 LINE"
);
},
{
closed = 1;
nodes = (
"555 775 LINE",
"383 942 LINE",
"321 877 LINE",
"493 710 LINE"
);
},
{
closed = 1;
nodes = (
"1164 177 LINE",
"992 344 LINE",
"930 279 LINE",
"1102 112 LINE"
);
},
{
closed = 1;
nodes = (
"794 553 OFFCURVE",
"763 585 OFFCURVE",
"763 626 CURVE SMOOTH",
"763 669 OFFCURVE",
"794 701 OFFCURVE",
"837 701 CURVE SMOOTH",
"880 701 OFFCURVE",
"914 669 OFFCURVE",
"914 626 CURVE SMOOTH",
"914 585 OFFCURVE",
"880 553 OFFCURVE",
"837 553 CURVE SMOOTH"
);
},
{
closed = 1;
nodes = (
"951 446 OFFCURVE",
"1037 530 OFFCURVE",
"1037 630 CURVE SMOOTH",
"1037 735 OFFCURVE",
"951 814 OFFCURVE",
"838 814 CURVE SMOOTH",
"734 814 OFFCURVE",
"650 733 OFFCURVE",
"650 630 CURVE SMOOTH",
"650 527 OFFCURVE",
"734 446 OFFCURVE",
"838 446 CURVE SMOOTH"
);
},
{
closed = 1;
nodes = (
"661 881 LINE",
"489 1048 LINE",
"427 983 LINE",
"599 816 LINE"
);
},
{
closed = 1;
nodes = (
"1267 283 LINE",
"1095 450 LINE",
"1033 385 LINE",
"1205 218 LINE"
);
},
{
closed = 1;
nodes = (
"764 987 LINE",
"592 1154 LINE",
"530 1089 LINE",
"702 922 LINE"
);
},
{
closed = 1;
nodes = (
"1373 389 LINE",
"1201 556 LINE",
"1139 491 LINE",
"1311 324 LINE"
);
},
{
closed = 1;
nodes = (
"1394 553 OFFCURVE",
"1363 585 OFFCURVE",
"1363 626 CURVE SMOOTH",
"1363 669 OFFCURVE",
"1394 701 OFFCURVE",
"1437 701 CURVE SMOOTH",
"1480 701 OFFCURVE",
"1514 669 OFFCURVE",
"1514 626 CURVE SMOOTH",
"1514 585 OFFCURVE",
"1480 553 OFFCURVE",
"1437 553 CURVE SMOOTH"
);
},
{
closed = 1;
nodes = (
"794 1153 OFFCURVE",
"763 1185 OFFCURVE",
"763 1226 CURVE SMOOTH",
"763 1269 OFFCURVE",
"794 1301 OFFCURVE",
"837 1301 CURVE SMOOTH",
"880 1301 OFFCURVE",
"914 1269 OFFCURVE",
"914 1226 CURVE SMOOTH",
"914 1185 OFFCURVE",
"880 1153 OFFCURVE",
"837 1153 CURVE SMOOTH"
);
},
{
closed = 1;
nodes = (
"1551 446 OFFCURVE",
"1637 530 OFFCURVE",
"1637 630 CURVE SMOOTH",
"1637 735 OFFCURVE",
"1551 814 OFFCURVE",
"1438 814 CURVE SMOOTH",
"1334 814 OFFCURVE",
"1250 733 OFFCURVE",
"1250 630 CURVE SMOOTH",
"1250 527 OFFCURVE",
"1334 446 OFFCURVE",
"1438 446 CURVE SMOOTH"
);
},
{
closed = 1;
nodes = (
"1267 983 LINE",
"1205 1048 LINE",
"1033 881 LINE",
"1095 816 LINE"
);
},
{
closed = 1;
nodes = (
"1373 877 LINE",
"1311 942 LINE",
"1139 775 LINE",
"1201 710 LINE"
);
},
{
closed = 1;
nodes = (
"1164 1089 LINE",
"1102 1154 LINE",
"930 987 LINE",
"992 922 LINE"
);
}
);
width = 1687;
}
);
note = uni1AA3;
unicode = 1AA3;
},
{
glyphname = uni1AA4;
lastChange = "2016-11-10 14:44:19 +0000";
layers = (
{
layerId = "6FF31E7C-07F6-4791-B014-BC1FF1C32251";
paths = (
{
closed = 1;
nodes = (
"1236 0 LINE",
"1236 111 LINE",
"857 111 LINE SMOOTH",
"436 111 OFFCURVE",
"226 281 OFFCURVE",
"226 620 CURVE SMOOTH",
"226 721 OFFCURVE",
"248 810 OFFCURVE",
"291 887 CURVE SMOOTH",
"377 1040 OFFCURVE",
"539 1127 OFFCURVE",
"731 1127 CURVE SMOOTH",
"1031 1127 OFFCURVE",
"1236 971 OFFCURVE",
"1236 732 CURVE SMOOTH",
"1236 467 OFFCURVE",
"1112 346 OFFCURVE",
"857 346 CURVE SMOOTH",
"605 346 OFFCURVE",
"489 429 OFFCURVE",
"489 620 CURVE SMOOTH",
"489 796 OFFCURVE",
"571 878 OFFCURVE",
"751 878 CURVE SMOOTH",
"910 878 OFFCURVE",
"973 832 OFFCURVE",
"973 732 CURVE SMOOTH",
"973 639 OFFCURVE",
"929 593 OFFCURVE",
"824 593 CURVE SMOOTH",
"769 593 OFFCURVE",
"732 601 OFFCURVE",
"714 616 CURVE",
"643 520 LINE",
"684 493 OFFCURVE",
"745 479 OFFCURVE",
"824 479 CURVE SMOOTH",
"1013 479 OFFCURVE",
"1100 561 OFFCURVE",
"1100 732 CURVE SMOOTH",
"1100 905 OFFCURVE",
"986 991 OFFCURVE",
"741 991 CURVE SMOOTH",
"668 991 OFFCURVE",
"603 976 OFFCURVE",
"546 947 CURVE SMOOTH",
"431 887 OFFCURVE",
"362 772 OFFCURVE",
"362 620 CURVE SMOOTH",
"362 356 OFFCURVE",
"520 234 OFFCURVE",
"857 234 CURVE SMOOTH",
"1193 234 OFFCURVE",
"1362 393 OFFCURVE",
"1362 732 CURVE SMOOTH",
"1362 833 OFFCURVE",
"1335 922 OFFCURVE",
"1281 999 CURVE SMOOTH",
"1172 1154 OFFCURVE",
"967 1240 OFFCURVE",
"731 1240 CURVE SMOOTH",
"613 1240 OFFCURVE",
"506 1214 OFFCURVE",
"409 1163 CURVE SMOOTH",
"215 1059 OFFCURVE",
"100 867 OFFCURVE",
"100 620 CURVE SMOOTH",
"100 207 OFFCURVE",
"352 0 OFFCURVE",
"857 0 CURVE SMOOTH"
);
}
);
width = 1462;
}
);
note = uni1AA4;
unicode = 1AA4;
},
{
glyphname = uni1AA5;
lastChange = "2016-11-10 14:44:19 +0000";
layers = (
{
layerId = "6FF31E7C-07F6-4791-B014-BC1FF1C32251";
paths = (
{
closed = 1;
nodes = (
"1334 405 OFFCURVE",
"1400 446 OFFCURVE",
"1400 527 CURVE SMOOTH",
"1400 555 OFFCURVE",
"1382 583 OFFCURVE",
"1345 610 CURVE",
"1382 640 OFFCURVE",
"1400 668 OFFCURVE",
"1400 693 CURVE SMOOTH",
"1400 774 OFFCURVE",
"1334 815 OFFCURVE",
"1203 815 CURVE SMOOTH",
"1119 815 OFFCURVE",
"1032 784 OFFCURVE",
"973 732 CURVE",
"1034 654 LINE",
"1083 691 OFFCURVE",
"1131 715 OFFCURVE",
"1203 715 CURVE SMOOTH",
"1262 715 OFFCURVE",
"1291 706 OFFCURVE",
"1291 689 CURVE SMOOTH",
"1291 682 OFFCURVE",
"1286 673 OFFCURVE",
"1277 664 CURVE SMOOTH",
"1268 655 OFFCURVE",
"1248 648 OFFCURVE",
"1219 644 CURVE",
"1219 576 LINE",
"1267 569 OFFCURVE",
"1291 554 OFFCURVE",
"1291 530 CURVE SMOOTH",
"1291 513 OFFCURVE",
"1262 505 OFFCURVE",
"1203 505 CURVE SMOOTH",
"1131 505 OFFCURVE",
"1083 527 OFFCURVE",
"1034 566 CURVE",
"973 488 LINE",
"1033 436 OFFCURVE",
"1119 405 OFFCURVE",
"1203 405 CURVE SMOOTH"
);
},
{
closed = 1;
nodes = (
"440 331 LINE",
"378 396 LINE",
"171 199 LINE",
"233 134 LINE"
);
},
{
closed = 1;
nodes = (
"528 246 LINE",
"466 311 LINE",
"259 114 LINE",
"321 49 LINE"
);
},
{
closed = 1;
nodes = (
"385 405 OFFCURVE",
"462 433 OFFCURVE",
"527 488 CURVE",
"466 566 LINE",
"417 527 OFFCURVE",
"369 505 OFFCURVE",
"297 505 CURVE SMOOTH",
"238 505 OFFCURVE",
"209 513 OFFCURVE",
"209 530 CURVE SMOOTH",
"209 554 OFFCURVE",
"233 569 OFFCURVE",
"281 576 CURVE",
"281 644 LINE",
"252 648 OFFCURVE",
"232 655 OFFCURVE",
"223 664 CURVE SMOOTH",
"214 673 OFFCURVE",
"209 682 OFFCURVE",
"209 689 CURVE SMOOTH",
"209 706 OFFCURVE",
"238 715 OFFCURVE",
"297 715 CURVE SMOOTH",
"369 715 OFFCURVE",
"417 691 OFFCURVE",
"466 654 CURVE",
"527 732 LINE",
"462 787 OFFCURVE",
"385 815 OFFCURVE",
"297 815 CURVE SMOOTH",
"166 815 OFFCURVE",
"100 774 OFFCURVE",
"100 693 CURVE SMOOTH",
"100 668 OFFCURVE",
"118 640 OFFCURVE",
"155 610 CURVE",
"118 583 OFFCURVE",
"100 555 OFFCURVE",
"100 527 CURVE SMOOTH",
"100 446 OFFCURVE",
"166 405 OFFCURVE",
"297 405 CURVE SMOOTH"
);
},
{
closed = 1;
nodes = (
"695 -40 OFFCURVE",
"723 -22 OFFCURVE",
"750 15 CURVE",
"780 -22 OFFCURVE",
"808 -40 OFFCURVE",
"833 -40 CURVE SMOOTH",
"914 -40 OFFCURVE",
"955 26 OFFCURVE",
"955 157 CURVE SMOOTH",
"955 245 OFFCURVE",
"927 322 OFFCURVE",
"872 387 CURVE",
"794 326 LINE",
"831 277 OFFCURVE",
"855 229 OFFCURVE",
"855 157 CURVE SMOOTH",
"855 98 OFFCURVE",
"846 69 OFFCURVE",
"829 69 CURVE SMOOTH",
"822 69 OFFCURVE",
"813 74 OFFCURVE",
"804 83 CURVE SMOOTH",
"795 92 OFFCURVE",
"788 112 OFFCURVE",
"784 141 CURVE",
"716 141 LINE",
"709 93 OFFCURVE",
"694 69 OFFCURVE",
"670 69 CURVE SMOOTH",
"653 69 OFFCURVE",
"645 98 OFFCURVE",
"645 157 CURVE SMOOTH",
"645 229 OFFCURVE",
"667 277 OFFCURVE",
"706 326 CURVE",
"628 387 LINE",
"573 322 OFFCURVE",
"545 245 OFFCURVE",
"545 157 CURVE SMOOTH",
"545 26 OFFCURVE",
"586 -40 OFFCURVE",
"667 -40 CURVE SMOOTH"
);
},
{
closed = 1;
nodes = (
"440 889 LINE",
"233 1086 LINE",
"171 1021 LINE",
"378 824 LINE"
);
},
{
closed = 1;
nodes = (
"1241 114 LINE",
"1034 311 LINE",
"972 246 LINE",
"1179 49 LINE"
);
},
{
closed = 1;
nodes = (
"707 533 OFFCURVE",
"676 565 OFFCURVE",
"676 606 CURVE SMOOTH",
"676 649 OFFCURVE",
"707 681 OFFCURVE",
"750 681 CURVE SMOOTH",
"793 681 OFFCURVE",
"827 649 OFFCURVE",
"827 606 CURVE SMOOTH",
"827 565 OFFCURVE",
"793 533 OFFCURVE",
"750 533 CURVE SMOOTH"
);
},
{
closed = 1;
nodes = (
"864 426 OFFCURVE",
"950 510 OFFCURVE",
"950 610 CURVE SMOOTH",
"950 715 OFFCURVE",
"864 794 OFFCURVE",
"751 794 CURVE SMOOTH",
"647 794 OFFCURVE",
"563 713 OFFCURVE",
"563 610 CURVE SMOOTH",
"563 507 OFFCURVE",
"647 426 OFFCURVE",
"751 426 CURVE SMOOTH"
);
},
{
closed = 1;
nodes = (
"528 974 LINE",
"321 1171 LINE",
"259 1106 LINE",
"466 909 LINE"
);
},
{
closed = 1;
nodes = (
"1329 199 LINE",
"1122 396 LINE",
"1060 331 LINE",
"1267 134 LINE"
);
},
{
closed = 1;
nodes = (
"706 894 LINE",
"667 943 OFFCURVE",
"645 991 OFFCURVE",
"645 1063 CURVE SMOOTH",
"645 1122 OFFCURVE",
"653 1151 OFFCURVE",
"670 1151 CURVE SMOOTH",
"694 1151 OFFCURVE",
"709 1127 OFFCURVE",
"716 1079 CURVE",
"784 1079 LINE",
"788 1108 OFFCURVE",
"795 1128 OFFCURVE",
"804 1137 CURVE SMOOTH",
"813 1146 OFFCURVE",
"822 1151 OFFCURVE",
"829 1151 CURVE SMOOTH",
"846 1151 OFFCURVE",
"855 1122 OFFCURVE",
"855 1063 CURVE SMOOTH",
"855 991 OFFCURVE",
"831 943 OFFCURVE",
"794 894 CURVE",
"872 833 LINE",
"924 893 OFFCURVE",
"955 979 OFFCURVE",
"955 1063 CURVE SMOOTH",
"955 1194 OFFCURVE",
"914 1260 OFFCURVE",
"833 1260 CURVE SMOOTH",
"808 1260 OFFCURVE",
"780 1242 OFFCURVE",
"750 1205 CURVE",
"723 1242 OFFCURVE",
"695 1260 OFFCURVE",
"667 1260 CURVE SMOOTH",
"586 1260 OFFCURVE",
"545 1194 OFFCURVE",
"545 1063 CURVE SMOOTH",
"545 979 OFFCURVE",
"576 892 OFFCURVE",
"628 833 CURVE"
);
},
{
closed = 1;
nodes = (
"1241 1106 LINE",
"1179 1171 LINE",
"972 974 LINE",
"1034 909 LINE"
);
},
{
closed = 1;
nodes = (
"1329 1021 LINE",
"1267 1086 LINE",
"1060 889 LINE",
"1122 824 LINE"
);
}
);
width = 1500;
}
);
note = uni1AA5;
unicode = 1AA5;
},
{
glyphname = uni1AA6;
lastChange = "2016-11-10 14:44:19 +0000";
layers = (
{
layerId = "6FF31E7C-07F6-4791-B014-BC1FF1C32251";
paths = (
{
closed = 1;
nodes = (
"1009 -600 OFFCURVE",
"1238 -408 OFFCURVE",
"1238 -112 CURVE SMOOTH",
"1238 -20 OFFCURVE",
"1216 62 OFFCURVE",
"1173 134 CURVE SMOOTH",
"1086 278 OFFCURVE",
"921 360 OFFCURVE",
"716 360 CURVE SMOOTH",
"658 360 OFFCURVE",
"594 350 OFFCURVE",
"523 331 CURVE SMOOTH",
"452 311 OFFCURVE",
"407 301 OFFCURVE",
"389 301 CURVE SMOOTH",
"322 301 OFFCURVE",
"278 348 OFFCURVE",
"278 427 CURVE SMOOTH",
"278 511 OFFCURVE",
"314 563 OFFCURVE",
"389 563 CURVE SMOOTH",
"407 563 OFFCURVE",
"452 553 OFFCURVE",
"523 534 CURVE SMOOTH",
"594 514 OFFCURVE",
"658 504 OFFCURVE",
"716 504 CURVE SMOOTH",
"1031 504 OFFCURVE",
"1238 696 OFFCURVE",
"1238 976 CURVE SMOOTH",
"1238 1072 OFFCURVE",
"1215 1157 OFFCURVE",
"1168 1232 CURVE SMOOTH",
"1074 1380 OFFCURVE",
"892 1464 OFFCURVE",
"668 1464 CURVE SMOOTH",
"547 1464 OFFCURVE",
"444 1447 OFFCURVE",
"358 1414 CURVE SMOOTH",
"185 1346 OFFCURVE",
"100 1217 OFFCURVE",
"100 1044 CURVE",
"104 972 LINE",
"269 991 LINE",
"268 1008 LINE",
"268 1024 LINE SMOOTH",
"268 1229 OFFCURVE",
"401 1326 OFFCURVE",
"680 1326 CURVE SMOOTH",
"933 1326 OFFCURVE",
"1060 1209 OFFCURVE",
"1060 976 CURVE SMOOTH",
"1060 753 OFFCURVE",
"936 642 OFFCURVE",
"699 642 CURVE SMOOTH",
"629 642 OFFCURVE",
"561 651 OFFCURVE",
"496 670 CURVE SMOOTH",
"405 695 OFFCURVE",
"382 698 OFFCURVE",
"337 698 CURVE SMOOTH",
"189 698 OFFCURVE",
"100 601 OFFCURVE",
"100 429 CURVE SMOOTH",
"100 261 OFFCURVE",
"180 166 OFFCURVE",
"337 166 CURVE SMOOTH",
"402 166 OFFCURVE",
"446 180 OFFCURVE",
"496 194 CURVE SMOOTH",
"546 208 OFFCURVE",
"603 222 OFFCURVE",
"699 222 CURVE SMOOTH",
"936 222 OFFCURVE",
"1060 111 OFFCURVE",
"1060 -112 CURVE SMOOTH",
"1060 -345 OFFCURVE",
"933 -462 OFFCURVE",
"680 -462 CURVE SMOOTH",
"400 -462 OFFCURVE",
"268 -364 OFFCURVE",
"268 -160 CURVE SMOOTH",
"268 -143 LINE",
"269 -127 LINE",
"104 -108 LINE",
"100 -180 LINE",
"100 -266 OFFCURVE",
"121 -341 OFFCURVE",
"164 -404 CURVE SMOOTH",
"249 -531 OFFCURVE",
"429 -600 OFFCURVE",
"668 -600 CURVE SMOOTH"
);
}
);
width = 1338;
}
);
note = uni1AA6;
unicode = 1AA6;
},
{
glyphname = uni1AA7;
lastChange = "2016-11-10 14:44:19 +0000";
layers = (
{
layerId = "6FF31E7C-07F6-4791-B014-BC1FF1C32251";
paths = (
{
closed = 1;
nodes = (
"833 -534 LINE",
"814 -458 OFFCURVE",
"789 -353 OFFCURVE",
"789 -229 CURVE SMOOTH",
"789 -136 OFFCURVE",
"824 -64 OFFCURVE",
"968 64 CURVE SMOOTH",
"1037 125 OFFCURVE",
"1086 171 OFFCURVE",
"1113 201 CURVE SMOOTH",
"1215 314 OFFCURVE",
"1266 451 OFFCURVE",
"1266 613 CURVE SMOOTH",
"1266 714 OFFCURVE",
"1251 802 OFFCURVE",
"1221 879 CURVE SMOOTH",
"1161 1031 OFFCURVE",
"1049 1118 OFFCURVE",
"924 1118 CURVE SMOOTH",
"809 1118 OFFCURVE",
"728 1066 OFFCURVE",
"682 963 CURVE",
"636 1066 OFFCURVE",
"556 1118 OFFCURVE",
"441 1118 CURVE SMOOTH",
"381 1118 OFFCURVE",
"326 1099 OFFCURVE",
"275 1061 CURVE SMOOTH",
"174 984 OFFCURVE",
"108 838 OFFCURVE",
"100 651 CURVE",
"277 627 LINE",
"280 740 OFFCURVE",
"295 828 OFFCURVE",
"324 889 CURVE SMOOTH",
"353 950 OFFCURVE",
"393 980 OFFCURVE",
"445 980 CURVE SMOOTH",
"541 980 OFFCURVE",
"601 881 OFFCURVE",
"617 708 CURVE",
"748 708 LINE",
"764 880 OFFCURVE",
"823 980 OFFCURVE",
"920 980 CURVE SMOOTH",
"975 980 OFFCURVE",
"1017 946 OFFCURVE",
"1046 877 CURVE SMOOTH",
"1074 808 OFFCURVE",
"1088 713 OFFCURVE",
"1088 590 CURVE SMOOTH",
"1088 423 OFFCURVE",
"1057 348 OFFCURVE",
"922 213 CURVE",
"837 140 OFFCURVE",
"775 80 OFFCURVE",
"738 35 CURVE SMOOTH",
"662 -56 OFFCURVE",
"619 -148 OFFCURVE",
"619 -255 CURVE SMOOTH",
"619 -350 OFFCURVE",
"648 -508 OFFCURVE",
"679 -595 CURVE"
);
}
);
width = 1366;
}
);
note = uni1AA7;
unicode = 1AA7;
},
{
glyphname = uni1AA8;
lastChange = "2016-11-10 14:44:19 +0000";
layers = (
{
layerId = "6FF31E7C-07F6-4791-B014-BC1FF1C32251";
paths = (
{
closed = 1;
nodes = (
"390 0 LINE",
"390 1240 LINE",
"220 1240 LINE",
"220 0 LINE"
);
}
);
width = 610;
}
);
note = uni1AA8;
unicode = 1AA8;
},
{
glyphname = uni1AA9;
lastChange = "2016-11-10 14:44:19 +0000";
layers = (
{
layerId = "6FF31E7C-07F6-4791-B014-BC1FF1C32251";
paths = (
{
closed = 1;
nodes = (
"720 0 LINE",
"720 1240 LINE",
"550 1240 LINE",
"550 0 LINE"
);
},
{
closed = 1;
nodes = (
"390 0 LINE",
"390 1240 LINE",
"220 1240 LINE",
"220 0 LINE"
);
}
);
width = 940;
}
);
note = uni1AA9;
unicode = 1AA9;
},
{
glyphname = uni1AAA;
lastChange = "2016-11-10 14:44:19 +0000";
layers = (
{
layerId = "6FF31E7C-07F6-4791-B014-BC1FF1C32251";
paths = (
{
closed = 1;
nodes = (
"1027 0 LINE",
"1027 1240 LINE",
"857 1240 LINE",
"857 624 LINE",
"808 541 OFFCURVE",
"715 499 OFFCURVE",
"578 499 CURVE SMOOTH",
"390 499 OFFCURVE",
"278 613 OFFCURVE",
"278 780 CURVE SMOOTH",
"278 981 OFFCURVE",
"384 1082 OFFCURVE",
"573 1113 CURVE",
"520 1248 LINE",
"273 1208 OFFCURVE",
"100 1017 OFFCURVE",
"100 780 CURVE SMOOTH",
"100 695 OFFCURVE",
"120 621 OFFCURVE",
"160 558 CURVE SMOOTH",
"239 431 OFFCURVE",
"390 361 OFFCURVE",
"571 361 CURVE SMOOTH",
"676 361 OFFCURVE",
"772 386 OFFCURVE",
"857 436 CURVE",
"857 0 LINE"
);
}
);
width = 1227;
}
);
note = uni1AAA;
unicode = 1AAA;
},
{
glyphname = uni1AAB;
lastChange = "2016-11-10 14:44:19 +0000";
layers = (
{
layerId = "6FF31E7C-07F6-4791-B014-BC1FF1C32251";
paths = (
{
closed = 1;
nodes = (
"1027 0 LINE",
"1027 1040 LINE",
"857 1040 LINE",
"857 624 LINE",
"808 541 OFFCURVE",
"715 499 OFFCURVE",
"578 499 CURVE SMOOTH",
"390 499 OFFCURVE",
"278 613 OFFCURVE",
"278 780 CURVE SMOOTH",
"278 981 OFFCURVE",
"384 1082 OFFCURVE",
"573 1113 CURVE",
"520 1248 LINE",
"273 1208 OFFCURVE",
"100 1017 OFFCURVE",
"100 780 CURVE SMOOTH",
"100 695 OFFCURVE",
"120 621 OFFCURVE",
"160 558 CURVE SMOOTH",
"239 431 OFFCURVE",
"390 361 OFFCURVE",
"571 361 CURVE SMOOTH",
"676 361 OFFCURVE",
"772 386 OFFCURVE",
"857 436 CURVE",
"857 0 LINE"
);
},
{
closed = 1;
nodes = (
"1327 0 LINE",
"1327 1240 LINE",
"1157 1240 LINE",
"1157 0 LINE"
);
}
);
width = 1527;
}
);
note = uni1AAB;
unicode = 1AAB;
},
{
glyphname = uni1AAC;
lastChange = "2016-11-10 14:44:19 +0000";
layers = (
{
layerId = "6FF31E7C-07F6-4791-B014-BC1FF1C32251";
paths = (
{
closed = 1;
nodes = (
"671 -20 OFFCURVE",
"838 81 OFFCURVE",
"923 257 CURVE",
"1004 216 OFFCURVE",
"1100 195 OFFCURVE",
"1213 195 CURVE SMOOTH",
"1400 195 OFFCURVE",
"1561 288 OFFCURVE",
"1645 457 CURVE",
"1718 426 OFFCURVE",
"1804 410 OFFCURVE",
"1903 410 CURVE SMOOTH",
"2000 410 OFFCURVE",
"2087 434 OFFCURVE",
"2164 481 CURVE SMOOTH",
"2316 576 OFFCURVE",
"2404 758 OFFCURVE",
"2404 993 CURVE SMOOTH",
"2404 1107 OFFCURVE",
"2384 1205 OFFCURVE",
"2344 1288 CURVE SMOOTH",
"2263 1453 OFFCURVE",
"2113 1548 OFFCURVE",
"1944 1548 CURVE SMOOTH",
"1807 1548 OFFCURVE",
"1690 1508 OFFCURVE",
"1610 1391 CURVE",
"1740 1311 LINE",
"1779 1371 OFFCURVE",
"1845 1410 OFFCURVE",
"1921 1410 CURVE SMOOTH",
"1982 1410 OFFCURVE",
"2035 1394 OFFCURVE",
"2081 1361 CURVE SMOOTH",
"2172 1296 OFFCURVE",
"2226 1168 OFFCURVE",
"2226 995 CURVE SMOOTH",
"2226 719 OFFCURVE",
"2103 548 OFFCURVE",
"1902 548 CURVE SMOOTH",
"1833 548 OFFCURVE",
"1765 568 OFFCURVE",
"1697 608 CURVE",
"1708 663 OFFCURVE",
"1714 720 OFFCURVE",
"1714 778 CURVE SMOOTH",
"1714 892 OFFCURVE",
"1694 990 OFFCURVE",
"1654 1073 CURVE SMOOTH",
"1573 1238 OFFCURVE",
"1423 1333 OFFCURVE",
"1254 1333 CURVE SMOOTH",
"1117 1333 OFFCURVE",
"1000 1293 OFFCURVE",
"920 1176 CURVE",
"1050 1096 LINE",
"1089 1156 OFFCURVE",
"1155 1195 OFFCURVE",
"1231 1195 CURVE SMOOTH",
"1292 1195 OFFCURVE",
"1345 1179 OFFCURVE",
"1391 1146 CURVE SMOOTH",
"1482 1081 OFFCURVE",
"1536 953 OFFCURVE",
"1536 780 CURVE SMOOTH",
"1536 504 OFFCURVE",
"1413 333 OFFCURVE",
"1212 333 CURVE SMOOTH",
"1129 333 OFFCURVE",
"1049 361 OFFCURVE",
"972 417 CURVE",
"980 459 OFFCURVE",
"984 504 OFFCURVE",
"984 553 CURVE SMOOTH",
"984 674 OFFCURVE",
"964 776 OFFCURVE",
"924 861 CURVE SMOOTH",
"843 1030 OFFCURVE",
"691 1118 OFFCURVE",
"490 1118 CURVE SMOOTH",
"335 1118 OFFCURVE",
"186 1046 OFFCURVE",
"90 915 CURVE",
"221 839 LINE",
"276 926 OFFCURVE",
"377 980 OFFCURVE",
"481 980 CURVE SMOOTH",
"684 980 OFFCURVE",
"806 826 OFFCURVE",
"806 555 CURVE SMOOTH",
"806 295 OFFCURVE",
"680 118 OFFCURVE",
"492 118 CURVE SMOOTH",
"355 118 OFFCURVE",
"255 180 OFFCURVE",
"220 300 CURVE",
"60 247 LINE",
"137 80 OFFCURVE",
"283 -20 OFFCURVE",
"483 -20 CURVE SMOOTH"
);
}
);
width = 2524;
}
);
note = uni1AAC;
unicode = 1AAC;
},
{
glyphname = uni1AAD;
lastChange = "2016-11-10 14:44:19 +0000";
layers = (
{
layerId = "6FF31E7C-07F6-4791-B014-BC1FF1C32251";
paths = (
{
closed = 1;
nodes = (
"683 -570 OFFCURVE",
"771 -544 OFFCURVE",
"837 -493 CURVE SMOOTH",
"968 -391 OFFCURVE",
"1031 -182 OFFCURVE",
"1031 165 CURVE SMOOTH",
"1031 236 LINE SMOOTH",
"1031 496 OFFCURVE",
"941 702 OFFCURVE",
"772 793 CURVE",
"693 675 LINE",
"735 648 OFFCURVE",
"768 615 OFFCURVE",
"793 576 CURVE SMOOTH",
"841 499 OFFCURVE",
"861 413 OFFCURVE",
"861 210 CURVE SMOOTH",
"861 151 LINE SMOOTH",
"861 -20 OFFCURVE",
"852 -141 OFFCURVE",
"834 -212 CURVE SMOOTH",
"797 -356 OFFCURVE",
"719 -432 OFFCURVE",
"572 -432 CURVE SMOOTH",
"432 -432 OFFCURVE",
"341 -367 OFFCURVE",
"301 -214 CURVE SMOOTH",
"280 -138 OFFCURVE",
"270 -18 OFFCURVE",
"270 145 CURVE SMOOTH",
"270 346 LINE SMOOTH",
"270 379 OFFCURVE",
"281 410 OFFCURVE",
"302 438 CURVE SMOOTH",
"344 494 OFFCURVE",
"422 527 OFFCURVE",
"537 527 CURVE SMOOTH",
"555 527 LINE",
"555 646 LINE",
"359 650 OFFCURVE",
"276 715 OFFCURVE",
"276 835 CURVE SMOOTH",
"276 922 OFFCURVE",
"351 980 OFFCURVE",
"499 980 CURVE SMOOTH",
"550 980 OFFCURVE",
"603 970 OFFCURVE",
"657 951 CURVE",
"706 1075 LINE",
"632 1104 OFFCURVE",
"557 1118 OFFCURVE",
"480 1118 CURVE SMOOTH",
"405 1118 OFFCURVE",
"338 1106 OFFCURVE",
"281 1082 CURVE SMOOTH",
"166 1033 OFFCURVE",
"100 939 OFFCURVE",
"100 835 CURVE SMOOTH",
"100 724 OFFCURVE",
"149 653 OFFCURVE",
"284 598 CURVE",
"161 548 OFFCURVE",
"100 468 OFFCURVE",
"100 358 CURVE SMOOTH",
"100 165 LINE SMOOTH",
"100 -16 OFFCURVE",
"115 -160 OFFCURVE",
"146 -265 CURVE SMOOTH",
"207 -477 OFFCURVE",
"329 -570 OFFCURVE",
"572 -570 CURVE SMOOTH"
);
}
);
width = 1131;
}
);
note = uni1AAD;
unicode = 1AAD;
},
{
glyphname = uni1A20.alt;
lastChange = "2016-11-10 14:44:24 +0000";
layers = (
{
layerId = "6FF31E7C-07F6-4791-B014-BC1FF1C32251";
paths = (
{
closed = 1;
nodes = (
"1138 225 OFFCURVE",
"1230 267 OFFCURVE",
"1295 347 CURVE SMOOTH",
"1359 426 OFFCURVE",
"1397 540 OFFCURVE",
"1397 684 CURVE SMOOTH",
"1397 821 OFFCURVE",
"1360 929 OFFCURVE",
"1294 1003 CURVE SMOOTH",
"1228 1077 OFFCURVE",
"1134 1116 OFFCURVE",
"1022 1116 CURVE SMOOTH",
"973 1116 OFFCURVE",
"918 1100 OFFCURVE",
"870 1073 CURVE SMOOTH",
"821 1046 OFFCURVE",
"778 1009 OFFCURVE",
"753 968 CURVE",
"674 1072 OFFCURVE",
"581 1116 OFFCURVE",
"457 1116 CURVE SMOOTH",
"345 1116 OFFCURVE",
"248 1071 OFFCURVE",
"178 993 CURVE SMOOTH",
"108 915 OFFCURVE",
"65 804 OFFCURVE",
"65 673 CURVE SMOOTH",
"65 481 OFFCURVE",
"150 323 OFFCURVE",
"329 228 CURVE",
"383 353 LINE",
"286 394 OFFCURVE",
"224 499 OFFCURVE",
"224 679 CURVE SMOOTH",
"224 884 OFFCURVE",
"302 987 OFFCURVE",
"457 987 CURVE SMOOTH",
"612 987 OFFCURVE",
"689 884 OFFCURVE",
"689 679 CURVE SMOOTH",
"689 499 OFFCURVE",
"627 394 OFFCURVE",
"530 353 CURVE",
"584 228 LINE",
"756 320 OFFCURVE",
"848 471 OFFCURVE",
"848 662 CURVE SMOOTH",
"848 698 OFFCURVE",
"845 731 OFFCURVE",
"839 761 CURVE",
"850 900 OFFCURVE",
"917 987 OFFCURVE",
"1025 987 CURVE SMOOTH",
"1160 987 OFFCURVE",
"1238 876 OFFCURVE",
"1238 681 CURVE SMOOTH",
"1238 582 OFFCURVE",
"1218 500 OFFCURVE",
"1181 444 CURVE SMOOTH",
"1144 387 OFFCURVE",
"1091 354 OFFCURVE",
"1024 354 CURVE SMOOTH",
"985 354 OFFCURVE",
"946 364 OFFCURVE",
"905 388 CURVE",
"831 280 LINE",
"896 243 OFFCURVE",
"962 225 OFFCURVE",
"1030 225 CURVE SMOOTH"
);
}
);
width = 1479;
}
);
note = uni1A20.alt;
},
{
glyphname = uni1A21.alt;
lastChange = "2016-11-10 14:44:24 +0000";
layers = (
{
layerId = "6FF31E7C-07F6-4791-B014-BC1FF1C32251";
paths = (
{
closed = 1;
nodes = (
"771 227 LINE",
"760 316 OFFCURVE",
"742 387 OFFCURVE",
"713 447 CURVE",
"754 527 OFFCURVE",
"773 610 OFFCURVE",
"773 703 CURVE SMOOTH",
"773 826 OFFCURVE",
"735 929 OFFCURVE",
"667 1002 CURVE SMOOTH",
"599 1074 OFFCURVE",
"501 1116 OFFCURVE",
"381 1116 CURVE SMOOTH",
"314 1116 OFFCURVE",
"250 1099 OFFCURVE",
"194 1069 CURVE SMOOTH",
"138 1039 OFFCURVE",
"90 995 OFFCURVE",
"58 943 CURVE",
"173 875 LINE",
"194 910 OFFCURVE",
"225 937 OFFCURVE",
"258 957 CURVE SMOOTH",
"291 976 OFFCURVE",
"329 987 OFFCURVE",
"366 987 CURVE SMOOTH",
"531 987 OFFCURVE",
"614 883 OFFCURVE",
"614 695 CURVE SMOOTH",
"614 655 OFFCURVE",
"611 618 OFFCURVE",
"605 583 CURVE",
"537 637 OFFCURVE",
"454 664 OFFCURVE",
"356 664 CURVE SMOOTH",
"275 664 OFFCURVE",
"207 638 OFFCURVE",
"159 597 CURVE SMOOTH",
"111 556 OFFCURVE",
"84 496 OFFCURVE",
"84 431 CURVE SMOOTH",
"84 372 OFFCURVE",
"112 321 OFFCURVE",
"163 284 CURVE SMOOTH",
"214 247 OFFCURVE",
"286 225 OFFCURVE",
"375 225 CURVE SMOOTH",
"466 225 OFFCURVE",
"545 256 OFFCURVE",
"614 319 CURVE",
"621 287 OFFCURVE",
"626 247 OFFCURVE",
"630 200 CURVE"
);
},
{
closed = 1;
nodes = (
"281 354 OFFCURVE",
"235 386 OFFCURVE",
"235 442 CURVE SMOOTH",
"235 498 OFFCURVE",
"279 536 OFFCURVE",
"374 536 CURVE SMOOTH",
"446 536 OFFCURVE",
"512 502 OFFCURVE",
"556 446 CURVE",
"519 386 OFFCURVE",
"458 354 OFFCURVE",
"382 354 CURVE SMOOTH"
);
}
);
width = 843;
}
);
note = uni1A21.alt;
},
{
glyphname = uni1A22.alt;
lastChange = "2016-11-10 14:44:24 +0000";
layers = (
{
layerId = "6FF31E7C-07F6-4791-B014-BC1FF1C32251";
paths = (
{
closed = 1;
nodes = (
"771 227 LINE",
"760 316 OFFCURVE",
"742 387 OFFCURVE",
"713 447 CURVE",
"754 527 OFFCURVE",
"773 610 OFFCURVE",
"773 703 CURVE SMOOTH",
"773 823 OFFCURVE",
"735 927 OFFCURVE",
"670 1000 CURVE SMOOTH",
"605 1072 OFFCURVE",
"512 1116 OFFCURVE",
"403 1116 CURVE SMOOTH",
"331 1116 OFFCURVE",
"275 1104 OFFCURVE",
"220 1073 CURVE",
"224 1222 OFFCURVE",
"237 1320 OFFCURVE",
"269 1380 CURVE SMOOTH",
"301 1440 OFFCURVE",
"352 1462 OFFCURVE",
"431 1462 CURVE SMOOTH",
"467 1462 OFFCURVE",
"507 1450 OFFCURVE",
"542 1430 CURVE SMOOTH",
"577 1409 OFFCURVE",
"606 1380 OFFCURVE",
"625 1347 CURVE",
"747 1442 LINE",
"668 1541 OFFCURVE",
"569 1590 OFFCURVE",
"450 1590 CURVE SMOOTH",
"191 1590 OFFCURVE",
"62 1358 OFFCURVE",
"62 895 CURVE",
"217 881 LINE",
"236 946 OFFCURVE",
"297 987 OFFCURVE",
"366 987 CURVE SMOOTH",
"533 987 OFFCURVE",
"614 883 OFFCURVE",
"614 695 CURVE SMOOTH",
"614 655 OFFCURVE",
"611 618 OFFCURVE",
"605 583 CURVE",
"537 637 OFFCURVE",
"454 664 OFFCURVE",
"356 664 CURVE SMOOTH",
"275 664 OFFCURVE",
"207 638 OFFCURVE",
"159 597 CURVE SMOOTH",
"111 556 OFFCURVE",
"84 496 OFFCURVE",
"84 431 CURVE SMOOTH",
"84 372 OFFCURVE",
"112 321 OFFCURVE",
"163 284 CURVE SMOOTH",
"214 247 OFFCURVE",
"286 225 OFFCURVE",
"375 225 CURVE SMOOTH",
"466 225 OFFCURVE",
"545 256 OFFCURVE",
"614 319 CURVE",
"621 287 OFFCURVE",
"626 247 OFFCURVE",
"630 200 CURVE"
);
},
{
closed = 1;
nodes = (
"281 354 OFFCURVE",
"235 386 OFFCURVE",
"235 442 CURVE SMOOTH",
"235 498 OFFCURVE",
"279 536 OFFCURVE",
"374 536 CURVE SMOOTH",
"446 536 OFFCURVE",
"512 502 OFFCURVE",
"556 446 CURVE",
"519 386 OFFCURVE",
"458 354 OFFCURVE",
"382 354 CURVE SMOOTH"
);
}
);
width = 843;
}
);
note = uni1A22.alt;
},
